<?xml version="1.0" encoding="UTF-8" standalone="no"?>
<!DOCTYPE svg PUBLIC "-//W3C//DTD SVG 1.1//EN"
 "http://www.w3.org/Graphics/SVG/1.1/DTD/svg11.dtd">
<!-- Generated by graphviz version 12.2.1 (0)
 -->
<!-- Title: std::bezout_coeff Pages: 1 -->
<svg width="174pt" height="176pt"
 viewBox="0.00 0.00 173.82 176.00" xmlns="http://www.w3.org/2000/svg" xmlns:xlink="http://www.w3.org/1999/xlink">

<svg id="main" version="1.1" xmlns="http://www.w3.org/2000/svg" xmlns:xlink="http://www.w3.org/1999/xlink" xml:space="preserve">

<style type="text/css"><![CDATA[
.node, .edge {opacity: 0.7;}
.node.selected, .edge.selected {opacity: 1;}
.edge:hover path { stroke: red; }
.edge:hover polygon { stroke: red; fill: red; }
]]></style>
<script type="application/ecmascript" xlink:href="svg.min.js"/>
<svg id="graph" class="graph">
<g id="graph0" class="graph" transform="scale(1 1) rotate(0) translate(4 172)">
<title>std::bezout_coeff</title>
<!-- Node1 -->
<g id="Node000001" class="node">
<title>Node1</title>
<g id="a_Node000001"><a xlink:title="Represents a signed coefficient for Bézout&#39;s identity Since uint128_t is unsigned,...">
<polygon fill="#999999" stroke="#666666" points="132.12,-20 41.12,-20 41.12,0 132.12,0 132.12,-20"/>
<text text-anchor="middle" x="86.62" y="-6.5" font-family="Helvetica,sans-Serif" font-size="10.00">std::bezout_coeff</text>
</a>
</g>
</g>
<!-- Node2 -->
<g id="Node000002" class="node">
<title>Node2</title>
<g id="a_Node000002"><a xlink:href="classuint128__t.html" target="_top" xlink:title=" ">
<polygon fill="white" stroke="#666666" points="77.5,-94 21.75,-94 21.75,-74 77.5,-74 77.5,-94"/>
<text text-anchor="middle" x="49.62" y="-80.5" font-family="Helvetica,sans-Serif" font-size="10.00">uint128_t</text>
</a>
</g>
</g>
<!-- Node2&#45;&gt;Node1 -->
<g id="edge1_Node000001_Node000002" class="edge">
<title>Node2&#45;&gt;Node1</title>
<g id="a_edge1_Node000001_Node000002"><a xlink:title=" ">
<path fill="none" stroke="#9a32cd" stroke-dasharray="5,2" d="M46.36,-62.42C46.01,-54.4 46.83,-45.39 50.62,-38 54.41,-30.63 61.23,-24.74 67.93,-20.36"/>
<polygon fill="#9a32cd" stroke="#9a32cd" points="42.87,-62.74 47.43,-72.3 49.83,-61.98 42.87,-62.74"/>
</a>
</g>
<text text-anchor="start" x="53.62" y="-43.5" font-family="Helvetica,sans-Serif" font-size="10.00" fill="grey">magnitude</text>
</g>
<!-- Node3 -->
<g id="Node000003" class="node">
<title>Node3</title>
<g id="a_Node000003"><a xlink:title=" ">
<polygon fill="white" stroke="#666666" points="99.25,-168 0,-168 0,-148 99.25,-148 99.25,-168"/>
<text text-anchor="middle" x="49.62" y="-154.5" font-family="Helvetica,sans-Serif" font-size="10.00">static constexpr int</text>
</a>
</g>
</g>
<!-- Node3&#45;&gt;Node2 -->
<g id="edge2_Node000002_Node000003" class="edge">
<title>Node3&#45;&gt;Node2</title>
<g id="a_edge2_Node000002_Node000003"><a xlink:title=" ">
<path fill="none" stroke="#9a32cd" stroke-dasharray="5,2" d="M49.62,-136.18C49.62,-122.29 49.62,-104.71 49.62,-94.19"/>
<polygon fill="#9a32cd" stroke="#9a32cd" points="46.13,-136.07 49.63,-146.07 53.13,-136.07 46.13,-136.07"/>
</a>
</g>
<text text-anchor="start" x="52.62" y="-117.5" font-family="Helvetica,sans-Serif" font-size="10.00" fill="grey">UINT128_BITS</text>
</g>
<!-- Node4 -->
<g id="Node000004" class="node">
<title>Node4</title>
<g id="a_Node000004"><a xlink:title=" ">
<polygon fill="white" stroke="#666666" points="140.62,-94 106.62,-94 106.62,-74 140.62,-74 140.62,-94"/>
<text text-anchor="middle" x="123.62" y="-80.5" font-family="Helvetica,sans-Serif" font-size="10.00">bool</text>
</a>
</g>
</g>
<!-- Node4&#45;&gt;Node1 -->
<g id="edge3_Node000001_Node000004" class="edge">
<title>Node4&#45;&gt;Node1</title>
<g id="a_edge3_Node000001_Node000004"><a xlink:title=" ">
<path fill="none" stroke="#9a32cd" stroke-dasharray="5,2" d="M114.36,-63.48C110.51,-55.53 105.95,-46.28 101.62,-38 98.55,-32.1 94.93,-25.59 92.02,-20.43"/>
<polygon fill="#9a32cd" stroke="#9a32cd" points="111.08,-64.75 118.56,-72.26 117.4,-61.73 111.08,-64.75"/>
</a>
</g>
<text text-anchor="start" x="113.32" y="-43.5" font-family="Helvetica,sans-Serif" font-size="10.00" fill="grey">is_negative</text>
</g>
</g>
</svg>
</svg>

<style type='text/css'>
<![CDATA[
[data-mouse-over-selected='false'] { opacity: 0.7; }
[data-mouse-over-selected='true']  { opacity: 1.0; }
]]>
</style>
<script type="application/ecmascript"><![CDATA[
document.addEventListener('DOMContentLoaded', (event) => {
  highlightEdges();
  highlightAdjacentNodes();
});
]]></script>
</svg>
