<?xml version="1.0" encoding="UTF-8" standalone="no"?>
<!DOCTYPE svg PUBLIC "-//W3C//DTD SVG 1.1//EN"
 "http://www.w3.org/Graphics/SVG/1.1/DTD/svg11.dtd">
<!-- Generated by graphviz version 12.2.1 (0)
 -->
<!-- Title: int128_ranges::range_stats&lt; InputIt &gt; Pages: 1 -->
<svg width="177pt" height="146pt"
 viewBox="0.00 0.00 177.35 146.00" xmlns="http://www.w3.org/2000/svg" xmlns:xlink="http://www.w3.org/1999/xlink">

<svg id="main" version="1.1" xmlns="http://www.w3.org/2000/svg" xmlns:xlink="http://www.w3.org/1999/xlink" xml:space="preserve">

<style type="text/css"><![CDATA[
.node, .edge {opacity: 0.7;}
.node.selected, .edge.selected {opacity: 1;}
.edge:hover path { stroke: red; }
.edge:hover polygon { stroke: red; fill: red; }
]]></style>
<script type="application/ecmascript" xlink:href="svg.min.js"/>
<svg id="graph" class="graph">
<g id="graph0" class="graph" transform="scale(1 1) rotate(0) translate(4 142)">
<title>int128_ranges::range_stats&lt; InputIt &gt;</title>
<!-- Node1 -->
<g id="Node000001" class="node">
<title>Node1</title>
<g id="a_Node000001"><a xlink:title="Calcula estadísticas básicas de un rango.">
<polygon fill="#999999" stroke="#666666" points="144.62,-32 37.88,-32 37.88,0 144.62,0 144.62,-32"/>
<text text-anchor="start" x="45.88" y="-18.5" font-family="Helvetica,sans-Serif" font-size="10.00">int128_ranges::range</text>
<text text-anchor="middle" x="91.25" y="-6.5" font-family="Helvetica,sans-Serif" font-size="10.00">_stats&lt; InputIt &gt;</text>
</a>
</g>
</g>
<!-- Node2 -->
<g id="Node000002" class="node">
<title>Node2</title>
<g id="a_Node000002"><a xlink:href="classint128__t.html" target="_top" xlink:title="Entero con signo de 128 bits.">
<polygon fill="white" stroke="#666666" points="50.5,-138 0,-138 0,-118 50.5,-118 50.5,-138"/>
<text text-anchor="middle" x="25.25" y="-124.5" font-family="Helvetica,sans-Serif" font-size="10.00">int128_t</text>
</a>
</g>
</g>
<!-- Node2&#45;&gt;Node1 -->
<g id="edge1_Node000001_Node000002" class="edge">
<title>Node2&#45;&gt;Node1</title>
<g id="a_edge1_Node000001_Node000002"><a xlink:title=" ">
<path fill="none" stroke="#9a32cd" stroke-dasharray="5,2" d="M26.48,-106.51C28.33,-90 32.96,-66.85 44.5,-50 49.22,-43.12 55.87,-37.2 62.68,-32.35"/>
<polygon fill="#9a32cd" stroke="#9a32cd" points="23.02,-105.85 25.66,-116.11 29.99,-106.44 23.02,-105.85"/>
</a>
</g>
<text text-anchor="start" x="47.5" y="-87.5" font-family="Helvetica,sans-Serif" font-size="10.00" fill="grey">max_val</text>
<text text-anchor="start" x="47.5" y="-71.5" font-family="Helvetica,sans-Serif" font-size="10.00" fill="grey">min_val</text>
<text text-anchor="start" x="47.5" y="-55.5" font-family="Helvetica,sans-Serif" font-size="10.00" fill="grey">sum</text>
</g>
<!-- Node3 -->
<g id="Node000003" class="node">
<title>Node3</title>
<g id="a_Node000003"><a xlink:title=" ">
<polygon fill="white" stroke="#666666" points="112.38,-138 70.12,-138 70.12,-118 112.38,-118 112.38,-138"/>
<text text-anchor="middle" x="91.25" y="-124.5" font-family="Helvetica,sans-Serif" font-size="10.00">size_t</text>
</a>
</g>
</g>
<!-- Node3&#45;&gt;Node1 -->
<g id="edge2_Node000001_Node000003" class="edge">
<title>Node3&#45;&gt;Node1</title>
<g id="a_edge2_Node000001_Node000003"><a xlink:title=" ">
<path fill="none" stroke="#9a32cd" stroke-dasharray="5,2" d="M91.25,-106.2C91.25,-84.65 91.25,-51.48 91.25,-32.24"/>
<polygon fill="#9a32cd" stroke="#9a32cd" points="87.75,-106.11 91.25,-116.11 94.75,-106.11 87.75,-106.11"/>
</a>
</g>
<text text-anchor="start" x="94.25" y="-71.5" font-family="Helvetica,sans-Serif" font-size="10.00" fill="grey">count</text>
</g>
<!-- Node4 -->
<g id="Node000004" class="node">
<title>Node4</title>
<g id="a_Node000004"><a xlink:title=" ">
<polygon fill="white" stroke="#666666" points="164.25,-138 130.25,-138 130.25,-118 164.25,-118 164.25,-138"/>
<text text-anchor="middle" x="147.25" y="-124.5" font-family="Helvetica,sans-Serif" font-size="10.00">bool</text>
</a>
</g>
</g>
<!-- Node4&#45;&gt;Node1 -->
<g id="edge3_Node000001_Node000004" class="edge">
<title>Node4&#45;&gt;Node1</title>
<g id="a_edge3_Node000001_Node000004"><a xlink:title=" ">
<path fill="none" stroke="#9a32cd" stroke-dasharray="5,2" d="M144.46,-106.95C141.54,-90.7 135.83,-67.68 125.25,-50 121.36,-43.51 115.88,-37.42 110.45,-32.28"/>
<polygon fill="#9a32cd" stroke="#9a32cd" points="140.93,-107.03 145.96,-116.36 147.84,-105.93 140.93,-107.03"/>
</a>
</g>
<text text-anchor="start" x="146.1" y="-71.5" font-family="Helvetica,sans-Serif" font-size="10.00" fill="grey">valid</text>
</g>
</g>
</svg>
</svg>

<style type='text/css'>
<![CDATA[
[data-mouse-over-selected='false'] { opacity: 0.7; }
[data-mouse-over-selected='true']  { opacity: 1.0; }
]]>
</style>
<script type="application/ecmascript"><![CDATA[
document.addEventListener('DOMContentLoaded', (event) => {
  highlightEdges();
  highlightAdjacentNodes();
});
]]></script>
</svg>
