<?xml version="1.0" encoding="UTF-8" standalone="no"?>
<!DOCTYPE svg PUBLIC "-//W3C//DTD SVG 1.1//EN"
 "http://www.w3.org/Graphics/SVG/1.1/DTD/svg11.dtd">
<!-- Generated by graphviz version 12.2.1 (0)
 -->
<!-- Title: uint128_algorithm::uint128_stats Pages: 1 -->
<svg width="157pt" height="220pt"
 viewBox="0.00 0.00 156.91 220.00" xmlns="http://www.w3.org/2000/svg" xmlns:xlink="http://www.w3.org/1999/xlink">

<svg id="main" version="1.1" xmlns="http://www.w3.org/2000/svg" xmlns:xlink="http://www.w3.org/1999/xlink" xml:space="preserve">

<style type="text/css"><![CDATA[
.node, .edge {opacity: 0.7;}
.node.selected, .edge.selected {opacity: 1;}
.edge:hover path { stroke: red; }
.edge:hover polygon { stroke: red; fill: red; }
]]></style>
<script type="application/ecmascript" xlink:href="svg.min.js"/>
<svg id="graph" class="graph">
<g id="graph0" class="graph" transform="scale(1 1) rotate(0) translate(4 216)">
<title>uint128_algorithm::uint128_stats</title>
<!-- Node1 -->
<g id="Node000001" class="node">
<title>Node1</title>
<g id="a_Node000001"><a xlink:title="Estadisticas basicas de un rango de uint128_t.">
<polygon fill="#999999" stroke="#666666" points="136.88,-32 38.37,-32 38.37,0 136.88,0 136.88,-32"/>
<text text-anchor="start" x="46.38" y="-18.5" font-family="Helvetica,sans-Serif" font-size="10.00">uint128_algorithm::</text>
<text text-anchor="middle" x="87.62" y="-6.5" font-family="Helvetica,sans-Serif" font-size="10.00">uint128_stats</text>
</a>
</g>
</g>
<!-- Node2 -->
<g id="Node000002" class="node">
<title>Node2</title>
<g id="a_Node000002"><a xlink:href="classuint128__t.html" target="_top" xlink:title=" ">
<polygon fill="white" stroke="#666666" points="77.5,-138 21.75,-138 21.75,-118 77.5,-118 77.5,-138"/>
<text text-anchor="middle" x="49.62" y="-124.5" font-family="Helvetica,sans-Serif" font-size="10.00">uint128_t</text>
</a>
</g>
</g>
<!-- Node2&#45;&gt;Node1 -->
<g id="edge1_Node000001_Node000002" class="edge">
<title>Node2&#45;&gt;Node1</title>
<g id="a_edge1_Node000001_Node000002"><a xlink:title=" ">
<path fill="none" stroke="#9a32cd" stroke-dasharray="5,2" d="M45.47,-106.66C43.18,-90.54 42.24,-67.85 50.38,-50 53.46,-43.24 58.67,-37.3 64.24,-32.39"/>
<polygon fill="#9a32cd" stroke="#9a32cd" points="42.02,-107.21 47.19,-116.46 48.91,-106.01 42.02,-107.21"/>
</a>
</g>
<text text-anchor="start" x="53.38" y="-87.5" font-family="Helvetica,sans-Serif" font-size="10.00" fill="grey">max_value</text>
<text text-anchor="start" x="53.38" y="-71.5" font-family="Helvetica,sans-Serif" font-size="10.00" fill="grey">min_value</text>
<text text-anchor="start" x="53.38" y="-55.5" font-family="Helvetica,sans-Serif" font-size="10.00" fill="grey">sum</text>
</g>
<!-- Node3 -->
<g id="Node000003" class="node">
<title>Node3</title>
<g id="a_Node000003"><a xlink:title=" ">
<polygon fill="white" stroke="#666666" points="99.25,-212 0,-212 0,-192 99.25,-192 99.25,-212"/>
<text text-anchor="middle" x="49.62" y="-198.5" font-family="Helvetica,sans-Serif" font-size="10.00">static constexpr int</text>
</a>
</g>
</g>
<!-- Node3&#45;&gt;Node2 -->
<g id="edge2_Node000002_Node000003" class="edge">
<title>Node3&#45;&gt;Node2</title>
<g id="a_edge2_Node000002_Node000003"><a xlink:title=" ">
<path fill="none" stroke="#9a32cd" stroke-dasharray="5,2" d="M49.62,-180.18C49.62,-166.29 49.62,-148.71 49.62,-138.19"/>
<polygon fill="#9a32cd" stroke="#9a32cd" points="46.13,-180.07 49.63,-190.07 53.13,-180.07 46.13,-180.07"/>
</a>
</g>
<text text-anchor="start" x="52.62" y="-161.5" font-family="Helvetica,sans-Serif" font-size="10.00" fill="grey">UINT128_BITS</text>
</g>
<!-- Node4 -->
<g id="Node000004" class="node">
<title>Node4</title>
<g id="a_Node000004"><a xlink:title=" ">
<polygon fill="white" stroke="#666666" points="146.75,-138 104.5,-138 104.5,-118 146.75,-118 146.75,-138"/>
<text text-anchor="middle" x="125.62" y="-124.5" font-family="Helvetica,sans-Serif" font-size="10.00">size_t</text>
</a>
</g>
</g>
<!-- Node4&#45;&gt;Node1 -->
<g id="edge3_Node000001_Node000004" class="edge">
<title>Node4&#45;&gt;Node1</title>
<g id="a_edge3_Node000001_Node000004"><a xlink:title=" ">
<path fill="none" stroke="#9a32cd" stroke-dasharray="5,2" d="M120.88,-106.81C116.94,-91.09 110.83,-68.86 103.62,-50 101.35,-44.05 98.41,-37.72 95.68,-32.2"/>
<polygon fill="#9a32cd" stroke="#9a32cd" points="117.43,-107.46 123.19,-116.35 124.24,-105.81 117.43,-107.46"/>
</a>
</g>
<text text-anchor="start" x="121.91" y="-71.5" font-family="Helvetica,sans-Serif" font-size="10.00" fill="grey">count</text>
</g>
</g>
</svg>
</svg>

<style type='text/css'>
<![CDATA[
[data-mouse-over-selected='false'] { opacity: 0.7; }
[data-mouse-over-selected='true']  { opacity: 1.0; }
]]>
</style>
<script type="application/ecmascript"><![CDATA[
document.addEventListener('DOMContentLoaded', (event) => {
  highlightEdges();
  highlightAdjacentNodes();
});
]]></script>
</svg>
