<?xml version="1.0" encoding="UTF-8" standalone="no"?>
<!DOCTYPE svg PUBLIC "-//W3C//DTD SVG 1.1//EN"
 "http://www.w3.org/Graphics/SVG/1.1/DTD/svg11.dtd">
<!-- Generated by graphviz version 12.2.1 (0)
 -->
<!-- Title: uint128_safe::safe_result&lt; T &gt; Pages: 1 -->
<svg width="148pt" height="114pt"
 viewBox="0.00 0.00 147.65 114.00" xmlns="http://www.w3.org/2000/svg" xmlns:xlink="http://www.w3.org/1999/xlink">
<g id="graph0" class="graph" transform="scale(1 1) rotate(0) translate(4 110)">
<title>uint128_safe::safe_result&lt; T &gt;</title>
<!-- Node1 -->
<g id="Node000001" class="node">
<title>Node1</title>
<g id="a_Node000001"><a xlink:title="Safe conversion result with value and status.">
<polygon fill="#999999" stroke="#666666" points="101.53,-32 5.27,-32 5.27,0 101.53,0 101.53,-32"/>
<text text-anchor="start" x="13.27" y="-18.5" font-family="Helvetica,sans-Serif" font-size="10.00">uint128_safe::safe</text>
<text text-anchor="middle" x="53.4" y="-6.5" font-family="Helvetica,sans-Serif" font-size="10.00">_result&lt; T &gt;</text>
</a>
</g>
</g>
<!-- Node2 -->
<g id="Node000002" class="node">
<title>Node2</title>
<g id="a_Node000002"><a xlink:title=" ">
<polygon fill="white" stroke="#666666" points="28.8,-106 0,-106 0,-86 28.8,-86 28.8,-106"/>
<text text-anchor="middle" x="14.4" y="-92.5" font-family="Helvetica,sans-Serif" font-size="10.00">T</text>
</a>
</g>
</g>
<!-- Node2&#45;&gt;Node1 -->
<g id="edge1_Node000001_Node000002" class="edge">
<title>Node2&#45;&gt;Node1</title>
<g id="a_edge1_Node000001_Node000002"><a xlink:title=" ">
<path fill="none" stroke="#9a32cd" stroke-dasharray="5,2" d="M24.04,-75.72C30.71,-62.37 39.48,-44.84 45.69,-32.42"/>
<polygon fill="#9a32cd" stroke="#9a32cd" points="21.05,-73.88 19.7,-84.39 27.31,-77.01 21.05,-73.88"/>
</a>
</g>
<text text-anchor="start" x="39.24" y="-55.5" font-family="Helvetica,sans-Serif" font-size="10.00" fill="grey">value</text>
</g>
<!-- Node3 -->
<g id="Node000003" class="node">
<title>Node3</title>
<g id="a_Node000003"><a xlink:title=" ">
<polygon fill="white" stroke="#666666" points="139.65,-106 47.15,-106 47.15,-86 139.65,-86 139.65,-106"/>
<text text-anchor="middle" x="93.4" y="-92.5" font-family="Helvetica,sans-Serif" font-size="10.00">conversion_result</text>
</a>
</g>
</g>
<!-- Node3&#45;&gt;Node1 -->
<g id="edge2_Node000001_Node000003" class="edge">
<title>Node3&#45;&gt;Node1</title>
<g id="a_edge2_Node000001_Node000003"><a xlink:title=" ">
<path fill="none" stroke="#9a32cd" stroke-dasharray="5,2" d="M83.51,-75.72C76.67,-62.37 67.68,-44.84 61.31,-32.42"/>
<polygon fill="#9a32cd" stroke="#9a32cd" points="80.29,-77.1 87.96,-84.4 86.51,-73.9 80.29,-77.1"/>
</a>
</g>
<text text-anchor="start" x="82.32" y="-55.5" font-family="Helvetica,sans-Serif" font-size="10.00" fill="grey">status</text>
</g>
</g>
</svg>
