<?xml version="1.0" encoding="UTF-8" standalone="no"?>
<!DOCTYPE svg PUBLIC "-//W3C//DTD SVG 1.1//EN"
 "http://www.w3.org/Graphics/SVG/1.1/DTD/svg11.dtd">
<!-- Generated by graphviz version 12.2.1 (0)
 -->
<!-- Title: int128_safe::safe_result&lt; T &gt; Pages: 1 -->
<svg width="166pt" height="102pt"
 viewBox="0.00 0.00 166.00 102.00" xmlns="http://www.w3.org/2000/svg" xmlns:xlink="http://www.w3.org/1999/xlink">
<g id="graph0" class="graph" transform="scale(1 1) rotate(0) translate(4 98)">
<title>int128_safe::safe_result&lt; T &gt;</title>
<!-- Node1 -->
<g id="Node000001" class="node">
<title>Node1</title>
<g id="a_Node000001"><a xlink:title="Safe conversion result with value and status.">
<polygon fill="#999999" stroke="#666666" points="143.5,-20 0,-20 0,0 143.5,0 143.5,-20"/>
<text text-anchor="middle" x="71.75" y="-6.5" font-family="Helvetica,sans-Serif" font-size="10.00">int128_safe::safe_result&lt; T &gt;</text>
</a>
</g>
</g>
<!-- Node2 -->
<g id="Node000002" class="node">
<title>Node2</title>
<g id="a_Node000002"><a xlink:title=" ">
<polygon fill="white" stroke="#666666" points="47.15,-94 18.35,-94 18.35,-74 47.15,-74 47.15,-94"/>
<text text-anchor="middle" x="32.75" y="-80.5" font-family="Helvetica,sans-Serif" font-size="10.00">T</text>
</a>
</g>
</g>
<!-- Node2&#45;&gt;Node1 -->
<g id="edge1_Node000001_Node000002" class="edge">
<title>Node2&#45;&gt;Node1</title>
<g id="a_edge1_Node000001_Node000002"><a xlink:title=" ">
<path fill="none" stroke="#9a32cd" stroke-dasharray="5,2" d="M43.12,-63.86C50.77,-49.74 60.84,-31.14 66.77,-20.19"/>
<polygon fill="#9a32cd" stroke="#9a32cd" points="40.25,-61.8 38.57,-72.26 46.41,-65.13 40.25,-61.8"/>
</a>
</g>
<text text-anchor="start" x="59.89" y="-43.5" font-family="Helvetica,sans-Serif" font-size="10.00" fill="grey">value</text>
</g>
<!-- Node3 -->
<g id="Node000003" class="node">
<title>Node3</title>
<g id="a_Node000003"><a xlink:title=" ">
<polygon fill="white" stroke="#666666" points="158,-94 65.5,-94 65.5,-74 158,-74 158,-94"/>
<text text-anchor="middle" x="111.75" y="-80.5" font-family="Helvetica,sans-Serif" font-size="10.00">conversion_result</text>
</a>
</g>
</g>
<!-- Node3&#45;&gt;Node1 -->
<g id="edge2_Node000001_Node000003" class="edge">
<title>Node3&#45;&gt;Node1</title>
<g id="a_edge2_Node000001_Node000003"><a xlink:title=" ">
<path fill="none" stroke="#9a32cd" stroke-dasharray="5,2" d="M102.82,-63.3C99.02,-55.32 94.4,-46.1 89.75,-38 86.27,-31.94 81.94,-25.42 78.4,-20.3"/>
<polygon fill="#9a32cd" stroke="#9a32cd" points="99.53,-64.53 106.92,-72.13 105.88,-61.59 99.53,-64.53"/>
</a>
</g>
<text text-anchor="start" x="101.79" y="-43.5" font-family="Helvetica,sans-Serif" font-size="10.00" fill="grey">status</text>
</g>
</g>
</svg>
