<?xml version="1.0" encoding="UTF-8" standalone="no"?>
<!DOCTYPE svg PUBLIC "-//W3C//DTD SVG 1.1//EN"
 "http://www.w3.org/Graphics/SVG/1.1/DTD/svg11.dtd">
<!-- Generated by graphviz version 12.2.1 (0)
 -->
<!-- Title: uint128/uint128_traits_specializations.hpp Pages: 1 -->
<!--zoomable 288 -->

<svg id="main" version="1.1" xmlns="http://www.w3.org/2000/svg" xmlns:xlink="http://www.w3.org/1999/xlink" xml:space="preserve" onload="init(evt)">

<style type="text/css"><![CDATA[
.node, .edge {opacity: 0.7;}
.node.selected, .edge.selected {opacity: 1;}
.edge:hover path { stroke: red; }
.edge:hover polygon { stroke: red; fill: red; }
]]></style>

<defs>
  <circle id="rim" cx="0" cy="0" r="7"/>
  <circle id="rim2" cx="0" cy="0" r="3.5"/>
  <g id="zoomPlus">
    <use xlink:href="#rim" fill="#404040"><set attributeName="fill" to="#808080" begin="zoomplus.mouseover" end="zoomplus.mouseout"/></use>
    <path d="M-4,0h8M0,-4v8" fill="none" stroke="white" stroke-width="1.5" pointer-events="none"/>
  </g>
  <g id="zoomMin">
    <use xlink:href="#rim" fill="#404040"><set attributeName="fill" to="#808080" begin="zoomminus.mouseover" end="zoomminus.mouseout"/></use>
    <path d="M-4,0h8" fill="none" stroke="white" stroke-width="1.5" pointer-events="none"/>
  </g>
  <g id="arrowUp" transform="translate(30 24)">
    <use xlink:href="#rim"/>
    <path pointer-events="none" fill="none" stroke="white" stroke-width="1.5" d="M0,-3.0v7 M-2.5,-0.5L0,-3.0L2.5,-0.5"/>
  </g>
  <g id="arrowRight" transform="rotate(90) translate(36 -43)">
    <use xlink:href="#rim"/>
    <path pointer-events="none" fill="none" stroke="white" stroke-width="1.5" d="M0,-3.0v7 M-2.5,-0.5L0,-3.0L2.5,-0.5"/>
  </g>
  <g id="arrowDown" transform="rotate(180) translate(-30 -48)">
    <use xlink:href="#rim"/>
    <path pointer-events="none" fill="none" stroke="white" stroke-width="1.5" d="M0,-3.0v7 M-2.5,-0.5L0,-3.0L2.5,-0.5"/>
  </g>
  <g id="arrowLeft" transform="rotate(270) translate(-36 17)">
    <use xlink:href="#rim"/>
    <path pointer-events="none" fill="none" stroke="white" stroke-width="1.5" d="M0,-3.0v7 M-2.5,-0.5L0,-3.0L2.5,-0.5"/>
  </g>
  <g id="resetDef">
    <use xlink:href="#rim2" fill="#404040"><set attributeName="fill" to="#808080" begin="reset.mouseover" end="reset.mouseout"/></use>
  </g>
</defs>
<script type="application/ecmascript">
var viewWidth = 2939;
var viewHeight = 288;
var sectionId = 'dynsection-1';
</script>
<script type="application/ecmascript" xlink:href="svg.min.js"/>
<svg id="graph" class="graph">
<g id="viewport">
<title>uint128/uint128_traits_specializations.hpp</title>
<!-- Node1 -->
<g id="Node000001" class="node">
<title>Node1</title>
<g id="a_Node000001"><a xlink:title="Forward declarations for uint128_t type traits specializations.">
<polygon fill="#999999" stroke="#666666" points="1127.38,-280 1018.38,-280 1018.38,-248 1127.38,-248 1127.38,-280"/>
<text text-anchor="start" x="1026.38" y="-266.5" font-family="Helvetica,sans-Serif" font-size="10.00">uint128/uint128_traits</text>
<text text-anchor="middle" x="1072.88" y="-254.5" font-family="Helvetica,sans-Serif" font-size="10.00">_specializations.hpp</text>
</a>
</g>
</g>
<!-- Node2 -->
<g id="Node000002" class="node">
<title>Node2</title>
<g id="a_Node000002"><a xlink:href="int128__traits_8hpp.html" target="_top" xlink:title=" ">
<polygon fill="white" stroke="#666666" points="1554.5,-82 1437.25,-82 1437.25,-62 1554.5,-62 1554.5,-82"/>
<text text-anchor="middle" x="1495.88" y="-68.5" font-family="Helvetica,sans-Serif" font-size="10.00">int128/int128_traits.hpp</text>
</a>
</g>
</g>
<!-- Node1&#45;&gt;Node2 -->
<g id="edge1_Node000001_Node000002" class="edge">
<title>Node1&#45;&gt;Node2</title>
<g id="a_edge1_Node000001_Node000002"><a xlink:title=" ">
<path fill="none" stroke="#63b8ff" d="M1139.14,-259.71C1331.46,-249.48 1879.47,-215.33 1931.88,-156 1941.29,-145.34 1941.44,-134.53 1931.88,-124 1903.96,-93.25 1600.85,-94.75 1559.88,-88 1550.98,-86.53 1541.48,-84.54 1532.59,-82.49"/>
<polygon fill="#63b8ff" stroke="#63b8ff" points="1139.12,-256.2 1129.31,-260.22 1139.48,-263.19 1139.12,-256.2"/>
</a>
</g>
</g>
<!-- Node4 -->
<g id="Node000004" class="node">
<title>Node4</title>
<g id="a_Node000004"><a xlink:href="uint128__t_8hpp.html" target="_top" xlink:title=" ">
<polygon fill="white" stroke="#666666" points="1127.38,-212 1018.38,-212 1018.38,-192 1127.38,-192 1127.38,-212"/>
<text text-anchor="middle" x="1072.88" y="-198.5" font-family="Helvetica,sans-Serif" font-size="10.00">uint128/uint128_t.hpp</text>
</a>
</g>
</g>
<!-- Node1&#45;&gt;Node4 -->
<g id="edge3_Node000001_Node000004" class="edge">
<title>Node1&#45;&gt;Node4</title>
<g id="a_edge3_Node000001_Node000004"><a xlink:title=" ">
<path fill="none" stroke="#63b8ff" d="M1072.88,-236.08C1072.88,-227.6 1072.88,-218.8 1072.88,-212.41"/>
<polygon fill="#63b8ff" stroke="#63b8ff" points="1069.38,-236.03 1072.88,-246.03 1076.38,-236.03 1069.38,-236.03"/>
</a>
</g>
</g>
<!-- Node31 -->
<g id="Node000031" class="node">
<title>Node31</title>
<g id="a_Node000031"><a xlink:href="uint128__traits_8hpp.html" target="_top" xlink:title=" ">
<polygon fill="white" stroke="#666666" points="127.75,-150 0,-150 0,-130 127.75,-130 127.75,-150"/>
<text text-anchor="middle" x="63.88" y="-136.5" font-family="Helvetica,sans-Serif" font-size="10.00">uint128/uint128_traits.hpp</text>
</a>
</g>
</g>
<!-- Node1&#45;&gt;Node31 -->
<g id="edge46_Node000001_Node000031" class="edge">
<title>Node1&#45;&gt;Node31</title>
<g id="a_edge46_Node000001_Node000031"><a xlink:title=" ">
<path fill="none" stroke="#63b8ff" d="M1006.99,-257.5C853.75,-244.26 461.67,-207.83 136.88,-156 127.04,-154.43 116.51,-152.45 106.61,-150.44"/>
<polygon fill="#63b8ff" stroke="#63b8ff" points="1006.27,-260.95 1016.54,-258.32 1006.87,-253.97 1006.27,-260.95"/>
</a>
</g>
</g>
<!-- Node3 -->
<g id="Node000003" class="node">
<title>Node3</title>
<g id="a_Node000003"><a xlink:href="int128_8hpp.html" target="_top" xlink:title="Header unificado para tipos enteros de 128 bits con balance óptimo.">
<polygon fill="white" stroke="#666666" points="1316.38,-20 1255.38,-20 1255.38,0 1316.38,0 1316.38,-20"/>
<text text-anchor="middle" x="1285.88" y="-6.5" font-family="Helvetica,sans-Serif" font-size="10.00">int128.hpp</text>
</a>
</g>
</g>
<!-- Node2&#45;&gt;Node3 -->
<g id="edge2_Node000002_Node000003" class="edge">
<title>Node2&#45;&gt;Node3</title>
<g id="a_edge2_Node000002_Node000003"><a xlink:title=" ">
<path fill="none" stroke="#63b8ff" d="M1452.18,-58.51C1411.7,-46.95 1352.51,-30.04 1316.75,-19.82"/>
<polygon fill="#63b8ff" stroke="#63b8ff" points="1451.03,-61.83 1461.61,-61.21 1452.95,-55.1 1451.03,-61.83"/>
</a>
</g>
</g>
<!-- Node4&#45;&gt;Node3 -->
<g id="edge4_Node000004_Node000003" class="edge">
<title>Node4&#45;&gt;Node3</title>
<g id="a_edge4_Node000004_Node000003"><a xlink:title=" ">
<path fill="none" stroke="#63b8ff" d="M1075.61,-180.34C1078.28,-164.37 1083.23,-142.02 1091.88,-124 1108.33,-89.7 1112.74,-77.87 1143.88,-56 1177.63,-32.29 1224.44,-20.66 1254.94,-15.25"/>
<polygon fill="#63b8ff" stroke="#63b8ff" points="1072.17,-179.67 1074.16,-190.08 1079.1,-180.7 1072.17,-179.67"/>
</a>
</g>
</g>
<!-- Node5 -->
<g id="Node000005" class="node">
<title>Node5</title>
<g id="a_Node000005"><a xlink:href="int128__assign_8hpp.html" target="_top" xlink:title=" ">
<polygon fill="white" stroke="#666666" points="1276.88,-82 1152.88,-82 1152.88,-62 1276.88,-62 1276.88,-82"/>
<text text-anchor="middle" x="1214.88" y="-68.5" font-family="Helvetica,sans-Serif" font-size="10.00">int128/int128_assign.hpp</text>
</a>
</g>
</g>
<!-- Node4&#45;&gt;Node5 -->
<g id="edge5_Node000004_Node000005" class="edge">
<title>Node4&#45;&gt;Node5</title>
<g id="a_edge5_Node000004_Node000005"><a xlink:title=" ">
<path fill="none" stroke="#63b8ff" d="M1138.68,-190.57C1177.1,-182.98 1220.26,-171.36 1231.88,-156 1248.73,-133.71 1231.2,-98.79 1221.04,-82.26"/>
<polygon fill="#63b8ff" stroke="#63b8ff" points="1138.13,-187.11 1128.96,-192.41 1139.44,-193.99 1138.13,-187.11"/>
</a>
</g>
</g>
<!-- Node6 -->
<g id="Node000006" class="node">
<title>Node6</title>
<g id="a_Node000006"><a xlink:href="int128__factory_8hpp.html" target="_top" xlink:title=" ">
<polygon fill="white" stroke="#666666" points="1419.25,-82 1294.5,-82 1294.5,-62 1419.25,-62 1419.25,-82"/>
<text text-anchor="middle" x="1356.88" y="-68.5" font-family="Helvetica,sans-Serif" font-size="10.00">int128/int128_factory.hpp</text>
</a>
</g>
</g>
<!-- Node4&#45;&gt;Node6 -->
<g id="edge7_Node000004_Node000006" class="edge">
<title>Node4&#45;&gt;Node6</title>
<g id="a_edge7_Node000004_Node000006"><a xlink:title=" ">
<path fill="none" stroke="#63b8ff" d="M1139.12,-197.11C1235.13,-190.79 1403.53,-176.86 1421.88,-156 1444.36,-130.44 1399.86,-98.2 1373.84,-82.49"/>
<polygon fill="#63b8ff" stroke="#63b8ff" points="1139.05,-193.61 1129.3,-197.75 1139.51,-200.59 1139.05,-193.61"/>
</a>
</g>
</g>
<!-- Node7 -->
<g id="Node000007" class="node">
<title>Node7</title>
<g id="a_Node000007"><a xlink:href="int128__t_8hpp.html" target="_top" xlink:title=" ">
<polygon fill="white" stroke="#666666" points="2077.12,-150 1978.62,-150 1978.62,-130 2077.12,-130 2077.12,-150"/>
<text text-anchor="middle" x="2027.88" y="-136.5" font-family="Helvetica,sans-Serif" font-size="10.00">int128/int128_t.hpp</text>
</a>
</g>
</g>
<!-- Node4&#45;&gt;Node7 -->
<g id="edge9_Node000004_Node000007" class="edge">
<title>Node4&#45;&gt;Node7</title>
<g id="a_edge9_Node000004_Node000007"><a xlink:title=" ">
<path fill="none" stroke="#63b8ff" d="M1139.06,-199.85C1283.41,-196.82 1637.22,-186.66 1931.88,-156 1946.98,-154.43 1963.32,-152.11 1978.18,-149.76"/>
<polygon fill="#63b8ff" stroke="#63b8ff" points="1139.24,-196.34 1129.31,-200.05 1139.38,-203.34 1139.24,-196.34"/>
</a>
</g>
</g>
<!-- Node19 -->
<g id="Node000019" class="node">
<title>Node19</title>
<g id="a_Node000019"><a xlink:href="uint128__algorithm_8hpp.html" target="_top" xlink:title=" ">
<polygon fill="white" stroke="#666666" points="1006.75,-82 861,-82 861,-62 1006.75,-62 1006.75,-82"/>
<text text-anchor="middle" x="933.88" y="-68.5" font-family="Helvetica,sans-Serif" font-size="10.00">uint128/uint128_algorithm.hpp</text>
</a>
</g>
</g>
<!-- Node4&#45;&gt;Node19 -->
<g id="edge29_Node000004_Node000019" class="edge">
<title>Node4&#45;&gt;Node19</title>
<g id="a_edge29_Node000004_Node000019"><a xlink:title=" ">
<path fill="none" stroke="#63b8ff" d="M1061.62,-181.88C1051.2,-165.25 1034.53,-141.2 1015.88,-124 996.77,-106.38 970.74,-91.4 953.17,-82.32"/>
<polygon fill="#63b8ff" stroke="#63b8ff" points="1058.55,-183.56 1066.73,-190.29 1064.53,-179.93 1058.55,-183.56"/>
</a>
</g>
</g>
<!-- Node20 -->
<g id="Node000020" class="node">
<title>Node20</title>
<g id="a_Node000020"><a xlink:href="uint128__bits_8hpp.html" target="_top" xlink:title=" ">
<polygon fill="white" stroke="#666666" points="1222.75,-150 1101,-150 1101,-130 1222.75,-130 1222.75,-150"/>
<text text-anchor="middle" x="1161.88" y="-136.5" font-family="Helvetica,sans-Serif" font-size="10.00">uint128/uint128_bits.hpp</text>
</a>
</g>
</g>
<!-- Node4&#45;&gt;Node20 -->
<g id="edge30_Node000004_Node000020" class="edge">
<title>Node4&#45;&gt;Node20</title>
<g id="a_edge30_Node000004_Node000020"><a xlink:title=" ">
<path fill="none" stroke="#63b8ff" d="M1096.28,-185.22C1112.76,-174.11 1134.26,-159.62 1148.07,-150.31"/>
<polygon fill="#63b8ff" stroke="#63b8ff" points="1094.37,-182.29 1088.04,-190.78 1098.28,-188.09 1094.37,-182.29"/>
</a>
</g>
</g>
<!-- Node21 -->
<g id="Node000021" class="node">
<title>Node21</title>
<g id="a_Node000021"><a xlink:href="uint128__cmath_8hpp.html" target="_top" xlink:title=" ">
<polygon fill="white" stroke="#666666" points="843.38,-150 710.38,-150 710.38,-130 843.38,-130 843.38,-150"/>
<text text-anchor="middle" x="776.88" y="-136.5" font-family="Helvetica,sans-Serif" font-size="10.00">uint128/uint128_cmath.hpp</text>
</a>
</g>
</g>
<!-- Node4&#45;&gt;Node21 -->
<g id="edge31_Node000004_Node000021" class="edge">
<title>Node4&#45;&gt;Node21</title>
<g id="a_edge31_Node000004_Node000021"><a xlink:title=" ">
<path fill="none" stroke="#63b8ff" d="M1015.16,-189.3C959.26,-177.97 875.54,-161 823.67,-150.48"/>
<polygon fill="#63b8ff" stroke="#63b8ff" points="1014.32,-192.7 1024.82,-191.26 1015.71,-185.84 1014.32,-192.7"/>
</a>
</g>
</g>
<!-- Node22 -->
<g id="Node000022" class="node">
<title>Node22</title>
<g id="a_Node000022"><a xlink:href="uint128__concepts_8hpp.html" target="_top" xlink:title=" ">
<polygon fill="white" stroke="#666666" points="1006.75,-150 861,-150 861,-130 1006.75,-130 1006.75,-150"/>
<text text-anchor="middle" x="933.88" y="-136.5" font-family="Helvetica,sans-Serif" font-size="10.00">uint128/uint128_concepts.hpp</text>
</a>
</g>
</g>
<!-- Node4&#45;&gt;Node22 -->
<g id="edge34_Node000004_Node000022" class="edge">
<title>Node4&#45;&gt;Node22</title>
<g id="a_edge34_Node000004_Node000022"><a xlink:title=" ">
<path fill="none" stroke="#63b8ff" d="M1040.61,-187.07C1014.43,-175.77 978.23,-160.15 955.44,-150.31"/>
<polygon fill="#63b8ff" stroke="#63b8ff" points="1039.2,-190.28 1049.77,-191.03 1041.97,-183.85 1039.2,-190.28"/>
</a>
</g>
</g>
<!-- Node23 -->
<g id="Node000023" class="node">
<title>Node23</title>
<g id="a_Node000023"><a xlink:href="uint128__format_8hpp.html" target="_top" xlink:title=" ">
<polygon fill="white" stroke="#666666" points="1412.75,-150 1279,-150 1279,-130 1412.75,-130 1412.75,-150"/>
<text text-anchor="middle" x="1345.88" y="-136.5" font-family="Helvetica,sans-Serif" font-size="10.00">uint128/uint128_format.hpp</text>
</a>
</g>
</g>
<!-- Node4&#45;&gt;Node23 -->
<g id="edge36_Node000004_Node000023" class="edge">
<title>Node4&#45;&gt;Node23</title>
<g id="a_edge36_Node000004_Node000023"><a xlink:title=" ">
<path fill="none" stroke="#63b8ff" d="M1127.08,-189.09C1178.63,-177.76 1255.17,-160.93 1302.72,-150.48"/>
<polygon fill="#63b8ff" stroke="#63b8ff" points="1126.33,-185.67 1117.31,-191.23 1127.83,-192.51 1126.33,-185.67"/>
</a>
</g>
</g>
<!-- Node24 -->
<g id="Node000024" class="node">
<title>Node24</title>
<g id="a_Node000024"><a xlink:href="uint128__iostreams_8hpp.html" target="_top" xlink:title=" ">
<polygon fill="white" stroke="#666666" points="1617.25,-150 1468.5,-150 1468.5,-130 1617.25,-130 1617.25,-150"/>
<text text-anchor="middle" x="1542.88" y="-136.5" font-family="Helvetica,sans-Serif" font-size="10.00">uint128/uint128_iostreams.hpp</text>
</a>
</g>
</g>
<!-- Node4&#45;&gt;Node24 -->
<g id="edge37_Node000004_Node000024" class="edge">
<title>Node4&#45;&gt;Node24</title>
<g id="a_edge37_Node000004_Node000024"><a xlink:title=" ">
<path fill="none" stroke="#63b8ff" d="M1139.03,-194.25C1215.31,-186.23 1344.38,-171.91 1454.88,-156 1466.23,-154.37 1478.37,-152.42 1489.9,-150.49"/>
<polygon fill="#63b8ff" stroke="#63b8ff" points="1138.8,-190.76 1129.21,-195.28 1139.52,-197.72 1138.8,-190.76"/>
</a>
</g>
</g>
<!-- Node25 -->
<g id="Node000025" class="node">
<title>Node25</title>
<g id="a_Node000025"><a xlink:href="uint128__limits_8hpp.html" target="_top" xlink:title=" ">
<polygon fill="white" stroke="#666666" points="1764.5,-150 1635.25,-150 1635.25,-130 1764.5,-130 1764.5,-150"/>
<text text-anchor="middle" x="1699.88" y="-136.5" font-family="Helvetica,sans-Serif" font-size="10.00">uint128/uint128_limits.hpp</text>
</a>
</g>
</g>
<!-- Node4&#45;&gt;Node25 -->
<g id="edge38_Node000004_Node000025" class="edge">
<title>Node4&#45;&gt;Node25</title>
<g id="a_edge38_Node000004_Node000025"><a xlink:title=" ">
<path fill="none" stroke="#63b8ff" d="M1138.91,-198.17C1242.9,-193.13 1450.98,-180.75 1625.88,-156 1636.26,-154.53 1647.38,-152.51 1657.76,-150.44"/>
<polygon fill="#63b8ff" stroke="#63b8ff" points="1139,-194.66 1129.18,-198.63 1139.33,-201.65 1139,-194.66"/>
</a>
</g>
</g>
<!-- Node26 -->
<g id="Node000026" class="node">
<title>Node26</title>
<g id="a_Node000026"><a xlink:href="uint128__numeric_8hpp.html" target="_top" xlink:title=" ">
<polygon fill="white" stroke="#666666" points="1923.12,-150 1782.62,-150 1782.62,-130 1923.12,-130 1923.12,-150"/>
<text text-anchor="middle" x="1852.88" y="-136.5" font-family="Helvetica,sans-Serif" font-size="10.00">uint128/uint128_numeric.hpp</text>
</a>
</g>
</g>
<!-- Node4&#45;&gt;Node26 -->
<g id="edge39_Node000004_Node000026" class="edge">
<title>Node4&#45;&gt;Node26</title>
<g id="a_edge39_Node000004_Node000026"><a xlink:title=" ">
<path fill="none" stroke="#63b8ff" d="M1138.84,-199.48C1263.4,-196.01 1541.57,-185.4 1773.88,-156 1785.09,-154.58 1797.12,-152.56 1808.32,-150.46"/>
<polygon fill="#63b8ff" stroke="#63b8ff" points="1139.04,-195.97 1129.14,-199.74 1139.23,-202.97 1139.04,-195.97"/>
</a>
</g>
</g>
<!-- Node27 -->
<g id="Node000027" class="node">
<title>Node27</title>
<g id="a_Node000027"><a xlink:href="uint128__ranges_8hpp.html" target="_top" xlink:title=" ">
<polygon fill="white" stroke="#666666" points="281.5,-150 146.25,-150 146.25,-130 281.5,-130 281.5,-150"/>
<text text-anchor="middle" x="213.88" y="-136.5" font-family="Helvetica,sans-Serif" font-size="10.00">uint128/uint128_ranges.hpp</text>
</a>
</g>
</g>
<!-- Node4&#45;&gt;Node27 -->
<g id="edge40_Node000004_Node000027" class="edge">
<title>Node4&#45;&gt;Node27</title>
<g id="a_edge40_Node000004_Node000027"><a xlink:title=" ">
<path fill="none" stroke="#63b8ff" d="M1006.79,-200.2C871.78,-197.91 554.73,-189.14 290.88,-156 279.79,-154.61 267.91,-152.57 256.88,-150.44"/>
<polygon fill="#63b8ff" stroke="#63b8ff" points="1006.56,-203.7 1016.62,-200.36 1006.68,-196.7 1006.56,-203.7"/>
</a>
</g>
</g>
<!-- Node28 -->
<g id="Node000028" class="node">
<title>Node28</title>
<g id="a_Node000028"><a xlink:href="uint128__ranges__clean_8hpp.html" target="_top" xlink:title=" ">
<polygon fill="white" stroke="#666666" points="416.12,-156 299.62,-156 299.62,-124 416.12,-124 416.12,-156"/>
<text text-anchor="start" x="307.62" y="-142.5" font-family="Helvetica,sans-Serif" font-size="10.00">uint128/uint128_ranges</text>
<text text-anchor="middle" x="357.88" y="-130.5" font-family="Helvetica,sans-Serif" font-size="10.00">_clean.hpp</text>
</a>
</g>
</g>
<!-- Node4&#45;&gt;Node28 -->
<g id="edge41_Node000004_Node000028" class="edge">
<title>Node4&#45;&gt;Node28</title>
<g id="a_edge41_Node000004_Node000028"><a xlink:title=" ">
<path fill="none" stroke="#63b8ff" d="M1006.77,-199.62C889.31,-196.45 636.73,-186.42 425.88,-156 422.76,-155.55 419.58,-155.04 416.38,-154.48"/>
<polygon fill="#63b8ff" stroke="#63b8ff" points="1006.45,-203.11 1016.54,-199.87 1006.63,-196.12 1006.45,-203.11"/>
</a>
</g>
</g>
<!-- Node29 -->
<g id="Node000029" class="node">
<title>Node29</title>
<g id="a_Node000029"><a xlink:href="uint128__safe_8hpp.html" target="_top" xlink:title=" ">
<polygon fill="white" stroke="#666666" points="559.25,-150 434.5,-150 434.5,-130 559.25,-130 559.25,-150"/>
<text text-anchor="middle" x="496.88" y="-136.5" font-family="Helvetica,sans-Serif" font-size="10.00">uint128/uint128_safe.hpp</text>
</a>
</g>
</g>
<!-- Node4&#45;&gt;Node29 -->
<g id="edge42_Node000004_Node000029" class="edge">
<title>Node4&#45;&gt;Node29</title>
<g id="a_edge42_Node000004_Node000029"><a xlink:title=" ">
<path fill="none" stroke="#63b8ff" d="M1006.86,-197.56C910.29,-191.98 725.03,-179.16 568.88,-156 558.9,-154.52 548.22,-152.53 538.23,-150.47"/>
<polygon fill="#63b8ff" stroke="#63b8ff" points="1006.49,-201.05 1016.67,-198.12 1006.89,-194.06 1006.49,-201.05"/>
</a>
</g>
</g>
<!-- Node30 -->
<g id="Node000030" class="node">
<title>Node30</title>
<g id="a_Node000030"><a xlink:href="uint128__thread__safety_8hpp.html" target="_top" xlink:title="Thread&#45;safe wrappers for uint128_t.">
<polygon fill="white" stroke="#666666" points="692,-156 577.75,-156 577.75,-124 692,-124 692,-156"/>
<text text-anchor="start" x="585.75" y="-142.5" font-family="Helvetica,sans-Serif" font-size="10.00">uint128/uint128_thread</text>
<text text-anchor="middle" x="634.88" y="-130.5" font-family="Helvetica,sans-Serif" font-size="10.00">_safety.hpp</text>
</a>
</g>
</g>
<!-- Node4&#45;&gt;Node30 -->
<g id="edge43_Node000004_Node000030" class="edge">
<title>Node4&#45;&gt;Node30</title>
<g id="a_edge43_Node000004_Node000030"><a xlink:title=" ">
<path fill="none" stroke="#63b8ff" d="M1006.88,-195C932.47,-187.77 808,-174.27 701.88,-156 698.7,-155.45 695.46,-154.86 692.18,-154.22"/>
<polygon fill="#63b8ff" stroke="#63b8ff" points="1006.14,-198.44 1016.43,-195.92 1006.81,-191.47 1006.14,-198.44"/>
</a>
</g>
</g>
<!-- Node4&#45;&gt;Node31 -->
<g id="edge44_Node000004_Node000031" class="edge">
<title>Node4&#45;&gt;Node31</title>
<g id="a_edge44_Node000004_Node000031"><a xlink:title=" ">
<path fill="none" stroke="#63b8ff" d="M1006.97,-201.32C853.66,-201.31 461.46,-196.9 136.88,-156 126.22,-154.66 114.8,-152.61 104.23,-150.45"/>
<polygon fill="#63b8ff" stroke="#63b8ff" points="1006.51,-204.82 1016.51,-201.32 1006.51,-197.82 1006.51,-204.82"/>
</a>
</g>
</g>
<!-- Node5&#45;&gt;Node3 -->
<g id="edge6_Node000005_Node000003" class="edge">
<title>Node5&#45;&gt;Node3</title>
<g id="a_edge6_Node000005_Node000003"><a xlink:title=" ">
<path fill="none" stroke="#63b8ff" d="M1234.73,-54.22C1247.8,-43.18 1264.41,-29.14 1275.09,-20.11"/>
<polygon fill="#63b8ff" stroke="#63b8ff" points="1232.5,-51.52 1227.12,-60.65 1237.02,-56.87 1232.5,-51.52"/>
</a>
</g>
</g>
<!-- Node6&#45;&gt;Node3 -->
<g id="edge8_Node000006_Node000003" class="edge">
<title>Node6&#45;&gt;Node3</title>
<g id="a_edge8_Node000006_Node000003"><a xlink:title=" ">
<path fill="none" stroke="#63b8ff" d="M1337.02,-54.22C1323.95,-43.18 1307.34,-29.14 1296.66,-20.11"/>
<polygon fill="#63b8ff" stroke="#63b8ff" points="1334.73,-56.87 1344.63,-60.65 1339.25,-51.52 1334.73,-56.87"/>
</a>
</g>
</g>
<!-- Node7&#45;&gt;Node2 -->
<g id="edge28_Node000007_Node000002" class="edge">
<title>Node7&#45;&gt;Node2</title>
<g id="a_edge28_Node000007_Node000002"><a xlink:title=" ">
<path fill="none" stroke="#63b8ff" d="M1981.07,-127.07C1975.63,-125.92 1970.15,-124.86 1964.88,-124 1790.47,-95.46 1743.7,-113.83 1568.88,-88 1558.76,-86.51 1547.94,-84.51 1537.81,-82.45"/>
<polygon fill="#63b8ff" stroke="#63b8ff" points="1980.07,-130.44 1990.6,-129.21 1981.6,-123.61 1980.07,-130.44"/>
</a>
</g>
</g>
<!-- Node7&#45;&gt;Node3 -->
<g id="edge10_Node000007_Node000003" class="edge">
<title>Node7&#45;&gt;Node3</title>
<g id="a_edge10_Node000007_Node000003"><a xlink:title=" ">
<path fill="none" stroke="#63b8ff" d="M1980.85,-127.07C1975.49,-125.93 1970.08,-124.87 1964.88,-124 1804.99,-97.16 1751.24,-151.04 1601.88,-88 1581.53,-79.41 1583.94,-65.21 1563.88,-56 1480.33,-17.67 1369.57,-11.37 1316.62,-10.72"/>
<polygon fill="#63b8ff" stroke="#63b8ff" points="1979.73,-130.41 1990.26,-129.18 1981.26,-123.58 1979.73,-130.41"/>
</a>
</g>
</g>
<!-- Node7&#45;&gt;Node5 -->
<g id="edge12_Node000007_Node000005" class="edge">
<title>Node7&#45;&gt;Node5</title>
<g id="a_edge12_Node000007_Node000005"><a xlink:title=" ">
<path fill="none" stroke="#63b8ff" d="M1966.8,-128.53C1955.22,-126.81 1943.2,-125.2 1931.88,-124 1645.91,-93.77 1570.93,-125.83 1285.88,-88 1275.63,-86.64 1264.67,-84.61 1254.49,-82.49"/>
<polygon fill="#63b8ff" stroke="#63b8ff" points="1966.26,-131.98 1976.68,-130.04 1967.32,-125.07 1966.26,-131.98"/>
</a>
</g>
</g>
<!-- Node7&#45;&gt;Node6 -->
<g id="edge19_Node000007_Node000006" class="edge">
<title>Node7&#45;&gt;Node6</title>
<g id="a_edge19_Node000007_Node000006"><a xlink:title=" ">
<path fill="none" stroke="#63b8ff" d="M1966.78,-128.67C1955.21,-126.94 1943.19,-125.29 1931.88,-124 1708.74,-98.64 1650.26,-119.28 1427.88,-88 1417.77,-86.58 1406.95,-84.55 1396.88,-82.45"/>
<polygon fill="#63b8ff" stroke="#63b8ff" points="1966.24,-132.13 1976.66,-130.19 1967.31,-125.21 1966.24,-132.13"/>
</a>
</g>
</g>
<!-- Node8 -->
<g id="Node000008" class="node">
<title>Node8</title>
<g id="a_Node000008"><a xlink:href="int128__algorithm_8hpp.html" target="_top" xlink:title=" ">
<polygon fill="white" stroke="#666666" points="2095.5,-20 1960.25,-20 1960.25,0 2095.5,0 2095.5,-20"/>
<text text-anchor="middle" x="2027.88" y="-6.5" font-family="Helvetica,sans-Serif" font-size="10.00">int128/int128_algorithm.hpp</text>
</a>
</g>
</g>
<!-- Node7&#45;&gt;Node8 -->
<g id="edge11_Node000007_Node000008" class="edge">
<title>Node7&#45;&gt;Node8</title>
<g id="a_edge11_Node000007_Node000008"><a xlink:title=" ">
<path fill="none" stroke="#63b8ff" d="M2027.88,-118.57C2027.88,-90.49 2027.88,-41.09 2027.88,-20.47"/>
<polygon fill="#63b8ff" stroke="#63b8ff" points="2024.38,-118.28 2027.88,-128.28 2031.38,-118.28 2024.38,-118.28"/>
</a>
</g>
</g>
<!-- Node9 -->
<g id="Node000009" class="node">
<title>Node9</title>
<g id="a_Node000009"><a xlink:href="int128__bits_8hpp.html" target="_top" xlink:title=" ">
<polygon fill="white" stroke="#666666" points="1722.5,-82 1611.25,-82 1611.25,-62 1722.5,-62 1722.5,-82"/>
<text text-anchor="middle" x="1666.88" y="-68.5" font-family="Helvetica,sans-Serif" font-size="10.00">int128/int128_bits.hpp</text>
</a>
</g>
</g>
<!-- Node7&#45;&gt;Node9 -->
<g id="edge13_Node000007_Node000009" class="edge">
<title>Node7&#45;&gt;Node9</title>
<g id="a_edge13_Node000007_Node000009"><a xlink:title=" ">
<path fill="none" stroke="#63b8ff" d="M1979.18,-127C1974.36,-125.93 1969.53,-124.91 1964.88,-124 1862.05,-103.85 1834.77,-107.79 1731.88,-88 1723.35,-86.36 1714.23,-84.39 1705.62,-82.43"/>
<polygon fill="#63b8ff" stroke="#63b8ff" points="1978.33,-130.39 1988.86,-129.2 1979.89,-123.57 1978.33,-130.39"/>
</a>
</g>
</g>
<!-- Node10 -->
<g id="Node000010" class="node">
<title>Node10</title>
<g id="a_Node000010"><a xlink:href="int128__cmath_8hpp.html" target="_top" xlink:title=" ">
<polygon fill="white" stroke="#666666" points="2000.12,-82 1877.62,-82 1877.62,-62 2000.12,-62 2000.12,-82"/>
<text text-anchor="middle" x="1938.88" y="-68.5" font-family="Helvetica,sans-Serif" font-size="10.00">int128/int128_cmath.hpp</text>
</a>
</g>
</g>
<!-- Node7&#45;&gt;Node10 -->
<g id="edge14_Node000007_Node000010" class="edge">
<title>Node7&#45;&gt;Node10</title>
<g id="a_edge14_Node000007_Node000010"><a xlink:title=" ">
<path fill="none" stroke="#63b8ff" d="M2005.88,-122.69C1988.81,-110.03 1965.74,-92.92 1951.6,-82.44"/>
<polygon fill="#63b8ff" stroke="#63b8ff" points="2003.79,-125.5 2013.91,-128.64 2007.96,-119.87 2003.79,-125.5"/>
</a>
</g>
</g>
<!-- Node11 -->
<g id="Node000011" class="node">
<title>Node11</title>
<g id="a_Node000011"><a xlink:href="int128__concepts_8hpp.html" target="_top" xlink:title=" ">
<polygon fill="white" stroke="#666666" points="2614.5,-82 2479.25,-82 2479.25,-62 2614.5,-62 2614.5,-82"/>
<text text-anchor="middle" x="2546.88" y="-68.5" font-family="Helvetica,sans-Serif" font-size="10.00">int128/int128_concepts.hpp</text>
</a>
</g>
</g>
<!-- Node7&#45;&gt;Node11 -->
<g id="edge17_Node000007_Node000011" class="edge">
<title>Node7&#45;&gt;Node11</title>
<g id="a_edge17_Node000007_Node000011"><a xlink:title=" ">
<path fill="none" stroke="#63b8ff" d="M2088.72,-133.49C2174.13,-125.4 2334.31,-108.99 2469.88,-88 2480.1,-86.42 2491.05,-84.45 2501.38,-82.47"/>
<polygon fill="#63b8ff" stroke="#63b8ff" points="2088.56,-129.98 2078.93,-134.41 2089.22,-136.95 2088.56,-129.98"/>
</a>
</g>
</g>
<!-- Node12 -->
<g id="Node000012" class="node">
<title>Node12</title>
<g id="a_Node000012"><a xlink:href="int128__format_8hpp.html" target="_top" xlink:title=" ">
<polygon fill="white" stroke="#666666" points="2878.5,-82 2755.25,-82 2755.25,-62 2878.5,-62 2878.5,-82"/>
<text text-anchor="middle" x="2816.88" y="-68.5" font-family="Helvetica,sans-Serif" font-size="10.00">int128/int128_format.hpp</text>
</a>
</g>
</g>
<!-- Node7&#45;&gt;Node12 -->
<g id="edge20_Node000007_Node000012" class="edge">
<title>Node7&#45;&gt;Node12</title>
<g id="a_edge20_Node000007_Node000012"><a xlink:title=" ">
<path fill="none" stroke="#63b8ff" d="M2088.79,-137.49C2212.95,-133.8 2504.01,-121.98 2745.88,-88 2755.98,-86.58 2766.8,-84.56 2776.87,-82.46"/>
<polygon fill="#63b8ff" stroke="#63b8ff" points="2088.71,-133.99 2078.82,-137.78 2088.91,-140.99 2088.71,-133.99"/>
</a>
</g>
</g>
<!-- Node13 -->
<g id="Node000013" class="node">
<title>Node13</title>
<g id="a_Node000013"><a xlink:href="int128__iostreams_8hpp.html" target="_top" xlink:title=" ">
<polygon fill="white" stroke="#666666" points="2931,-20 2792.75,-20 2792.75,0 2931,0 2931,-20"/>
<text text-anchor="middle" x="2861.88" y="-6.5" font-family="Helvetica,sans-Serif" font-size="10.00">int128/int128_iostreams.hpp</text>
</a>
</g>
</g>
<!-- Node7&#45;&gt;Node13 -->
<g id="edge22_Node000007_Node000013" class="edge">
<title>Node7&#45;&gt;Node13</title>
<g id="a_edge22_Node000007_Node000013"><a xlink:title=" ">
<path fill="none" stroke="#63b8ff" d="M2088.81,-137.65C2280.56,-133.12 2860.5,-117.05 2887.88,-88 2906.07,-68.7 2883.52,-36.22 2870.25,-20.33"/>
<polygon fill="#63b8ff" stroke="#63b8ff" points="2088.98,-134.15 2079.07,-137.88 2089.15,-141.15 2088.98,-134.15"/>
</a>
</g>
</g>
<!-- Node14 -->
<g id="Node000014" class="node">
<title>Node14</title>
<g id="a_Node000014"><a xlink:href="int128__limits_8hpp.html" target="_top" xlink:title=" ">
<polygon fill="white" stroke="#666666" points="1859.25,-82 1740.5,-82 1740.5,-62 1859.25,-62 1859.25,-82"/>
<text text-anchor="middle" x="1799.88" y="-68.5" font-family="Helvetica,sans-Serif" font-size="10.00">int128/int128_limits.hpp</text>
</a>
</g>
</g>
<!-- Node7&#45;&gt;Node14 -->
<g id="edge23_Node000007_Node000014" class="edge">
<title>Node7&#45;&gt;Node14</title>
<g id="a_edge23_Node000007_Node000014"><a xlink:title=" ">
<path fill="none" stroke="#63b8ff" d="M1984.2,-126.36C1939.89,-113.53 1872.33,-93.97 1832.48,-82.44"/>
<polygon fill="#63b8ff" stroke="#63b8ff" points="1983.18,-129.7 1993.75,-129.12 1985.12,-122.98 1983.18,-129.7"/>
</a>
</g>
</g>
<!-- Node15 -->
<g id="Node000015" class="node">
<title>Node15</title>
<g id="a_Node000015"><a xlink:href="int128__numeric_8hpp.html" target="_top" xlink:title=" ">
<polygon fill="white" stroke="#666666" points="2185.88,-82 2055.88,-82 2055.88,-62 2185.88,-62 2185.88,-82"/>
<text text-anchor="middle" x="2120.88" y="-68.5" font-family="Helvetica,sans-Serif" font-size="10.00">int128/int128_numeric.hpp</text>
</a>
</g>
</g>
<!-- Node7&#45;&gt;Node15 -->
<g id="edge24_Node000007_Node000015" class="edge">
<title>Node7&#45;&gt;Node15</title>
<g id="a_edge24_Node000007_Node000015"><a xlink:title=" ">
<path fill="none" stroke="#63b8ff" d="M2050.36,-123.04C2068.25,-110.35 2092.67,-93.02 2107.58,-82.44"/>
<polygon fill="#63b8ff" stroke="#63b8ff" points="2048.56,-120.03 2042.43,-128.67 2052.61,-125.73 2048.56,-120.03"/>
</a>
</g>
</g>
<!-- Node16 -->
<g id="Node000016" class="node">
<title>Node16</title>
<g id="a_Node000016"><a xlink:href="int128__ranges_8hpp.html" target="_top" xlink:title=" ">
<polygon fill="white" stroke="#666666" points="2328.25,-82 2203.5,-82 2203.5,-62 2328.25,-62 2328.25,-82"/>
<text text-anchor="middle" x="2265.88" y="-68.5" font-family="Helvetica,sans-Serif" font-size="10.00">int128/int128_ranges.hpp</text>
</a>
</g>
</g>
<!-- Node7&#45;&gt;Node16 -->
<g id="edge25_Node000007_Node000016" class="edge">
<title>Node7&#45;&gt;Node16</title>
<g id="a_edge25_Node000007_Node000016"><a xlink:title=" ">
<path fill="none" stroke="#63b8ff" d="M2072.88,-126.52C2119.12,-113.7 2190.07,-94.02 2231.84,-82.44"/>
<polygon fill="#63b8ff" stroke="#63b8ff" points="2072.13,-123.09 2063.43,-129.14 2074,-129.84 2072.13,-123.09"/>
</a>
</g>
</g>
<!-- Node17 -->
<g id="Node000017" class="node">
<title>Node17</title>
<g id="a_Node000017"><a xlink:href="int128__safe_8hpp.html" target="_top" xlink:title=" ">
<polygon fill="white" stroke="#666666" points="2461,-82 2346.75,-82 2346.75,-62 2461,-62 2461,-82"/>
<text text-anchor="middle" x="2403.88" y="-68.5" font-family="Helvetica,sans-Serif" font-size="10.00">int128/int128_safe.hpp</text>
</a>
</g>
</g>
<!-- Node7&#45;&gt;Node17 -->
<g id="edge26_Node000007_Node000017" class="edge">
<title>Node7&#45;&gt;Node17</title>
<g id="a_edge26_Node000007_Node000017"><a xlink:title=" ">
<path fill="none" stroke="#63b8ff" d="M2088.75,-130C2151.2,-120.51 2251.08,-104.67 2336.88,-88 2345.42,-86.34 2354.54,-84.41 2363.21,-82.49"/>
<polygon fill="#63b8ff" stroke="#63b8ff" points="2088.39,-126.51 2079.03,-131.46 2089.44,-133.43 2088.39,-126.51"/>
</a>
</g>
</g>
<!-- Node18 -->
<g id="Node000018" class="node">
<title>Node18</title>
<g id="a_Node000018"><a xlink:href="int128__thread__safety_8hpp.html" target="_top" xlink:title="Thread&#45;safe wrappers for int128_t.">
<polygon fill="white" stroke="#666666" points="2736.75,-88 2633,-88 2633,-56 2736.75,-56 2736.75,-88"/>
<text text-anchor="start" x="2641" y="-74.5" font-family="Helvetica,sans-Serif" font-size="10.00">int128/int128_thread</text>
<text text-anchor="middle" x="2684.88" y="-62.5" font-family="Helvetica,sans-Serif" font-size="10.00">_safety.hpp</text>
</a>
</g>
</g>
<!-- Node7&#45;&gt;Node18 -->
<g id="edge27_Node000007_Node000018" class="edge">
<title>Node7&#45;&gt;Node18</title>
<g id="a_edge27_Node000007_Node000018"><a xlink:title=" ">
<path fill="none" stroke="#63b8ff" d="M2088.58,-136.93C2196.78,-132.54 2429.85,-119.96 2623.88,-88 2626.78,-87.52 2629.75,-86.98 2632.74,-86.39"/>
<polygon fill="#63b8ff" stroke="#63b8ff" points="2088.62,-133.42 2078.77,-137.32 2088.9,-140.42 2088.62,-133.42"/>
</a>
</g>
</g>
<!-- Node10&#45;&gt;Node3 -->
<g id="edge15_Node000010_Node000003" class="edge">
<title>Node10&#45;&gt;Node3</title>
<g id="a_edge15_Node000010_Node000003"><a xlink:title=" ">
<path fill="none" stroke="#63b8ff" d="M1887.54,-59.32C1880.94,-58.07 1874.27,-56.92 1867.88,-56 1658.47,-25.92 1403.59,-14.97 1316.63,-11.96"/>
<polygon fill="#63b8ff" stroke="#63b8ff" points="1886.51,-62.69 1897,-61.21 1887.88,-55.82 1886.51,-62.69"/>
</a>
</g>
</g>
<!-- Node10&#45;&gt;Node8 -->
<g id="edge16_Node000010_Node000008" class="edge">
<title>Node10&#45;&gt;Node8</title>
<g id="a_edge16_Node000010_Node000008"><a xlink:title=" ">
<path fill="none" stroke="#63b8ff" d="M1962.28,-55.22C1978.76,-44.11 2000.26,-29.62 2014.07,-20.31"/>
<polygon fill="#63b8ff" stroke="#63b8ff" points="1960.37,-52.29 1954.04,-60.78 1964.28,-58.09 1960.37,-52.29"/>
</a>
</g>
</g>
<!-- Node11&#45;&gt;Node8 -->
<g id="edge18_Node000011_Node000008" class="edge">
<title>Node11&#45;&gt;Node8</title>
<g id="a_edge18_Node000011_Node000008"><a xlink:title=" ">
<path fill="none" stroke="#63b8ff" d="M2490.6,-59.42C2483.63,-58.17 2476.6,-57 2469.88,-56 2338.06,-36.49 2182.88,-22.82 2095.88,-15.99"/>
<polygon fill="#63b8ff" stroke="#63b8ff" points="2489.84,-62.84 2500.31,-61.23 2491.12,-55.96 2489.84,-62.84"/>
</a>
</g>
</g>
<!-- Node12&#45;&gt;Node13 -->
<g id="edge21_Node000012_Node000013" class="edge">
<title>Node12&#45;&gt;Node13</title>
<g id="a_edge21_Node000012_Node000013"><a xlink:title=" ">
<path fill="none" stroke="#63b8ff" d="M2830.68,-52.6C2838.75,-41.83 2848.6,-28.7 2855.04,-20.11"/>
<polygon fill="#63b8ff" stroke="#63b8ff" points="2828.01,-50.31 2824.81,-60.41 2833.61,-54.51 2828.01,-50.31"/>
</a>
</g>
</g>
<!-- Node21&#45;&gt;Node3 -->
<g id="edge32_Node000021_Node000003" class="edge">
<title>Node21&#45;&gt;Node3</title>
<g id="a_edge32_Node000021_Node000003"><a xlink:title=" ">
<path fill="none" stroke="#63b8ff" d="M788.04,-120.02C800.77,-100.31 823.53,-70.39 851.88,-56 922.63,-20.09 1168.24,-12.82 1255.12,-11.36"/>
<polygon fill="#63b8ff" stroke="#63b8ff" points="785.1,-118.12 782.82,-128.47 791.06,-121.8 785.1,-118.12"/>
</a>
</g>
</g>
<!-- Node21&#45;&gt;Node19 -->
<g id="edge33_Node000021_Node000019" class="edge">
<title>Node21&#45;&gt;Node19</title>
<g id="a_edge33_Node000021_Node000019"><a xlink:title=" ">
<path fill="none" stroke="#63b8ff" d="M809.91,-125.11C840.4,-112.29 884.86,-93.61 911.42,-82.44"/>
<polygon fill="#63b8ff" stroke="#63b8ff" points="808.63,-121.86 800.76,-128.96 811.34,-128.31 808.63,-121.86"/>
</a>
</g>
</g>
<!-- Node22&#45;&gt;Node19 -->
<g id="edge35_Node000022_Node000019" class="edge">
<title>Node22&#45;&gt;Node19</title>
<g id="a_edge35_Node000022_Node000019"><a xlink:title=" ">
<path fill="none" stroke="#63b8ff" d="M933.88,-118.28C933.88,-106.27 933.88,-91.74 933.88,-82.44"/>
<polygon fill="#63b8ff" stroke="#63b8ff" points="930.38,-118.03 933.88,-128.03 937.38,-118.03 930.38,-118.03"/>
</a>
</g>
</g>
<!-- Node31&#45;&gt;Node3 -->
<g id="edge45_Node000031_Node000003" class="edge">
<title>Node31&#45;&gt;Node3</title>
<g id="a_edge45_Node000031_Node000003"><a xlink:title=" ">
<path fill="none" stroke="#63b8ff" d="M117.2,-127.39C123.81,-126.14 130.48,-124.98 136.88,-124 434.06,-78.57 510.67,-85.26 809.88,-56 977.79,-39.58 1179.12,-20.87 1254.96,-13.85"/>
<polygon fill="#63b8ff" stroke="#63b8ff" points="116.83,-123.89 107.69,-129.25 118.18,-130.76 116.83,-123.89"/>
</a>
</g>
</g>
</g>
</svg>

<g id="navigator" transform="translate(0 0)" fill="#404254">
  <rect fill="#f2f5e9" fill-opacity="0.5" stroke="#606060" stroke-width=".5" x="0" y="0" width="60" height="60"/>
  <use id="zoomplus" xlink:href="#zoomPlus" x="17" y="9" onmousedown="handleZoom(evt,'in')"/>
  <use id="zoomminus" xlink:href="#zoomMin" x="42" y="9" onmousedown="handleZoom(evt,'out')"/>
  <use id="reset" xlink:href="#resetDef" x="30" y="36" onmousedown="handleReset()"/>
   <use id="arrowup" xlink:href="#arrowUp" x="0" y="0" onmousedown="handlePan(0,-1)"/>
  <use id="arrowright" xlink:href="#arrowRight" x="0" y="0" onmousedown="handlePan(1,0)"/>
  <use id="arrowdown" xlink:href="#arrowDown" x="0" y="0" onmousedown="handlePan(0,1)"/>
  <use id="arrowleft" xlink:href="#arrowLeft" x="0" y="0" onmousedown="handlePan(-1,0)"/>
</g>
<svg viewBox="0 0 15 15" width="100%" height="30px" preserveAspectRatio="xMaxYMin meet">
 <g id="arrow_out" transform="scale(0.3 0.3)">
  <a xlink:href="uint128__traits__specializations_8hpp__dep__incl_org.svg" target="_base">
   <rect id="button" ry="5" rx="5" y="6" x="6" height="38" width="38"
        fill="#f2f5e9" fill-opacity="0.5" stroke="#606060" stroke-width="1.0"/>
   <path id="arrow"
     d="M 11.500037,31.436501 C 11.940474,20.09759 22.043105,11.32322 32.158766,21.979434 L 37.068811,17.246167 C 37.068811,17.246167 37.088388,32 37.088388,32 L 22.160133,31.978069 C 22.160133,31.978069 26.997745,27.140456 26.997745,27.140456 C 18.528582,18.264221 13.291696,25.230495 11.500037,31.436501 z"
     style="fill:#404040;"/>
  </a>
 </g>
</svg>

<style type='text/css'>
<![CDATA[
[data-mouse-over-selected='false'] { opacity: 0.7; }
[data-mouse-over-selected='true']  { opacity: 1.0; }
]]>
</style>
<script type="application/ecmascript"><![CDATA[
document.addEventListener('DOMContentLoaded', (event) => {
  highlightEdges();
  highlightAdjacentNodes();
});
]]></script>
</svg>
