<?xml version="1.0" encoding="UTF-8" standalone="no"?>
<!DOCTYPE svg PUBLIC "-//W3C//DTD SVG 1.1//EN"
 "http://www.w3.org/Graphics/SVG/1.1/DTD/svg11.dtd">
<!-- Generated by graphviz version 12.2.1 (0)
 -->
<!-- Title: uint128/uint128_cmath.hpp Pages: 1 -->
<svg width="232pt" height="84pt"
 viewBox="0.00 0.00 232.38 84.00" xmlns="http://www.w3.org/2000/svg" xmlns:xlink="http://www.w3.org/1999/xlink">
<g id="graph0" class="graph" transform="scale(1 1) rotate(0) translate(4 80)">
<title>uint128/uint128_cmath.hpp</title>
<!-- Node1 -->
<g id="Node000001" class="node">
<title>Node1</title>
<g id="a_Node000001"><a xlink:title=" ">
<polygon fill="#999999" stroke="#666666" points="157,-76 24,-76 24,-56 157,-56 157,-76"/>
<text text-anchor="middle" x="90.5" y="-62.5" font-family="Helvetica,sans-Serif" font-size="10.00">uint128/uint128_cmath.hpp</text>
</a>
</g>
</g>
<!-- Node2 -->
<g id="Node000002" class="node">
<title>Node2</title>
<g id="a_Node000002"><a xlink:href="int128_8hpp.html" target="_top" xlink:title="Header unificado para tipos enteros de 128 bits con balance óptimo.">
<polygon fill="white" stroke="#666666" points="61,-20 0,-20 0,0 61,0 61,-20"/>
<text text-anchor="middle" x="30.5" y="-6.5" font-family="Helvetica,sans-Serif" font-size="10.00">int128.hpp</text>
</a>
</g>
</g>
<!-- Node1&#45;&gt;Node2 -->
<g id="edge1_Node000001_Node000002" class="edge">
<title>Node1&#45;&gt;Node2</title>
<g id="a_edge1_Node000001_Node000002"><a xlink:title=" ">
<path fill="none" stroke="#63b8ff" d="M71.75,-48.13C61.55,-38.94 49.31,-27.93 40.83,-20.3"/>
<polygon fill="#63b8ff" stroke="#63b8ff" points="69.15,-50.49 78.92,-54.58 73.83,-45.29 69.15,-50.49"/>
</a>
</g>
</g>
<!-- Node3 -->
<g id="Node000003" class="node">
<title>Node3</title>
<g id="a_Node000003"><a xlink:href="uint128__algorithm_8hpp.html" target="_top" xlink:title=" ">
<polygon fill="white" stroke="#666666" points="224.38,-20 78.62,-20 78.62,0 224.38,0 224.38,-20"/>
<text text-anchor="middle" x="151.5" y="-6.5" font-family="Helvetica,sans-Serif" font-size="10.00">uint128/uint128_algorithm.hpp</text>
</a>
</g>
</g>
<!-- Node1&#45;&gt;Node3 -->
<g id="edge2_Node000001_Node000003" class="edge">
<title>Node1&#45;&gt;Node3</title>
<g id="a_edge2_Node000001_Node000003"><a xlink:title=" ">
<path fill="none" stroke="#63b8ff" d="M109.56,-48.13C119.94,-38.94 132.37,-27.93 141,-20.3"/>
<polygon fill="#63b8ff" stroke="#63b8ff" points="107.43,-45.34 102.26,-54.59 112.07,-50.58 107.43,-45.34"/>
</a>
</g>
</g>
</g>
</svg>
