<?xml version="1.0" encoding="UTF-8" standalone="no"?>
<!DOCTYPE svg PUBLIC "-//W3C//DTD SVG 1.1//EN"
 "http://www.w3.org/Graphics/SVG/1.1/DTD/svg11.dtd">
<!-- Generated by graphviz version 12.2.1 (0)
 -->
<!-- Title: uint128/uint128_numeric.hpp Pages: 1 -->
<!--zoomable 208 -->

<svg id="main" version="1.1" xmlns="http://www.w3.org/2000/svg" xmlns:xlink="http://www.w3.org/1999/xlink" xml:space="preserve" onload="init(evt)">

<style type="text/css"><![CDATA[
.node, .edge {opacity: 0.7;}
.node.selected, .edge.selected {opacity: 1;}
.edge:hover path { stroke: red; }
.edge:hover polygon { stroke: red; fill: red; }
]]></style>

<defs>
  <circle id="rim" cx="0" cy="0" r="7"/>
  <circle id="rim2" cx="0" cy="0" r="3.5"/>
  <g id="zoomPlus">
    <use xlink:href="#rim" fill="#404040"><set attributeName="fill" to="#808080" begin="zoomplus.mouseover" end="zoomplus.mouseout"/></use>
    <path d="M-4,0h8M0,-4v8" fill="none" stroke="white" stroke-width="1.5" pointer-events="none"/>
  </g>
  <g id="zoomMin">
    <use xlink:href="#rim" fill="#404040"><set attributeName="fill" to="#808080" begin="zoomminus.mouseover" end="zoomminus.mouseout"/></use>
    <path d="M-4,0h8" fill="none" stroke="white" stroke-width="1.5" pointer-events="none"/>
  </g>
  <g id="arrowUp" transform="translate(30 24)">
    <use xlink:href="#rim"/>
    <path pointer-events="none" fill="none" stroke="white" stroke-width="1.5" d="M0,-3.0v7 M-2.5,-0.5L0,-3.0L2.5,-0.5"/>
  </g>
  <g id="arrowRight" transform="rotate(90) translate(36 -43)">
    <use xlink:href="#rim"/>
    <path pointer-events="none" fill="none" stroke="white" stroke-width="1.5" d="M0,-3.0v7 M-2.5,-0.5L0,-3.0L2.5,-0.5"/>
  </g>
  <g id="arrowDown" transform="rotate(180) translate(-30 -48)">
    <use xlink:href="#rim"/>
    <path pointer-events="none" fill="none" stroke="white" stroke-width="1.5" d="M0,-3.0v7 M-2.5,-0.5L0,-3.0L2.5,-0.5"/>
  </g>
  <g id="arrowLeft" transform="rotate(270) translate(-36 17)">
    <use xlink:href="#rim"/>
    <path pointer-events="none" fill="none" stroke="white" stroke-width="1.5" d="M0,-3.0v7 M-2.5,-0.5L0,-3.0L2.5,-0.5"/>
  </g>
  <g id="resetDef">
    <use xlink:href="#rim2" fill="#404040"><set attributeName="fill" to="#808080" begin="reset.mouseover" end="reset.mouseout"/></use>
  </g>
</defs>
<script type="application/ecmascript">
var viewWidth = 1013;
var viewHeight = 208;
var sectionId = 'dynsection-0';
</script>
<script type="application/ecmascript" xlink:href="svg.min.js"/>
<svg id="graph" class="graph">
<g id="viewport">
<title>uint128/uint128_numeric.hpp</title>
<!-- Node1 -->
<g id="Node000001" class="node">
<title>Node1</title>
<g id="a_Node000001"><a xlink:title=" ">
<polygon fill="#999999" stroke="#666666" points="991.75,-200 851.25,-200 851.25,-180 991.75,-180 991.75,-200"/>
<text text-anchor="middle" x="921.5" y="-186.5" font-family="Helvetica,sans-Serif" font-size="10.00">uint128/uint128_numeric.hpp</text>
</a>
</g>
</g>
<!-- Node2 -->
<g id="Node000002" class="node">
<title>Node2</title>
<g id="a_Node000002"><a xlink:href="uint128__t_8hpp.html" target="_top" xlink:title=" ">
<polygon fill="white" stroke="#666666" points="519.75,-144 445.25,-144 445.25,-124 519.75,-124 519.75,-144"/>
<text text-anchor="middle" x="482.5" y="-130.5" font-family="Helvetica,sans-Serif" font-size="10.00">uint128_t.hpp</text>
</a>
</g>
</g>
<!-- Node1&#45;&gt;Node2 -->
<g id="edge1_Node000001_Node000002" class="edge">
<title>Node1&#45;&gt;Node2</title>
<g id="a_edge1_Node000001_Node000002"><a xlink:title=" ">
<path fill="none" stroke="#63b8ff" d="M850.97,-180.32C761.4,-169.31 609.19,-150.58 531.41,-141.02"/>
<polygon fill="#63b8ff" stroke="#63b8ff" points="531.89,-137.55 521.54,-139.8 531.04,-144.5 531.89,-137.55"/>
</a>
</g>
</g>
<!-- Node7 -->
<g id="Node000007" class="node">
<title>Node7</title>
<g id="a_Node000007"><a xlink:title=" ">
<polygon fill="#e0e0e0" stroke="#999999" points="858.12,-20 812.88,-20 812.88,0 858.12,0 858.12,-20"/>
<text text-anchor="middle" x="835.5" y="-6.5" font-family="Helvetica,sans-Serif" font-size="10.00">cstdint</text>
</a>
</g>
</g>
<!-- Node1&#45;&gt;Node7 -->
<g id="edge17_Node000001_Node000007" class="edge">
<title>Node1&#45;&gt;Node7</title>
<g id="a_edge17_Node000001_Node000007"><a xlink:title=" ">
<path fill="none" stroke="#63b8ff" d="M922.6,-179.75C924.84,-156.83 927.8,-96.3 902.5,-56 894.39,-43.08 881.05,-33.01 868.41,-25.7"/>
<polygon fill="#63b8ff" stroke="#63b8ff" points="870.33,-22.76 859.86,-21.14 867.04,-28.94 870.33,-22.76"/>
</a>
</g>
</g>
<!-- Node15 -->
<g id="Node000015" class="node">
<title>Node15</title>
<g id="a_Node000015"><a xlink:title=" ">
<polygon fill="#e0e0e0" stroke="#999999" points="1005.38,-144 949.62,-144 949.62,-124 1005.38,-124 1005.38,-144"/>
<text text-anchor="middle" x="977.5" y="-130.5" font-family="Helvetica,sans-Serif" font-size="10.00">algorithm</text>
</a>
</g>
</g>
<!-- Node1&#45;&gt;Node15 -->
<g id="edge16_Node000001_Node000015" class="edge">
<title>Node1&#45;&gt;Node15</title>
<g id="a_edge16_Node000001_Node000015"><a xlink:title=" ">
<path fill="none" stroke="#63b8ff" d="M931.25,-179.59C939.12,-172.01 950.4,-161.13 959.85,-152.02"/>
<polygon fill="#63b8ff" stroke="#63b8ff" points="962,-154.81 966.77,-145.35 957.14,-149.77 962,-154.81"/>
</a>
</g>
</g>
<!-- Node3 -->
<g id="Node000003" class="node">
<title>Node3</title>
<g id="a_Node000003"><a xlink:href="uint128__traits__specializations_8hpp.html" target="_top" xlink:title="Forward declarations for uint128_t type traits specializations.">
<polygon fill="white" stroke="#666666" points="163,-82 0,-82 0,-62 163,-62 163,-82"/>
<text text-anchor="middle" x="81.5" y="-68.5" font-family="Helvetica,sans-Serif" font-size="10.00">uint128_traits_specializations.hpp</text>
</a>
</g>
</g>
<!-- Node2&#45;&gt;Node3 -->
<g id="edge2_Node000002_Node000003" class="edge">
<title>Node2&#45;&gt;Node3</title>
<g id="a_edge2_Node000002_Node000003"><a xlink:title=" ">
<path fill="none" stroke="#63b8ff" d="M444.92,-127.56C387.34,-119.2 273.81,-102.63 177.5,-88 169.53,-86.79 161.19,-85.51 152.9,-84.23"/>
<polygon fill="#63b8ff" stroke="#63b8ff" points="153.57,-80.79 143.16,-82.71 152.5,-87.71 153.57,-80.79"/>
</a>
</g>
</g>
<!-- Node4 -->
<g id="Node000004" class="node">
<title>Node4</title>
<g id="a_Node000004"><a xlink:title=" ">
<polygon fill="#e0e0e0" stroke="#999999" points="167.38,-20 105.62,-20 105.62,0 167.38,0 167.38,-20"/>
<text text-anchor="middle" x="136.5" y="-6.5" font-family="Helvetica,sans-Serif" font-size="10.00">type_traits</text>
</a>
</g>
</g>
<!-- Node2&#45;&gt;Node4 -->
<g id="edge12_Node000002_Node000004" class="edge">
<title>Node2&#45;&gt;Node4</title>
<g id="a_edge12_Node000002_Node000004"><a xlink:title=" ">
<path fill="none" stroke="#63b8ff" d="M444.84,-129.72C380.05,-123.6 250.58,-109.1 210.5,-88 196.62,-80.69 168.76,-49.41 151.47,-29.03"/>
<polygon fill="#63b8ff" stroke="#63b8ff" points="154.23,-26.88 145.11,-21.47 148.87,-31.38 154.23,-26.88"/>
</a>
</g>
</g>
<!-- Node5 -->
<g id="Node000005" class="node">
<title>Node5</title>
<g id="a_Node000005"><a xlink:title=" ">
<polygon fill="#e0e0e0" stroke="#999999" points="263.75,-82 219.25,-82 219.25,-62 263.75,-62 263.75,-82"/>
<text text-anchor="middle" x="241.5" y="-68.5" font-family="Helvetica,sans-Serif" font-size="10.00">climits</text>
</a>
</g>
</g>
<!-- Node2&#45;&gt;Node5 -->
<g id="edge4_Node000002_Node000005" class="edge">
<title>Node2&#45;&gt;Node5</title>
<g id="a_edge4_Node000002_Node000005"><a xlink:title=" ">
<path fill="none" stroke="#63b8ff" d="M444.97,-127.74C402.39,-121.14 331.21,-108.17 272.5,-88 271.54,-87.67 270.56,-87.31 269.58,-86.94"/>
<polygon fill="#63b8ff" stroke="#63b8ff" points="271.18,-83.82 260.61,-83.07 268.41,-90.25 271.18,-83.82"/>
</a>
</g>
</g>
<!-- Node6 -->
<g id="Node000006" class="node">
<title>Node6</title>
<g id="a_Node000006"><a xlink:title=" ">
<polygon fill="#e0e0e0" stroke="#999999" points="329.62,-82 281.38,-82 281.38,-62 329.62,-62 329.62,-82"/>
<text text-anchor="middle" x="305.5" y="-68.5" font-family="Helvetica,sans-Serif" font-size="10.00">cstddef</text>
</a>
</g>
</g>
<!-- Node2&#45;&gt;Node6 -->
<g id="edge5_Node000002_Node000006" class="edge">
<title>Node2&#45;&gt;Node6</title>
<g id="a_edge5_Node000002_Node000006"><a xlink:title=" ">
<path fill="none" stroke="#63b8ff" d="M451.39,-123.54C423.1,-114.8 380.27,-101.19 343.5,-88 342.15,-87.51 340.77,-87.01 339.38,-86.5"/>
<polygon fill="#63b8ff" stroke="#63b8ff" points="340.73,-83.27 330.14,-82.97 338.24,-89.81 340.73,-83.27"/>
</a>
</g>
</g>
<!-- Node2&#45;&gt;Node7 -->
<g id="edge6_Node000002_Node000007" class="edge">
<title>Node2&#45;&gt;Node7</title>
<g id="a_edge6_Node000002_Node000007"><a xlink:title=" ">
<path fill="none" stroke="#63b8ff" d="M444.88,-127.68C420.91,-122.12 391.62,-110.84 376.5,-88 368.65,-76.14 366.95,-66.54 376.5,-56 404.93,-24.65 699.42,-14.39 801.16,-11.77"/>
<polygon fill="#63b8ff" stroke="#63b8ff" points="801.15,-15.27 811.06,-11.52 800.98,-8.27 801.15,-15.27"/>
</a>
</g>
</g>
<!-- Node8 -->
<g id="Node000008" class="node">
<title>Node8</title>
<g id="a_Node000008"><a xlink:title=" ">
<polygon fill="#e0e0e0" stroke="#999999" points="439.25,-82 385.75,-82 385.75,-62 439.25,-62 439.25,-82"/>
<text text-anchor="middle" x="412.5" y="-68.5" font-family="Helvetica,sans-Serif" font-size="10.00">iostream</text>
</a>
</g>
</g>
<!-- Node2&#45;&gt;Node8 -->
<g id="edge7_Node000002_Node000008" class="edge">
<title>Node2&#45;&gt;Node8</title>
<g id="a_edge7_Node000002_Node000008"><a xlink:title=" ">
<path fill="none" stroke="#63b8ff" d="M471.56,-123.62C460.92,-114.5 444.52,-100.45 431.7,-89.46"/>
<polygon fill="#63b8ff" stroke="#63b8ff" points="434.15,-86.95 424.28,-83.1 429.6,-92.26 434.15,-86.95"/>
</a>
</g>
</g>
<!-- Node9 -->
<g id="Node000009" class="node">
<title>Node9</title>
<g id="a_Node000009"><a xlink:title=" ">
<polygon fill="#e0e0e0" stroke="#999999" points="507.38,-82 457.62,-82 457.62,-62 507.38,-62 507.38,-82"/>
<text text-anchor="middle" x="482.5" y="-68.5" font-family="Helvetica,sans-Serif" font-size="10.00">optional</text>
</a>
</g>
</g>
<!-- Node2&#45;&gt;Node9 -->
<g id="edge8_Node000002_Node000009" class="edge">
<title>Node2&#45;&gt;Node9</title>
<g id="a_edge8_Node000002_Node000009"><a xlink:title=" ">
<path fill="none" stroke="#63b8ff" d="M482.5,-123.62C482.5,-115.56 482.5,-103.65 482.5,-93.41"/>
<polygon fill="#63b8ff" stroke="#63b8ff" points="486,-93.63 482.5,-83.63 479,-93.63 486,-93.63"/>
</a>
</g>
</g>
<!-- Node10 -->
<g id="Node000010" class="node">
<title>Node10</title>
<g id="a_Node000010"><a xlink:title=" ">
<polygon fill="#e0e0e0" stroke="#999999" points="583.88,-82 525.12,-82 525.12,-62 583.88,-62 583.88,-82"/>
<text text-anchor="middle" x="554.5" y="-68.5" font-family="Helvetica,sans-Serif" font-size="10.00">stdexcept</text>
</a>
</g>
</g>
<!-- Node2&#45;&gt;Node10 -->
<g id="edge9_Node000002_Node000010" class="edge">
<title>Node2&#45;&gt;Node10</title>
<g id="a_edge9_Node000002_Node000010"><a xlink:title=" ">
<path fill="none" stroke="#63b8ff" d="M493.75,-123.62C504.7,-114.5 521.57,-100.45 534.75,-89.46"/>
<polygon fill="#63b8ff" stroke="#63b8ff" points="536.96,-92.17 542.4,-83.08 532.48,-86.79 536.96,-92.17"/>
</a>
</g>
</g>
<!-- Node11 -->
<g id="Node000011" class="node">
<title>Node11</title>
<g id="a_Node000011"><a xlink:title=" ">
<polygon fill="#e0e0e0" stroke="#999999" points="641.5,-82 601.5,-82 601.5,-62 641.5,-62 641.5,-82"/>
<text text-anchor="middle" x="621.5" y="-68.5" font-family="Helvetica,sans-Serif" font-size="10.00">string</text>
</a>
</g>
</g>
<!-- Node2&#45;&gt;Node11 -->
<g id="edge10_Node000002_Node000011" class="edge">
<title>Node2&#45;&gt;Node11</title>
<g id="a_edge10_Node000002_Node000011"><a xlink:title=" ">
<path fill="none" stroke="#63b8ff" d="M507.23,-123.61C529.71,-114.91 563.65,-101.33 592.5,-88 592.85,-87.84 593.2,-87.68 593.55,-87.51"/>
<polygon fill="#63b8ff" stroke="#63b8ff" points="595.05,-90.68 602.48,-83.12 591.96,-84.39 595.05,-90.68"/>
</a>
</g>
</g>
<!-- Node12 -->
<g id="Node000012" class="node">
<title>Node12</title>
<g id="a_Node000012"><a xlink:title=" ">
<polygon fill="#e0e0e0" stroke="#999999" points="703,-82 660,-82 660,-62 703,-62 703,-82"/>
<text text-anchor="middle" x="681.5" y="-68.5" font-family="Helvetica,sans-Serif" font-size="10.00">thread</text>
</a>
</g>
</g>
<!-- Node2&#45;&gt;Node12 -->
<g id="edge11_Node000002_Node000012" class="edge">
<title>Node2&#45;&gt;Node12</title>
<g id="a_edge11_Node000002_Node000012"><a xlink:title=" ">
<path fill="none" stroke="#63b8ff" d="M520.17,-125.06C554.64,-117.29 606.78,-104.27 650.5,-88 651.3,-87.7 652.1,-87.39 652.91,-87.07"/>
<polygon fill="#63b8ff" stroke="#63b8ff" points="654.26,-90.3 662,-83.08 651.44,-83.89 654.26,-90.3"/>
</a>
</g>
</g>
<!-- Node13 -->
<g id="Node000013" class="node">
<title>Node13</title>
<g id="a_Node000013"><a xlink:title=" ">
<polygon fill="#e0e0e0" stroke="#999999" points="760.12,-82 720.88,-82 720.88,-62 760.12,-62 760.12,-82"/>
<text text-anchor="middle" x="740.5" y="-68.5" font-family="Helvetica,sans-Serif" font-size="10.00">utility</text>
</a>
</g>
</g>
<!-- Node2&#45;&gt;Node13 -->
<g id="edge13_Node000002_Node000013" class="edge">
<title>Node2&#45;&gt;Node13</title>
<g id="a_edge13_Node000002_Node000013"><a xlink:title=" ">
<path fill="none" stroke="#63b8ff" d="M520.24,-128.91C566.35,-123.16 646.27,-110.76 711.5,-88 712.3,-87.72 713.11,-87.42 713.92,-87.11"/>
<polygon fill="#63b8ff" stroke="#63b8ff" points="715.26,-90.34 722.92,-83.03 712.37,-83.97 715.26,-90.34"/>
</a>
</g>
</g>
<!-- Node14 -->
<g id="Node000014" class="node">
<title>Node14</title>
<g id="a_Node000014"><a xlink:href="uint128__mod__helpers_8hpp.html" target="_top" xlink:title="Helpers y especializaciones para operaciones de módulo optimizadas en uint128_t.">
<polygon fill="white" stroke="#666666" points="893,-88 778,-88 778,-56 893,-56 893,-88"/>
<text text-anchor="start" x="786" y="-74.5" font-family="Helvetica,sans-Serif" font-size="10.00">specializations/uint128</text>
<text text-anchor="middle" x="835.5" y="-62.5" font-family="Helvetica,sans-Serif" font-size="10.00">_mod_helpers.hpp</text>
</a>
</g>
</g>
<!-- Node2&#45;&gt;Node14 -->
<g id="edge14_Node000002_Node000014" class="edge">
<title>Node2&#45;&gt;Node14</title>
<g id="a_edge14_Node000002_Node000014"><a xlink:title=" ">
<path fill="none" stroke="#63b8ff" d="M519.79,-127.98C572.58,-120.69 672.37,-106.26 766.45,-88.52"/>
<polygon fill="#63b8ff" stroke="#63b8ff" points="766.94,-91.99 776.11,-86.68 765.63,-85.11 766.94,-91.99"/>
</a>
</g>
</g>
<!-- Node3&#45;&gt;Node4 -->
<g id="edge3_Node000003_Node000004" class="edge">
<title>Node3&#45;&gt;Node4</title>
<g id="a_edge3_Node000003_Node000004"><a xlink:title=" ">
<path fill="none" stroke="#63b8ff" d="M90.09,-61.62C98.21,-52.77 110.59,-39.26 120.53,-28.43"/>
<polygon fill="#63b8ff" stroke="#63b8ff" points="122.95,-30.97 127.12,-21.23 117.79,-26.23 122.95,-30.97"/>
</a>
</g>
</g>
<!-- Node14&#45;&gt;Node7 -->
<g id="edge15_Node000014_Node000007" class="edge">
<title>Node14&#45;&gt;Node7</title>
<g id="a_edge15_Node000014_Node000007"><a xlink:title=" ">
<path fill="none" stroke="#63b8ff" d="M835.5,-55.55C835.5,-48.34 835.5,-39.66 835.5,-31.88"/>
<polygon fill="#63b8ff" stroke="#63b8ff" points="839,-31.92 835.5,-21.92 832,-31.92 839,-31.92"/>
</a>
</g>
</g>
</g>
</svg>

<g id="navigator" transform="translate(0 0)" fill="#404254">
  <rect fill="#f2f5e9" fill-opacity="0.5" stroke="#606060" stroke-width=".5" x="0" y="0" width="60" height="60"/>
  <use id="zoomplus" xlink:href="#zoomPlus" x="17" y="9" onmousedown="handleZoom(evt,'in')"/>
  <use id="zoomminus" xlink:href="#zoomMin" x="42" y="9" onmousedown="handleZoom(evt,'out')"/>
  <use id="reset" xlink:href="#resetDef" x="30" y="36" onmousedown="handleReset()"/>
   <use id="arrowup" xlink:href="#arrowUp" x="0" y="0" onmousedown="handlePan(0,-1)"/>
  <use id="arrowright" xlink:href="#arrowRight" x="0" y="0" onmousedown="handlePan(1,0)"/>
  <use id="arrowdown" xlink:href="#arrowDown" x="0" y="0" onmousedown="handlePan(0,1)"/>
  <use id="arrowleft" xlink:href="#arrowLeft" x="0" y="0" onmousedown="handlePan(-1,0)"/>
</g>
<svg viewBox="0 0 15 15" width="100%" height="30px" preserveAspectRatio="xMaxYMin meet">
 <g id="arrow_out" transform="scale(0.3 0.3)">
  <a xlink:href="uint128__numeric_8hpp__incl_org.svg" target="_base">
   <rect id="button" ry="5" rx="5" y="6" x="6" height="38" width="38"
        fill="#f2f5e9" fill-opacity="0.5" stroke="#606060" stroke-width="1.0"/>
   <path id="arrow"
     d="M 11.500037,31.436501 C 11.940474,20.09759 22.043105,11.32322 32.158766,21.979434 L 37.068811,17.246167 C 37.068811,17.246167 37.088388,32 37.088388,32 L 22.160133,31.978069 C 22.160133,31.978069 26.997745,27.140456 26.997745,27.140456 C 18.528582,18.264221 13.291696,25.230495 11.500037,31.436501 z"
     style="fill:#404040;"/>
  </a>
 </g>
</svg>

<style type='text/css'>
<![CDATA[
[data-mouse-over-selected='false'] { opacity: 0.7; }
[data-mouse-over-selected='true']  { opacity: 1.0; }
]]>
</style>
<script type="application/ecmascript"><![CDATA[
document.addEventListener('DOMContentLoaded', (event) => {
  highlightEdges();
  highlightAdjacentNodes();
});
]]></script>
</svg>
