<?xml version="1.0" encoding="UTF-8" standalone="no"?>
<!DOCTYPE svg PUBLIC "-//W3C//DTD SVG 1.1//EN"
 "http://www.w3.org/Graphics/SVG/1.1/DTD/svg11.dtd">
<!-- Generated by graphviz version 12.2.1 (0)
 -->
<!-- Title: uint128/uint128_iostreams.hpp Pages: 1 -->
<svg width="901pt" height="208pt"
 viewBox="0.00 0.00 900.75 208.00" xmlns="http://www.w3.org/2000/svg" xmlns:xlink="http://www.w3.org/1999/xlink">
<g id="graph0" class="graph" transform="scale(1 1) rotate(0) translate(4 204)">
<title>uint128/uint128_iostreams.hpp</title>
<!-- Node1 -->
<g id="Node000001" class="node">
<title>Node1</title>
<g id="a_Node000001"><a xlink:title=" ">
<polygon fill="#999999" stroke="#666666" points="594.12,-200 445.38,-200 445.38,-180 594.12,-180 594.12,-200"/>
<text text-anchor="middle" x="519.75" y="-186.5" font-family="Helvetica,sans-Serif" font-size="10.00">uint128/uint128_iostreams.hpp</text>
</a>
</g>
</g>
<!-- Node2 -->
<g id="Node000002" class="node">
<title>Node2</title>
<g id="a_Node000002"><a xlink:href="uint128__t_8hpp.html" target="_top" xlink:title=" ">
<polygon fill="white" stroke="#666666" points="492,-144 417.5,-144 417.5,-124 492,-124 492,-144"/>
<text text-anchor="middle" x="454.75" y="-130.5" font-family="Helvetica,sans-Serif" font-size="10.00">uint128_t.hpp</text>
</a>
</g>
</g>
<!-- Node1&#45;&gt;Node2 -->
<g id="edge1_Node000001_Node000002" class="edge">
<title>Node1&#45;&gt;Node2</title>
<g id="a_edge1_Node000001_Node000002"><a xlink:title=" ">
<path fill="none" stroke="#63b8ff" d="M508.43,-179.59C499.11,-171.85 485.67,-160.69 474.57,-151.47"/>
<polygon fill="#63b8ff" stroke="#63b8ff" points="477.04,-148.96 467.11,-145.27 472.56,-154.35 477.04,-148.96"/>
</a>
</g>
</g>
<!-- Node8 -->
<g id="Node000008" class="node">
<title>Node8</title>
<g id="a_Node000008"><a xlink:title=" ">
<polygon fill="#e0e0e0" stroke="#999999" points="53.5,-82 0,-82 0,-62 53.5,-62 53.5,-82"/>
<text text-anchor="middle" x="26.75" y="-68.5" font-family="Helvetica,sans-Serif" font-size="10.00">iostream</text>
</a>
</g>
</g>
<!-- Node1&#45;&gt;Node8 -->
<g id="edge17_Node000001_Node000008" class="edge">
<title>Node1&#45;&gt;Node8</title>
<g id="a_edge17_Node000001_Node000008"><a xlink:title=" ">
<path fill="none" stroke="#63b8ff" d="M460.25,-179.56C371.97,-164.74 201.67,-132.97 61.75,-88 60.37,-87.56 58.97,-87.08 57.56,-86.58"/>
<polygon fill="#63b8ff" stroke="#63b8ff" points="58.86,-83.33 48.27,-82.93 56.3,-89.84 58.86,-83.33"/>
</a>
</g>
</g>
<!-- Node11 -->
<g id="Node000011" class="node">
<title>Node11</title>
<g id="a_Node000011"><a xlink:title=" ">
<polygon fill="#e0e0e0" stroke="#999999" points="892.75,-82 852.75,-82 852.75,-62 892.75,-62 892.75,-82"/>
<text text-anchor="middle" x="872.75" y="-68.5" font-family="Helvetica,sans-Serif" font-size="10.00">string</text>
</a>
</g>
</g>
<!-- Node1&#45;&gt;Node11 -->
<g id="edge19_Node000001_Node000011" class="edge">
<title>Node1&#45;&gt;Node11</title>
<g id="a_edge19_Node000001_Node000011"><a xlink:title=" ">
<path fill="none" stroke="#63b8ff" d="M519.49,-179.78C519.64,-165.44 522.23,-137.97 538.75,-124 590.86,-79.93 778.5,-108 843.75,-88 844.72,-87.7 845.7,-87.37 846.68,-87.02"/>
<polygon fill="#63b8ff" stroke="#63b8ff" points="847.82,-90.34 855.55,-83.09 844.98,-83.94 847.82,-90.34"/>
</a>
</g>
</g>
<!-- Node15 -->
<g id="Node000015" class="node">
<title>Node15</title>
<g id="a_Node000015"><a xlink:title=" ">
<polygon fill="#e0e0e0" stroke="#999999" points="597.62,-144 547.88,-144 547.88,-124 597.62,-124 597.62,-144"/>
<text text-anchor="middle" x="572.75" y="-130.5" font-family="Helvetica,sans-Serif" font-size="10.00">iomanip</text>
</a>
</g>
</g>
<!-- Node1&#45;&gt;Node15 -->
<g id="edge16_Node000001_Node000015" class="edge">
<title>Node1&#45;&gt;Node15</title>
<g id="a_edge16_Node000001_Node000015"><a xlink:title=" ">
<path fill="none" stroke="#63b8ff" d="M528.98,-179.59C536.35,-172.08 546.88,-161.35 555.77,-152.3"/>
<polygon fill="#63b8ff" stroke="#63b8ff" points="558.06,-154.97 562.56,-145.38 553.06,-150.06 558.06,-154.97"/>
</a>
</g>
</g>
<!-- Node16 -->
<g id="Node000016" class="node">
<title>Node16</title>
<g id="a_Node000016"><a xlink:title=" ">
<polygon fill="#e0e0e0" stroke="#999999" points="667.38,-144 616.12,-144 616.12,-124 667.38,-124 667.38,-144"/>
<text text-anchor="middle" x="641.75" y="-130.5" font-family="Helvetica,sans-Serif" font-size="10.00">sstream</text>
</a>
</g>
</g>
<!-- Node1&#45;&gt;Node16 -->
<g id="edge18_Node000001_Node000016" class="edge">
<title>Node1&#45;&gt;Node16</title>
<g id="a_edge18_Node000001_Node000016"><a xlink:title=" ">
<path fill="none" stroke="#63b8ff" d="M541,-179.59C560.04,-171.17 588.23,-158.69 609.95,-149.07"/>
<polygon fill="#63b8ff" stroke="#63b8ff" points="611.22,-152.34 618.95,-145.09 608.39,-145.94 611.22,-152.34"/>
</a>
</g>
</g>
<!-- Node3 -->
<g id="Node000003" class="node">
<title>Node3</title>
<g id="a_Node000003"><a xlink:href="uint128__traits__specializations_8hpp.html" target="_top" xlink:title="Forward declarations for uint128_t type traits specializations.">
<polygon fill="white" stroke="#666666" points="234.25,-82 71.25,-82 71.25,-62 234.25,-62 234.25,-82"/>
<text text-anchor="middle" x="152.75" y="-68.5" font-family="Helvetica,sans-Serif" font-size="10.00">uint128_traits_specializations.hpp</text>
</a>
</g>
</g>
<!-- Node2&#45;&gt;Node3 -->
<g id="edge2_Node000002_Node000003" class="edge">
<title>Node2&#45;&gt;Node3</title>
<g id="a_edge2_Node000002_Node000003"><a xlink:title=" ">
<path fill="none" stroke="#63b8ff" d="M417.11,-125.52C365.46,-115.26 272.1,-96.71 211.29,-84.63"/>
<polygon fill="#63b8ff" stroke="#63b8ff" points="212.3,-81.26 201.81,-82.75 210.94,-88.13 212.3,-81.26"/>
</a>
</g>
</g>
<!-- Node4 -->
<g id="Node000004" class="node">
<title>Node4</title>
<g id="a_Node000004"><a xlink:title=" ">
<polygon fill="#e0e0e0" stroke="#999999" points="238.62,-20 176.88,-20 176.88,0 238.62,0 238.62,-20"/>
<text text-anchor="middle" x="207.75" y="-6.5" font-family="Helvetica,sans-Serif" font-size="10.00">type_traits</text>
</a>
</g>
</g>
<!-- Node2&#45;&gt;Node4 -->
<g id="edge12_Node000002_Node000004" class="edge">
<title>Node2&#45;&gt;Node4</title>
<g id="a_edge12_Node000002_Node000004"><a xlink:title=" ">
<path fill="none" stroke="#63b8ff" d="M417.05,-129.21C380.4,-124.19 324.19,-112.86 281.75,-88 256.47,-73.19 234.21,-47.34 220.87,-29.71"/>
<polygon fill="#63b8ff" stroke="#63b8ff" points="223.71,-27.66 214.98,-21.64 218.05,-31.78 223.71,-27.66"/>
</a>
</g>
</g>
<!-- Node5 -->
<g id="Node000005" class="node">
<title>Node5</title>
<g id="a_Node000005"><a xlink:title=" ">
<polygon fill="#e0e0e0" stroke="#999999" points="335,-82 290.5,-82 290.5,-62 335,-62 335,-82"/>
<text text-anchor="middle" x="312.75" y="-68.5" font-family="Helvetica,sans-Serif" font-size="10.00">climits</text>
</a>
</g>
</g>
<!-- Node2&#45;&gt;Node5 -->
<g id="edge4_Node000002_Node000005" class="edge">
<title>Node2&#45;&gt;Node5</title>
<g id="a_edge4_Node000002_Node000005"><a xlink:title=" ">
<path fill="none" stroke="#63b8ff" d="M430.31,-123.62C407.69,-114.82 373.21,-101.08 343.75,-88 343.14,-87.73 342.51,-87.45 341.89,-87.17"/>
<polygon fill="#63b8ff" stroke="#63b8ff" points="343.59,-84.1 333.05,-83.04 340.63,-90.44 343.59,-84.1"/>
</a>
</g>
</g>
<!-- Node6 -->
<g id="Node000006" class="node">
<title>Node6</title>
<g id="a_Node000006"><a xlink:title=" ">
<polygon fill="#e0e0e0" stroke="#999999" points="400.88,-82 352.62,-82 352.62,-62 400.88,-62 400.88,-82"/>
<text text-anchor="middle" x="376.75" y="-68.5" font-family="Helvetica,sans-Serif" font-size="10.00">cstddef</text>
</a>
</g>
</g>
<!-- Node2&#45;&gt;Node6 -->
<g id="edge5_Node000002_Node000006" class="edge">
<title>Node2&#45;&gt;Node6</title>
<g id="a_edge5_Node000002_Node000006"><a xlink:title=" ">
<path fill="none" stroke="#63b8ff" d="M442.56,-123.62C430.54,-114.38 411.93,-100.07 397.57,-89.01"/>
<polygon fill="#63b8ff" stroke="#63b8ff" points="400.11,-86.55 390.05,-83.23 395.84,-92.1 400.11,-86.55"/>
</a>
</g>
</g>
<!-- Node7 -->
<g id="Node000007" class="node">
<title>Node7</title>
<g id="a_Node000007"><a xlink:title=" ">
<polygon fill="#e0e0e0" stroke="#999999" points="625.38,-20 580.12,-20 580.12,0 625.38,0 625.38,-20"/>
<text text-anchor="middle" x="602.75" y="-6.5" font-family="Helvetica,sans-Serif" font-size="10.00">cstdint</text>
</a>
</g>
</g>
<!-- Node2&#45;&gt;Node7 -->
<g id="edge6_Node000002_Node000007" class="edge">
<title>Node2&#45;&gt;Node7</title>
<g id="a_edge6_Node000002_Node000007"><a xlink:title=" ">
<path fill="none" stroke="#63b8ff" d="M450.21,-123.61C443.36,-107.91 432.68,-76.07 447.75,-56 462.25,-36.69 527.51,-22.98 568.59,-16.08"/>
<polygon fill="#63b8ff" stroke="#63b8ff" points="568.92,-19.58 578.23,-14.52 567.8,-12.67 568.92,-19.58"/>
</a>
</g>
</g>
<!-- Node2&#45;&gt;Node8 -->
<g id="edge7_Node000002_Node000008" class="edge">
<title>Node2&#45;&gt;Node8</title>
<g id="a_edge7_Node000002_Node000008"><a xlink:title=" ">
<path fill="none" stroke="#63b8ff" d="M417.24,-132.31C346.53,-130.23 189.19,-121.83 61.75,-88 59.95,-87.52 58.12,-86.97 56.29,-86.36"/>
<polygon fill="#63b8ff" stroke="#63b8ff" points="58.02,-83.27 47.43,-82.98 55.53,-89.81 58.02,-83.27"/>
</a>
</g>
</g>
<!-- Node9 -->
<g id="Node000009" class="node">
<title>Node9</title>
<g id="a_Node000009"><a xlink:title=" ">
<polygon fill="#e0e0e0" stroke="#999999" points="506.62,-82 456.88,-82 456.88,-62 506.62,-62 506.62,-82"/>
<text text-anchor="middle" x="481.75" y="-68.5" font-family="Helvetica,sans-Serif" font-size="10.00">optional</text>
</a>
</g>
</g>
<!-- Node2&#45;&gt;Node9 -->
<g id="edge8_Node000002_Node000009" class="edge">
<title>Node2&#45;&gt;Node9</title>
<g id="a_edge8_Node000002_Node000009"><a xlink:title=" ">
<path fill="none" stroke="#63b8ff" d="M458.97,-123.62C462.72,-115.3 468.31,-102.86 473.02,-92.4"/>
<polygon fill="#63b8ff" stroke="#63b8ff" points="476.12,-94.05 477.03,-83.49 469.73,-91.18 476.12,-94.05"/>
</a>
</g>
</g>
<!-- Node10 -->
<g id="Node000010" class="node">
<title>Node10</title>
<g id="a_Node000010"><a xlink:title=" ">
<polygon fill="#e0e0e0" stroke="#999999" points="583.12,-82 524.38,-82 524.38,-62 583.12,-62 583.12,-82"/>
<text text-anchor="middle" x="553.75" y="-68.5" font-family="Helvetica,sans-Serif" font-size="10.00">stdexcept</text>
</a>
</g>
</g>
<!-- Node2&#45;&gt;Node10 -->
<g id="edge9_Node000002_Node000010" class="edge">
<title>Node2&#45;&gt;Node10</title>
<g id="a_edge9_Node000002_Node000010"><a xlink:title=" ">
<path fill="none" stroke="#63b8ff" d="M470.22,-123.62C485.84,-114.16 510.22,-99.38 528.62,-88.23"/>
<polygon fill="#63b8ff" stroke="#63b8ff" points="530.36,-91.27 537.1,-83.09 526.73,-85.28 530.36,-91.27"/>
</a>
</g>
</g>
<!-- Node2&#45;&gt;Node11 -->
<g id="edge10_Node000002_Node000011" class="edge">
<title>Node2&#45;&gt;Node11</title>
<g id="a_edge10_Node000002_Node000011"><a xlink:title=" ">
<path fill="none" stroke="#63b8ff" d="M492.3,-126.07C496.83,-125.33 501.39,-124.62 505.75,-124 655.34,-102.86 699.06,-131.45 843.75,-88 844.75,-87.7 845.75,-87.37 846.76,-87"/>
<polygon fill="#63b8ff" stroke="#63b8ff" points="848.13,-90.22 855.86,-82.97 845.3,-83.82 848.13,-90.22"/>
</a>
</g>
</g>
<!-- Node12 -->
<g id="Node000012" class="node">
<title>Node12</title>
<g id="a_Node000012"><a xlink:title=" ">
<polygon fill="#e0e0e0" stroke="#999999" points="644.25,-82 601.25,-82 601.25,-62 644.25,-62 644.25,-82"/>
<text text-anchor="middle" x="622.75" y="-68.5" font-family="Helvetica,sans-Serif" font-size="10.00">thread</text>
</a>
</g>
</g>
<!-- Node2&#45;&gt;Node12 -->
<g id="edge11_Node000002_Node000012" class="edge">
<title>Node2&#45;&gt;Node12</title>
<g id="a_edge11_Node000002_Node000012"><a xlink:title=" ">
<path fill="none" stroke="#63b8ff" d="M487.58,-123.56C515.61,-115.19 556.82,-102.12 591.75,-88 592.52,-87.69 593.3,-87.37 594.08,-87.04"/>
<polygon fill="#63b8ff" stroke="#63b8ff" points="595.19,-90.38 602.86,-83.07 592.31,-84 595.19,-90.38"/>
</a>
</g>
</g>
<!-- Node13 -->
<g id="Node000013" class="node">
<title>Node13</title>
<g id="a_Node000013"><a xlink:title=" ">
<polygon fill="#e0e0e0" stroke="#999999" points="701.38,-82 662.12,-82 662.12,-62 701.38,-62 701.38,-82"/>
<text text-anchor="middle" x="681.75" y="-68.5" font-family="Helvetica,sans-Serif" font-size="10.00">utility</text>
</a>
</g>
</g>
<!-- Node2&#45;&gt;Node13 -->
<g id="edge13_Node000002_Node000013" class="edge">
<title>Node2&#45;&gt;Node13</title>
<g id="a_edge13_Node000002_Node000013"><a xlink:title=" ">
<path fill="none" stroke="#63b8ff" d="M492.35,-125.76C541.44,-116.08 624.55,-98.9 653.75,-88 654.38,-87.77 655.01,-87.52 655.65,-87.26"/>
<polygon fill="#63b8ff" stroke="#63b8ff" points="656.88,-90.55 664.44,-83.13 653.9,-84.22 656.88,-90.55"/>
</a>
</g>
</g>
<!-- Node14 -->
<g id="Node000014" class="node">
<title>Node14</title>
<g id="a_Node000014"><a xlink:href="uint128__mod__helpers_8hpp.html" target="_top" xlink:title="Helpers y especializaciones para operaciones de módulo optimizadas en uint128_t.">
<polygon fill="white" stroke="#666666" points="834.25,-88 719.25,-88 719.25,-56 834.25,-56 834.25,-88"/>
<text text-anchor="start" x="727.25" y="-74.5" font-family="Helvetica,sans-Serif" font-size="10.00">specializations/uint128</text>
<text text-anchor="middle" x="776.75" y="-62.5" font-family="Helvetica,sans-Serif" font-size="10.00">_mod_helpers.hpp</text>
</a>
</g>
</g>
<!-- Node2&#45;&gt;Node14 -->
<g id="edge14_Node000002_Node000014" class="edge">
<title>Node2&#45;&gt;Node14</title>
<g id="a_edge14_Node000002_Node000014"><a xlink:title=" ">
<path fill="none" stroke="#63b8ff" d="M492.35,-126.36C496.86,-125.56 501.41,-124.76 505.75,-124 593.3,-108.59 618.15,-106.41 707.6,-88.59"/>
<polygon fill="#63b8ff" stroke="#63b8ff" points="708.24,-92.03 717.35,-86.63 706.86,-85.16 708.24,-92.03"/>
</a>
</g>
</g>
<!-- Node3&#45;&gt;Node4 -->
<g id="edge3_Node000003_Node000004" class="edge">
<title>Node3&#45;&gt;Node4</title>
<g id="a_edge3_Node000003_Node000004"><a xlink:title=" ">
<path fill="none" stroke="#63b8ff" d="M161.34,-61.62C169.46,-52.77 181.84,-39.26 191.78,-28.43"/>
<polygon fill="#63b8ff" stroke="#63b8ff" points="194.2,-30.97 198.37,-21.23 189.04,-26.23 194.2,-30.97"/>
</a>
</g>
</g>
<!-- Node14&#45;&gt;Node7 -->
<g id="edge15_Node000014_Node000007" class="edge">
<title>Node14&#45;&gt;Node7</title>
<g id="a_edge15_Node000014_Node000007"><a xlink:title=" ">
<path fill="none" stroke="#63b8ff" d="M731.94,-55.55C702.03,-45.23 663.33,-31.89 636.12,-22.51"/>
<polygon fill="#63b8ff" stroke="#63b8ff" points="637.6,-19.32 627.01,-19.37 635.32,-25.93 637.6,-19.32"/>
</a>
</g>
</g>
</g>
</svg>
