<?xml version="1.0" encoding="UTF-8" standalone="no"?>
<!DOCTYPE svg PUBLIC "-//W3C//DTD SVG 1.1//EN"
 "http://www.w3.org/Graphics/SVG/1.1/DTD/svg11.dtd">
<!-- Generated by graphviz version 12.2.1 (0)
 -->
<!-- Title: uint128/uint128_algorithm.hpp Pages: 1 -->
<!--zoomable 264 -->

<svg id="main" version="1.1" xmlns="http://www.w3.org/2000/svg" xmlns:xlink="http://www.w3.org/1999/xlink" xml:space="preserve" onload="init(evt)">

<style type="text/css"><![CDATA[
.node, .edge {opacity: 0.7;}
.node.selected, .edge.selected {opacity: 1;}
.edge:hover path { stroke: red; }
.edge:hover polygon { stroke: red; fill: red; }
]]></style>

<defs>
  <circle id="rim" cx="0" cy="0" r="7"/>
  <circle id="rim2" cx="0" cy="0" r="3.5"/>
  <g id="zoomPlus">
    <use xlink:href="#rim" fill="#404040"><set attributeName="fill" to="#808080" begin="zoomplus.mouseover" end="zoomplus.mouseout"/></use>
    <path d="M-4,0h8M0,-4v8" fill="none" stroke="white" stroke-width="1.5" pointer-events="none"/>
  </g>
  <g id="zoomMin">
    <use xlink:href="#rim" fill="#404040"><set attributeName="fill" to="#808080" begin="zoomminus.mouseover" end="zoomminus.mouseout"/></use>
    <path d="M-4,0h8" fill="none" stroke="white" stroke-width="1.5" pointer-events="none"/>
  </g>
  <g id="arrowUp" transform="translate(30 24)">
    <use xlink:href="#rim"/>
    <path pointer-events="none" fill="none" stroke="white" stroke-width="1.5" d="M0,-3.0v7 M-2.5,-0.5L0,-3.0L2.5,-0.5"/>
  </g>
  <g id="arrowRight" transform="rotate(90) translate(36 -43)">
    <use xlink:href="#rim"/>
    <path pointer-events="none" fill="none" stroke="white" stroke-width="1.5" d="M0,-3.0v7 M-2.5,-0.5L0,-3.0L2.5,-0.5"/>
  </g>
  <g id="arrowDown" transform="rotate(180) translate(-30 -48)">
    <use xlink:href="#rim"/>
    <path pointer-events="none" fill="none" stroke="white" stroke-width="1.5" d="M0,-3.0v7 M-2.5,-0.5L0,-3.0L2.5,-0.5"/>
  </g>
  <g id="arrowLeft" transform="rotate(270) translate(-36 17)">
    <use xlink:href="#rim"/>
    <path pointer-events="none" fill="none" stroke="white" stroke-width="1.5" d="M0,-3.0v7 M-2.5,-0.5L0,-3.0L2.5,-0.5"/>
  </g>
  <g id="resetDef">
    <use xlink:href="#rim2" fill="#404040"><set attributeName="fill" to="#808080" begin="reset.mouseover" end="reset.mouseout"/></use>
  </g>
</defs>
<script type="application/ecmascript">
var viewWidth = 1355;
var viewHeight = 264;
var sectionId = 'dynsection-0';
</script>
<script type="application/ecmascript" xlink:href="svg.min.js"/>
<svg id="graph" class="graph">
<g id="viewport">
<title>uint128/uint128_algorithm.hpp</title>
<!-- Node1 -->
<g id="Node000001" class="node">
<title>Node1</title>
<g id="a_Node000001"><a xlink:title=" ">
<polygon fill="#999999" stroke="#666666" points="1169.38,-256 1023.62,-256 1023.62,-236 1169.38,-236 1169.38,-256"/>
<text text-anchor="middle" x="1096.5" y="-242.5" font-family="Helvetica,sans-Serif" font-size="10.00">uint128/uint128_algorithm.hpp</text>
</a>
</g>
</g>
<!-- Node2 -->
<g id="Node000002" class="node">
<title>Node2</title>
<g id="a_Node000002"><a xlink:href="uint128__cmath_8hpp.html" target="_top" xlink:title=" ">
<polygon fill="white" stroke="#666666" points="1028.75,-200 930.25,-200 930.25,-180 1028.75,-180 1028.75,-200"/>
<text text-anchor="middle" x="979.5" y="-186.5" font-family="Helvetica,sans-Serif" font-size="10.00">uint128_cmath.hpp</text>
</a>
</g>
</g>
<!-- Node1&#45;&gt;Node2 -->
<g id="edge1_Node000001_Node000002" class="edge">
<title>Node1&#45;&gt;Node2</title>
<g id="a_edge1_Node000001_Node000002"><a xlink:title=" ">
<path fill="none" stroke="#63b8ff" d="M1076.12,-235.59C1057.94,-227.21 1031.07,-214.8 1010.28,-205.21"/>
<polygon fill="#63b8ff" stroke="#63b8ff" points="1011.96,-202.13 1001.41,-201.11 1009.03,-208.48 1011.96,-202.13"/>
</a>
</g>
</g>
<!-- Node3 -->
<g id="Node000003" class="node">
<title>Node3</title>
<g id="a_Node000003"><a xlink:href="uint128__t_8hpp.html" target="_top" xlink:title=" ">
<polygon fill="white" stroke="#666666" points="575.75,-144 501.25,-144 501.25,-124 575.75,-124 575.75,-144"/>
<text text-anchor="middle" x="538.5" y="-130.5" font-family="Helvetica,sans-Serif" font-size="10.00">uint128_t.hpp</text>
</a>
</g>
</g>
<!-- Node1&#45;&gt;Node3 -->
<g id="edge25_Node000001_Node000003" class="edge">
<title>Node1&#45;&gt;Node3</title>
<g id="a_edge25_Node000001_Node000003"><a xlink:title=" ">
<path fill="none" stroke="#63b8ff" d="M1048.44,-235.53C943.1,-214.76 692.85,-165.43 587.05,-144.57"/>
<polygon fill="#63b8ff" stroke="#63b8ff" points="588.05,-141.2 577.56,-142.7 586.7,-148.07 588.05,-141.2"/>
</a>
</g>
</g>
<!-- Node5 -->
<g id="Node000005" class="node">
<title>Node5</title>
<g id="a_Node000005"><a xlink:title=" ">
<polygon fill="#e0e0e0" stroke="#999999" points="951.38,-20 889.62,-20 889.62,0 951.38,0 951.38,-20"/>
<text text-anchor="middle" x="920.5" y="-6.5" font-family="Helvetica,sans-Serif" font-size="10.00">type_traits</text>
</a>
</g>
</g>
<!-- Node1&#45;&gt;Node5 -->
<g id="edge30_Node000001_Node000005" class="edge">
<title>Node1&#45;&gt;Node5</title>
<g id="a_edge30_Node000001_Node000005"><a xlink:title=" ">
<path fill="none" stroke="#63b8ff" d="M1100.69,-235.76C1109.67,-214.46 1128.33,-160.93 1107.5,-124 1076.66,-69.33 1007.56,-38.12 962.54,-22.89"/>
<polygon fill="#63b8ff" stroke="#63b8ff" points="963.69,-19.58 953.09,-19.82 961.52,-26.24 963.69,-19.58"/>
</a>
</g>
</g>
<!-- Node18 -->
<g id="Node000018" class="node">
<title>Node18</title>
<g id="a_Node000018"><a xlink:title=" ">
<polygon fill="#e0e0e0" stroke="#999999" points="1098.75,-144 1048.25,-144 1048.25,-124 1098.75,-124 1098.75,-144"/>
<text text-anchor="middle" x="1073.5" y="-130.5" font-family="Helvetica,sans-Serif" font-size="10.00">numeric</text>
</a>
</g>
</g>
<!-- Node1&#45;&gt;Node18 -->
<g id="edge29_Node000001_Node000018" class="edge">
<title>Node1&#45;&gt;Node18</title>
<g id="a_edge29_Node000001_Node000018"><a xlink:title=" ">
<path fill="none" stroke="#63b8ff" d="M1094.54,-235.62C1090.84,-217.92 1082.75,-179.24 1077.75,-155.32"/>
<polygon fill="#63b8ff" stroke="#63b8ff" points="1081.24,-154.91 1075.77,-145.84 1074.39,-156.34 1081.24,-154.91"/>
</a>
</g>
</g>
<!-- Node19 -->
<g id="Node000019" class="node">
<title>Node19</title>
<g id="a_Node000019"><a xlink:href="uint128__concepts_8hpp.html" target="_top" xlink:title=" ">
<polygon fill="white" stroke="#666666" points="661.12,-200 549.88,-200 549.88,-180 661.12,-180 661.12,-200"/>
<text text-anchor="middle" x="605.5" y="-186.5" font-family="Helvetica,sans-Serif" font-size="10.00">uint128_concepts.hpp</text>
</a>
</g>
</g>
<!-- Node1&#45;&gt;Node19 -->
<g id="edge21_Node000001_Node000019" class="edge">
<title>Node1&#45;&gt;Node19</title>
<g id="a_edge21_Node000001_Node000019"><a xlink:title=" ">
<path fill="none" stroke="#63b8ff" d="M1023.26,-236.94C928.53,-226.53 764.82,-208.52 672.99,-198.42"/>
<polygon fill="#63b8ff" stroke="#63b8ff" points="673.44,-194.95 663.12,-197.34 672.67,-201.91 673.44,-194.95"/>
</a>
</g>
</g>
<!-- Node21 -->
<g id="Node000021" class="node">
<title>Node21</title>
<g id="a_Node000021"><a xlink:title=" ">
<polygon fill="#e0e0e0" stroke="#999999" points="1206.38,-200 1150.62,-200 1150.62,-180 1206.38,-180 1206.38,-200"/>
<text text-anchor="middle" x="1178.5" y="-186.5" font-family="Helvetica,sans-Serif" font-size="10.00">algorithm</text>
</a>
</g>
</g>
<!-- Node1&#45;&gt;Node21 -->
<g id="edge26_Node000001_Node000021" class="edge">
<title>Node1&#45;&gt;Node21</title>
<g id="a_edge26_Node000001_Node000021"><a xlink:title=" ">
<path fill="none" stroke="#63b8ff" d="M1110.78,-235.59C1122.94,-227.59 1140.64,-215.93 1154.9,-206.54"/>
<polygon fill="#63b8ff" stroke="#63b8ff" points="1156.41,-209.73 1162.84,-201.31 1152.56,-203.89 1156.41,-209.73"/>
</a>
</g>
</g>
<!-- Node22 -->
<g id="Node000022" class="node">
<title>Node22</title>
<g id="a_Node000022"><a xlink:title=" ">
<polygon fill="#e0e0e0" stroke="#999999" points="1282.5,-200 1224.5,-200 1224.5,-180 1282.5,-180 1282.5,-200"/>
<text text-anchor="middle" x="1253.5" y="-186.5" font-family="Helvetica,sans-Serif" font-size="10.00">functional</text>
</a>
</g>
</g>
<!-- Node1&#45;&gt;Node22 -->
<g id="edge27_Node000001_Node000022" class="edge">
<title>Node1&#45;&gt;Node22</title>
<g id="a_edge27_Node000001_Node000022"><a xlink:title=" ">
<path fill="none" stroke="#63b8ff" d="M1123.85,-235.59C1149.13,-226.9 1186.96,-213.89 1215.23,-204.16"/>
<polygon fill="#63b8ff" stroke="#63b8ff" points="1216.19,-207.53 1224.51,-200.97 1213.91,-200.91 1216.19,-207.53"/>
</a>
</g>
</g>
<!-- Node23 -->
<g id="Node000023" class="node">
<title>Node23</title>
<g id="a_Node000023"><a xlink:title=" ">
<polygon fill="#e0e0e0" stroke="#999999" points="1346.5,-200 1300.5,-200 1300.5,-180 1346.5,-180 1346.5,-200"/>
<text text-anchor="middle" x="1323.5" y="-186.5" font-family="Helvetica,sans-Serif" font-size="10.00">iterator</text>
</a>
</g>
</g>
<!-- Node1&#45;&gt;Node23 -->
<g id="edge28_Node000001_Node000023" class="edge">
<title>Node1&#45;&gt;Node23</title>
<g id="a_edge28_Node000001_Node000023"><a xlink:title=" ">
<path fill="none" stroke="#63b8ff" d="M1140.01,-235.58C1177.23,-227.38 1232.47,-214.89 1289.14,-200.52"/>
<polygon fill="#63b8ff" stroke="#63b8ff" points="1289.83,-203.95 1298.65,-198.09 1288.09,-197.17 1289.83,-203.95"/>
</a>
</g>
</g>
<!-- Node2&#45;&gt;Node3 -->
<g id="edge2_Node000002_Node000003" class="edge">
<title>Node2&#45;&gt;Node3</title>
<g id="a_edge2_Node000002_Node000003"><a xlink:title=" ">
<path fill="none" stroke="#63b8ff" d="M929.77,-182.91C844.68,-172.49 672.18,-151.37 587.56,-141.01"/>
<polygon fill="#63b8ff" stroke="#63b8ff" points="588.07,-137.54 577.72,-139.8 587.22,-144.49 588.07,-137.54"/>
</a>
</g>
</g>
<!-- Node2&#45;&gt;Node5 -->
<g id="edge20_Node000002_Node000005" class="edge">
<title>Node2&#45;&gt;Node5</title>
<g id="a_edge20_Node000002_Node000005"><a xlink:title=" ">
<path fill="none" stroke="#63b8ff" d="M976.49,-179.93C967.38,-152.44 939.92,-69.6 927.16,-31.09"/>
<polygon fill="#63b8ff" stroke="#63b8ff" points="930.52,-30.09 924.05,-21.7 923.87,-32.3 930.52,-30.09"/>
</a>
</g>
</g>
<!-- Node16 -->
<g id="Node000016" class="node">
<title>Node16</title>
<g id="a_Node000016"><a xlink:title=" ">
<polygon fill="#e0e0e0" stroke="#999999" points="1030,-144 987,-144 987,-124 1030,-124 1030,-144"/>
<text text-anchor="middle" x="1008.5" y="-130.5" font-family="Helvetica,sans-Serif" font-size="10.00">cmath</text>
</a>
</g>
</g>
<!-- Node2&#45;&gt;Node16 -->
<g id="edge17_Node000002_Node000016" class="edge">
<title>Node2&#45;&gt;Node16</title>
<g id="a_edge17_Node000002_Node000016"><a xlink:title=" ">
<path fill="none" stroke="#63b8ff" d="M984.55,-179.59C988.29,-172.63 993.52,-162.89 998.14,-154.29"/>
<polygon fill="#63b8ff" stroke="#63b8ff" points="1001.14,-156.1 1002.79,-145.63 994.98,-152.79 1001.14,-156.1"/>
</a>
</g>
</g>
<!-- Node17 -->
<g id="Node000017" class="node">
<title>Node17</title>
<g id="a_Node000017"><a xlink:title=" ">
<polygon fill="#e0e0e0" stroke="#999999" points="930.12,-144 890.88,-144 890.88,-124 930.12,-124 930.12,-144"/>
<text text-anchor="middle" x="910.5" y="-130.5" font-family="Helvetica,sans-Serif" font-size="10.00">limits</text>
</a>
</g>
</g>
<!-- Node2&#45;&gt;Node17 -->
<g id="edge18_Node000002_Node000017" class="edge">
<title>Node2&#45;&gt;Node17</title>
<g id="a_edge18_Node000002_Node000017"><a xlink:title=" ">
<path fill="none" stroke="#63b8ff" d="M967.48,-179.59C957.49,-171.77 943.04,-160.46 931.19,-151.19"/>
<polygon fill="#63b8ff" stroke="#63b8ff" points="933.61,-148.64 923.57,-145.23 929.29,-154.15 933.61,-148.64"/>
</a>
</g>
</g>
<!-- Node2&#45;&gt;Node18 -->
<g id="edge19_Node000002_Node000018" class="edge">
<title>Node2&#45;&gt;Node18</title>
<g id="a_edge19_Node000002_Node000018"><a xlink:title=" ">
<path fill="none" stroke="#63b8ff" d="M995.87,-179.59C1010.07,-171.44 1030.88,-159.48 1047.38,-150"/>
<polygon fill="#63b8ff" stroke="#63b8ff" points="1048.76,-153.25 1055.69,-145.23 1045.27,-147.18 1048.76,-153.25"/>
</a>
</g>
</g>
<!-- Node4 -->
<g id="Node000004" class="node">
<title>Node4</title>
<g id="a_Node000004"><a xlink:href="uint128__traits__specializations_8hpp.html" target="_top" xlink:title="Forward declarations for uint128_t type traits specializations.">
<polygon fill="white" stroke="#666666" points="821,-82 658,-82 658,-62 821,-62 821,-82"/>
<text text-anchor="middle" x="739.5" y="-68.5" font-family="Helvetica,sans-Serif" font-size="10.00">uint128_traits_specializations.hpp</text>
</a>
</g>
</g>
<!-- Node3&#45;&gt;Node4 -->
<g id="edge3_Node000003_Node000004" class="edge">
<title>Node3&#45;&gt;Node4</title>
<g id="a_edge3_Node000003_Node000004"><a xlink:title=" ">
<path fill="none" stroke="#63b8ff" d="M569.91,-123.62C604.17,-113.4 659.21,-96.97 697.25,-85.61"/>
<polygon fill="#63b8ff" stroke="#63b8ff" points="697.95,-89.06 706.53,-82.84 695.95,-82.35 697.95,-89.06"/>
</a>
</g>
</g>
<!-- Node3&#45;&gt;Node5 -->
<g id="edge13_Node000003_Node000005" class="edge">
<title>Node3&#45;&gt;Node5</title>
<g id="a_edge13_Node000003_Node000005"><a xlink:title=" ">
<path fill="none" stroke="#63b8ff" d="M540.93,-123.54C545.75,-106.83 558.22,-72.32 582.5,-56 629.97,-24.08 798.37,-14.71 878.08,-12.03"/>
<polygon fill="#63b8ff" stroke="#63b8ff" points="877.78,-15.54 887.66,-11.73 877.56,-8.55 877.78,-15.54"/>
</a>
</g>
</g>
<!-- Node6 -->
<g id="Node000006" class="node">
<title>Node6</title>
<g id="a_Node000006"><a xlink:title=" ">
<polygon fill="#e0e0e0" stroke="#999999" points="535.75,-82 491.25,-82 491.25,-62 535.75,-62 535.75,-82"/>
<text text-anchor="middle" x="513.5" y="-68.5" font-family="Helvetica,sans-Serif" font-size="10.00">climits</text>
</a>
</g>
</g>
<!-- Node3&#45;&gt;Node6 -->
<g id="edge5_Node000003_Node000006" class="edge">
<title>Node3&#45;&gt;Node6</title>
<g id="a_edge5_Node000003_Node000006"><a xlink:title=" ">
<path fill="none" stroke="#63b8ff" d="M534.59,-123.62C531.16,-115.39 526.05,-103.13 521.72,-92.74"/>
<polygon fill="#63b8ff" stroke="#63b8ff" points="524.96,-91.39 517.88,-83.51 518.49,-94.09 524.96,-91.39"/>
</a>
</g>
</g>
<!-- Node7 -->
<g id="Node000007" class="node">
<title>Node7</title>
<g id="a_Node000007"><a xlink:title=" ">
<polygon fill="#e0e0e0" stroke="#999999" points="639.62,-82 591.38,-82 591.38,-62 639.62,-62 639.62,-82"/>
<text text-anchor="middle" x="615.5" y="-68.5" font-family="Helvetica,sans-Serif" font-size="10.00">cstddef</text>
</a>
</g>
</g>
<!-- Node3&#45;&gt;Node7 -->
<g id="edge6_Node000003_Node000007" class="edge">
<title>Node3&#45;&gt;Node7</title>
<g id="a_edge6_Node000003_Node000007"><a xlink:title=" ">
<path fill="none" stroke="#63b8ff" d="M550.53,-123.62C562.28,-114.47 580.42,-100.34 594.54,-89.33"/>
<polygon fill="#63b8ff" stroke="#63b8ff" points="596.62,-92.15 602.36,-83.24 592.32,-86.63 596.62,-92.15"/>
</a>
</g>
</g>
<!-- Node8 -->
<g id="Node000008" class="node">
<title>Node8</title>
<g id="a_Node000008"><a xlink:title=" ">
<polygon fill="#e0e0e0" stroke="#999999" points="283.12,-20 237.88,-20 237.88,0 283.12,0 283.12,-20"/>
<text text-anchor="middle" x="260.5" y="-6.5" font-family="Helvetica,sans-Serif" font-size="10.00">cstdint</text>
</a>
</g>
</g>
<!-- Node3&#45;&gt;Node8 -->
<g id="edge7_Node000003_Node000008" class="edge">
<title>Node3&#45;&gt;Node8</title>
<g id="a_edge7_Node000003_Node000008"><a xlink:title=" ">
<path fill="none" stroke="#63b8ff" d="M526.85,-123.77C515.48,-114.73 497.72,-100.52 482.5,-88 465.45,-73.97 464.19,-66 444.5,-56 395.74,-31.24 332.68,-19.66 294.48,-14.58"/>
<polygon fill="#63b8ff" stroke="#63b8ff" points="295.33,-11.16 284.97,-13.4 294.46,-18.11 295.33,-11.16"/>
</a>
</g>
</g>
<!-- Node9 -->
<g id="Node000009" class="node">
<title>Node9</title>
<g id="a_Node000009"><a xlink:title=" ">
<polygon fill="#e0e0e0" stroke="#999999" points="892.25,-82 838.75,-82 838.75,-62 892.25,-62 892.25,-82"/>
<text text-anchor="middle" x="865.5" y="-68.5" font-family="Helvetica,sans-Serif" font-size="10.00">iostream</text>
</a>
</g>
</g>
<!-- Node3&#45;&gt;Node9 -->
<g id="edge8_Node000003_Node000009" class="edge">
<title>Node3&#45;&gt;Node9</title>
<g id="a_edge8_Node000003_Node000009"><a xlink:title=" ">
<path fill="none" stroke="#63b8ff" d="M575.86,-130.13C631.84,-125.17 740.42,-113.05 829.5,-88 831.29,-87.5 833.12,-86.93 834.94,-86.31"/>
<polygon fill="#63b8ff" stroke="#63b8ff" points="835.7,-89.77 843.83,-82.97 833.23,-83.22 835.7,-89.77"/>
</a>
</g>
</g>
<!-- Node10 -->
<g id="Node000010" class="node">
<title>Node10</title>
<g id="a_Node000010"><a xlink:title=" ">
<polygon fill="#e0e0e0" stroke="#999999" points="182.38,-82 132.62,-82 132.62,-62 182.38,-62 182.38,-82"/>
<text text-anchor="middle" x="157.5" y="-68.5" font-family="Helvetica,sans-Serif" font-size="10.00">optional</text>
</a>
</g>
</g>
<!-- Node3&#45;&gt;Node10 -->
<g id="edge9_Node000003_Node000010" class="edge">
<title>Node3&#45;&gt;Node10</title>
<g id="a_edge9_Node000003_Node000010"><a xlink:title=" ">
<path fill="none" stroke="#63b8ff" d="M500.88,-125.4C498.05,-124.9 495.23,-124.43 492.5,-124 359.41,-103.05 321.45,-123.58 191.5,-88 189.91,-87.56 188.29,-87.06 186.67,-86.52"/>
<polygon fill="#63b8ff" stroke="#63b8ff" points="188.2,-83.36 177.61,-82.98 185.65,-89.88 188.2,-83.36"/>
</a>
</g>
</g>
<!-- Node11 -->
<g id="Node000011" class="node">
<title>Node11</title>
<g id="a_Node000011"><a xlink:title=" ">
<polygon fill="#e0e0e0" stroke="#999999" points="258.88,-82 200.12,-82 200.12,-62 258.88,-62 258.88,-82"/>
<text text-anchor="middle" x="229.5" y="-68.5" font-family="Helvetica,sans-Serif" font-size="10.00">stdexcept</text>
</a>
</g>
</g>
<!-- Node3&#45;&gt;Node11 -->
<g id="edge10_Node000003_Node000011" class="edge">
<title>Node3&#45;&gt;Node11</title>
<g id="a_edge10_Node000003_Node000011"><a xlink:title=" ">
<path fill="none" stroke="#63b8ff" d="M500.86,-125.53C498.04,-125 495.22,-124.48 492.5,-124 392.79,-106.27 365.18,-114.75 267.5,-88 265.53,-87.46 263.53,-86.85 261.52,-86.2"/>
<polygon fill="#63b8ff" stroke="#63b8ff" points="262.95,-82.99 252.35,-82.91 260.58,-89.58 262.95,-82.99"/>
</a>
</g>
</g>
<!-- Node12 -->
<g id="Node000012" class="node">
<title>Node12</title>
<g id="a_Node000012"><a xlink:title=" ">
<polygon fill="#e0e0e0" stroke="#999999" points="316.5,-82 276.5,-82 276.5,-62 316.5,-62 316.5,-82"/>
<text text-anchor="middle" x="296.5" y="-68.5" font-family="Helvetica,sans-Serif" font-size="10.00">string</text>
</a>
</g>
</g>
<!-- Node3&#45;&gt;Node12 -->
<g id="edge11_Node000003_Node000012" class="edge">
<title>Node3&#45;&gt;Node12</title>
<g id="a_edge11_Node000003_Node000012"><a xlink:title=" ">
<path fill="none" stroke="#63b8ff" d="M500.86,-125.62C444.19,-114.42 341.83,-93.83 325.5,-88 324.7,-87.71 323.89,-87.41 323.08,-87.09"/>
<polygon fill="#63b8ff" stroke="#63b8ff" points="324.65,-83.96 314.09,-82.99 321.74,-90.33 324.65,-83.96"/>
</a>
</g>
</g>
<!-- Node13 -->
<g id="Node000013" class="node">
<title>Node13</title>
<g id="a_Node000013"><a xlink:title=" ">
<polygon fill="#e0e0e0" stroke="#999999" points="378,-82 335,-82 335,-62 378,-62 378,-82"/>
<text text-anchor="middle" x="356.5" y="-68.5" font-family="Helvetica,sans-Serif" font-size="10.00">thread</text>
</a>
</g>
</g>
<!-- Node3&#45;&gt;Node13 -->
<g id="edge12_Node000003_Node000013" class="edge">
<title>Node3&#45;&gt;Node13</title>
<g id="a_edge12_Node000003_Node000013"><a xlink:title=" ">
<path fill="none" stroke="#63b8ff" d="M501.03,-123.87C469.88,-115.82 424.65,-103.05 386.5,-88 385.73,-87.7 384.95,-87.38 384.17,-87.05"/>
<polygon fill="#63b8ff" stroke="#63b8ff" points="385.96,-84.02 375.41,-83.04 383.04,-90.39 385.96,-84.02"/>
</a>
</g>
</g>
<!-- Node14 -->
<g id="Node000014" class="node">
<title>Node14</title>
<g id="a_Node000014"><a xlink:title=" ">
<polygon fill="#e0e0e0" stroke="#999999" points="435.12,-82 395.88,-82 395.88,-62 435.12,-62 435.12,-82"/>
<text text-anchor="middle" x="415.5" y="-68.5" font-family="Helvetica,sans-Serif" font-size="10.00">utility</text>
</a>
</g>
</g>
<!-- Node3&#45;&gt;Node14 -->
<g id="edge14_Node000003_Node000014" class="edge">
<title>Node3&#45;&gt;Node14</title>
<g id="a_edge14_Node000003_Node000014"><a xlink:title=" ">
<path fill="none" stroke="#63b8ff" d="M519.28,-123.62C499.33,-113.89 467.88,-98.55 444.83,-87.31"/>
<polygon fill="#63b8ff" stroke="#63b8ff" points="446.47,-84.21 435.94,-82.97 443.4,-90.5 446.47,-84.21"/>
</a>
</g>
</g>
<!-- Node15 -->
<g id="Node000015" class="node">
<title>Node15</title>
<g id="a_Node000015"><a xlink:href="uint128__mod__helpers_8hpp.html" target="_top" xlink:title="Helpers y especializaciones para operaciones de módulo optimizadas en uint128_t.">
<polygon fill="white" stroke="#666666" points="115,-88 0,-88 0,-56 115,-56 115,-88"/>
<text text-anchor="start" x="8" y="-74.5" font-family="Helvetica,sans-Serif" font-size="10.00">specializations/uint128</text>
<text text-anchor="middle" x="57.5" y="-62.5" font-family="Helvetica,sans-Serif" font-size="10.00">_mod_helpers.hpp</text>
</a>
</g>
</g>
<!-- Node3&#45;&gt;Node15 -->
<g id="edge15_Node000003_Node000015" class="edge">
<title>Node3&#45;&gt;Node15</title>
<g id="a_edge15_Node000003_Node000015"><a xlink:title=" ">
<path fill="none" stroke="#63b8ff" d="M500.89,-125.34C498.06,-124.85 495.24,-124.4 492.5,-124 333.12,-100.69 288.17,-113.69 126.69,-88.39"/>
<polygon fill="#63b8ff" stroke="#63b8ff" points="127.29,-84.94 116.86,-86.82 126.19,-91.86 127.29,-84.94"/>
</a>
</g>
</g>
<!-- Node4&#45;&gt;Node5 -->
<g id="edge4_Node000004_Node000005" class="edge">
<title>Node4&#45;&gt;Node5</title>
<g id="a_edge4_Node000004_Node000005"><a xlink:title=" ">
<path fill="none" stroke="#63b8ff" d="M767.78,-61.62C798.37,-51.48 847.35,-35.25 881.57,-23.9"/>
<polygon fill="#63b8ff" stroke="#63b8ff" points="882.29,-27.35 890.68,-20.88 880.09,-20.71 882.29,-27.35"/>
</a>
</g>
</g>
<!-- Node15&#45;&gt;Node8 -->
<g id="edge16_Node000015_Node000008" class="edge">
<title>Node15&#45;&gt;Node8</title>
<g id="a_edge16_Node000015_Node000008"><a xlink:title=" ">
<path fill="none" stroke="#63b8ff" d="M109.78,-55.55C146.5,-44.69 194.57,-30.49 226.44,-21.07"/>
<polygon fill="#63b8ff" stroke="#63b8ff" points="227.34,-24.45 235.94,-18.26 225.36,-17.74 227.34,-24.45"/>
</a>
</g>
</g>
<!-- Node19&#45;&gt;Node3 -->
<g id="edge22_Node000019_Node000003" class="edge">
<title>Node19&#45;&gt;Node3</title>
<g id="a_edge22_Node000019_Node000003"><a xlink:title=" ">
<path fill="none" stroke="#63b8ff" d="M593.83,-179.59C584.22,-171.85 570.37,-160.69 558.93,-151.47"/>
<polygon fill="#63b8ff" stroke="#63b8ff" points="561.2,-148.8 551.22,-145.25 556.8,-154.25 561.2,-148.8"/>
</a>
</g>
</g>
<!-- Node19&#45;&gt;Node5 -->
<g id="edge24_Node000019_Node000005" class="edge">
<title>Node19&#45;&gt;Node5</title>
<g id="a_edge24_Node000019_Node000005"><a xlink:title=" ">
<path fill="none" stroke="#63b8ff" d="M661.56,-185.56C728.41,-178.39 838.94,-156.24 901.5,-88 915.51,-72.72 919.61,-48.78 920.61,-31.65"/>
<polygon fill="#63b8ff" stroke="#63b8ff" points="924.11,-31.97 920.86,-21.89 917.11,-31.8 924.11,-31.97"/>
</a>
</g>
</g>
<!-- Node20 -->
<g id="Node000020" class="node">
<title>Node20</title>
<g id="a_Node000020"><a xlink:title=" ">
<polygon fill="#e0e0e0" stroke="#999999" points="483.38,-144 427.62,-144 427.62,-124 483.38,-124 483.38,-144"/>
<text text-anchor="middle" x="455.5" y="-130.5" font-family="Helvetica,sans-Serif" font-size="10.00">concepts</text>
</a>
</g>
</g>
<!-- Node19&#45;&gt;Node20 -->
<g id="edge23_Node000019_Node000020" class="edge">
<title>Node19&#45;&gt;Node20</title>
<g id="a_edge23_Node000019_Node000020"><a xlink:title=" ">
<path fill="none" stroke="#63b8ff" d="M579.37,-179.59C555.32,-170.94 519.4,-158 492.42,-148.29"/>
<polygon fill="#63b8ff" stroke="#63b8ff" points="493.85,-145.09 483.26,-144.99 491.48,-151.67 493.85,-145.09"/>
</a>
</g>
</g>
</g>
</svg>

<g id="navigator" transform="translate(0 0)" fill="#404254">
  <rect fill="#f2f5e9" fill-opacity="0.5" stroke="#606060" stroke-width=".5" x="0" y="0" width="60" height="60"/>
  <use id="zoomplus" xlink:href="#zoomPlus" x="17" y="9" onmousedown="handleZoom(evt,'in')"/>
  <use id="zoomminus" xlink:href="#zoomMin" x="42" y="9" onmousedown="handleZoom(evt,'out')"/>
  <use id="reset" xlink:href="#resetDef" x="30" y="36" onmousedown="handleReset()"/>
   <use id="arrowup" xlink:href="#arrowUp" x="0" y="0" onmousedown="handlePan(0,-1)"/>
  <use id="arrowright" xlink:href="#arrowRight" x="0" y="0" onmousedown="handlePan(1,0)"/>
  <use id="arrowdown" xlink:href="#arrowDown" x="0" y="0" onmousedown="handlePan(0,1)"/>
  <use id="arrowleft" xlink:href="#arrowLeft" x="0" y="0" onmousedown="handlePan(-1,0)"/>
</g>
<svg viewBox="0 0 15 15" width="100%" height="30px" preserveAspectRatio="xMaxYMin meet">
 <g id="arrow_out" transform="scale(0.3 0.3)">
  <a xlink:href="uint128__algorithm_8hpp__incl_org.svg" target="_base">
   <rect id="button" ry="5" rx="5" y="6" x="6" height="38" width="38"
        fill="#f2f5e9" fill-opacity="0.5" stroke="#606060" stroke-width="1.0"/>
   <path id="arrow"
     d="M 11.500037,31.436501 C 11.940474,20.09759 22.043105,11.32322 32.158766,21.979434 L 37.068811,17.246167 C 37.068811,17.246167 37.088388,32 37.088388,32 L 22.160133,31.978069 C 22.160133,31.978069 26.997745,27.140456 26.997745,27.140456 C 18.528582,18.264221 13.291696,25.230495 11.500037,31.436501 z"
     style="fill:#404040;"/>
  </a>
 </g>
</svg>

<style type='text/css'>
<![CDATA[
[data-mouse-over-selected='false'] { opacity: 0.7; }
[data-mouse-over-selected='true']  { opacity: 1.0; }
]]>
</style>
<script type="application/ecmascript"><![CDATA[
document.addEventListener('DOMContentLoaded', (event) => {
  highlightEdges();
  highlightAdjacentNodes();
});
]]></script>
</svg>
