<?xml version="1.0" encoding="UTF-8" standalone="no"?>
<!DOCTYPE svg PUBLIC "-//W3C//DTD SVG 1.1//EN"
 "http://www.w3.org/Graphics/SVG/1.1/DTD/svg11.dtd">
<!-- Generated by graphviz version 12.2.1 (0)
 -->
<!-- Title: uint128/specializations/uint128_mod_helpers.hpp Pages: 1 -->
<svg width="3585pt" height="288pt"
 viewBox="0.00 0.00 3584.50 288.00" xmlns="http://www.w3.org/2000/svg" xmlns:xlink="http://www.w3.org/1999/xlink">
<g id="graph0" class="graph" transform="scale(1 1) rotate(0) translate(4 284)">
<title>uint128/specializations/uint128_mod_helpers.hpp</title>
<!-- Node1 -->
<g id="Node000001" class="node">
<title>Node1</title>
<g id="a_Node000001"><a xlink:title="Helpers y especializaciones para operaciones de módulo optimizadas en uint128_t.">
<polygon fill="#999999" stroke="#666666" points="2392.38,-280 2262.38,-280 2262.38,-248 2392.38,-248 2392.38,-280"/>
<text text-anchor="start" x="2270.38" y="-266.5" font-family="Helvetica,sans-Serif" font-size="10.00">uint128/specializations</text>
<text text-anchor="middle" x="2327.38" y="-254.5" font-family="Helvetica,sans-Serif" font-size="10.00">/uint128_mod_helpers.hpp</text>
</a>
</g>
</g>
<!-- Node2 -->
<g id="Node000002" class="node">
<title>Node2</title>
<g id="a_Node000002"><a xlink:href="uint128__t_8hpp.html" target="_top" xlink:title=" ">
<polygon fill="white" stroke="#666666" points="2381.88,-212 2272.88,-212 2272.88,-192 2381.88,-192 2381.88,-212"/>
<text text-anchor="middle" x="2327.38" y="-198.5" font-family="Helvetica,sans-Serif" font-size="10.00">uint128/uint128_t.hpp</text>
</a>
</g>
</g>
<!-- Node1&#45;&gt;Node2 -->
<g id="edge1_Node000001_Node000002" class="edge">
<title>Node1&#45;&gt;Node2</title>
<g id="a_edge1_Node000001_Node000002"><a xlink:title=" ">
<path fill="none" stroke="#63b8ff" d="M2327.38,-236.08C2327.38,-227.6 2327.38,-218.8 2327.38,-212.41"/>
<polygon fill="#63b8ff" stroke="#63b8ff" points="2323.88,-236.03 2327.38,-246.03 2330.88,-236.03 2323.88,-236.03"/>
</a>
</g>
</g>
<!-- Node3 -->
<g id="Node000003" class="node">
<title>Node3</title>
<g id="a_Node000003"><a xlink:href="int128_8hpp.html" target="_top" xlink:title="Header unificado para tipos enteros de 128 bits con balance óptimo.">
<polygon fill="white" stroke="#666666" points="1660.88,-20 1599.88,-20 1599.88,0 1660.88,0 1660.88,-20"/>
<text text-anchor="middle" x="1630.38" y="-6.5" font-family="Helvetica,sans-Serif" font-size="10.00">int128.hpp</text>
</a>
</g>
</g>
<!-- Node2&#45;&gt;Node3 -->
<g id="edge2_Node000002_Node000003" class="edge">
<title>Node2&#45;&gt;Node3</title>
<g id="a_edge2_Node000002_Node000003"><a xlink:title=" ">
<path fill="none" stroke="#63b8ff" d="M2261.57,-200.7C2119.05,-199.36 1791.93,-192.32 1758.38,-156 1727.92,-123.04 1798.89,-92.21 1772.38,-56 1747.02,-21.36 1694.84,-12.72 1661.28,-10.93"/>
<polygon fill="#63b8ff" stroke="#63b8ff" points="2261.19,-204.19 2271.22,-200.78 2261.25,-197.19 2261.19,-204.19"/>
</a>
</g>
</g>
<!-- Node4 -->
<g id="Node000004" class="node">
<title>Node4</title>
<g id="a_Node000004"><a xlink:href="int128__assign_8hpp.html" target="_top" xlink:title=" ">
<polygon fill="white" stroke="#666666" points="1621.38,-82 1497.38,-82 1497.38,-62 1621.38,-62 1621.38,-82"/>
<text text-anchor="middle" x="1559.38" y="-68.5" font-family="Helvetica,sans-Serif" font-size="10.00">int128/int128_assign.hpp</text>
</a>
</g>
</g>
<!-- Node2&#45;&gt;Node4 -->
<g id="edge3_Node000002_Node000004" class="edge">
<title>Node2&#45;&gt;Node4</title>
<g id="a_edge3_Node000002_Node000004"><a xlink:title=" ">
<path fill="none" stroke="#63b8ff" d="M2261.38,-200C2122.68,-197.28 1805.27,-187.7 1702.38,-156 1649.16,-139.6 1594.47,-100.39 1571.11,-82.36"/>
<polygon fill="#63b8ff" stroke="#63b8ff" points="2261.07,-203.49 2271.13,-200.18 2261.2,-196.49 2261.07,-203.49"/>
</a>
</g>
</g>
<!-- Node5 -->
<g id="Node000005" class="node">
<title>Node5</title>
<g id="a_Node000005"><a xlink:href="int128__factory_8hpp.html" target="_top" xlink:title=" ">
<polygon fill="white" stroke="#666666" points="1763.75,-82 1639,-82 1639,-62 1763.75,-62 1763.75,-82"/>
<text text-anchor="middle" x="1701.38" y="-68.5" font-family="Helvetica,sans-Serif" font-size="10.00">int128/int128_factory.hpp</text>
</a>
</g>
</g>
<!-- Node2&#45;&gt;Node5 -->
<g id="edge5_Node000002_Node000005" class="edge">
<title>Node2&#45;&gt;Node5</title>
<g id="a_edge5_Node000002_Node000005"><a xlink:title=" ">
<path fill="none" stroke="#63b8ff" d="M2261.38,-200.25C2113.68,-198 1766.24,-189.18 1725.38,-156 1702.9,-137.75 1700.67,-99.84 1700.94,-82.29"/>
<polygon fill="#63b8ff" stroke="#63b8ff" points="2260.94,-203.75 2270.99,-200.4 2261.04,-196.75 2260.94,-203.75"/>
</a>
</g>
</g>
<!-- Node6 -->
<g id="Node000006" class="node">
<title>Node6</title>
<g id="a_Node000006"><a xlink:href="int128__t_8hpp.html" target="_top" xlink:title=" ">
<polygon fill="white" stroke="#666666" points="968.62,-150 870.12,-150 870.12,-130 968.62,-130 968.62,-150"/>
<text text-anchor="middle" x="919.38" y="-136.5" font-family="Helvetica,sans-Serif" font-size="10.00">int128/int128_t.hpp</text>
</a>
</g>
</g>
<!-- Node2&#45;&gt;Node6 -->
<g id="edge7_Node000002_Node000006" class="edge">
<title>Node2&#45;&gt;Node6</title>
<g id="a_edge7_Node000002_Node000006"><a xlink:title=" ">
<path fill="none" stroke="#63b8ff" d="M2261.18,-198.18C2018.7,-187.85 1182.07,-152.19 969.04,-143.12"/>
<polygon fill="#63b8ff" stroke="#63b8ff" points="2260.96,-201.67 2271.1,-198.6 2261.26,-194.68 2260.96,-201.67"/>
</a>
</g>
</g>
<!-- Node19 -->
<g id="Node000019" class="node">
<title>Node19</title>
<g id="a_Node000019"><a xlink:href="uint128__algorithm_8hpp.html" target="_top" xlink:title=" ">
<polygon fill="white" stroke="#666666" points="2147.25,-82 2001.5,-82 2001.5,-62 2147.25,-62 2147.25,-82"/>
<text text-anchor="middle" x="2074.38" y="-68.5" font-family="Helvetica,sans-Serif" font-size="10.00">uint128/uint128_algorithm.hpp</text>
</a>
</g>
</g>
<!-- Node2&#45;&gt;Node19 -->
<g id="edge28_Node000002_Node000019" class="edge">
<title>Node2&#45;&gt;Node19</title>
<g id="a_edge28_Node000002_Node000019"><a xlink:title=" ">
<path fill="none" stroke="#63b8ff" d="M2261.16,-196.25C2200.58,-190.53 2116.9,-178.71 2093.38,-156 2072.96,-136.29 2072.48,-99.46 2073.52,-82.27"/>
<polygon fill="#63b8ff" stroke="#63b8ff" points="2260.79,-199.73 2271.06,-197.15 2261.42,-192.76 2260.79,-199.73"/>
</a>
</g>
</g>
<!-- Node20 -->
<g id="Node000020" class="node">
<title>Node20</title>
<g id="a_Node000020"><a xlink:href="uint128__bits_8hpp.html" target="_top" xlink:title=" ">
<polygon fill="white" stroke="#666666" points="2388.25,-150 2266.5,-150 2266.5,-130 2388.25,-130 2388.25,-150"/>
<text text-anchor="middle" x="2327.38" y="-136.5" font-family="Helvetica,sans-Serif" font-size="10.00">uint128/uint128_bits.hpp</text>
</a>
</g>
</g>
<!-- Node2&#45;&gt;Node20 -->
<g id="edge29_Node000002_Node000020" class="edge">
<title>Node2&#45;&gt;Node20</title>
<g id="a_edge29_Node000002_Node000020"><a xlink:title=" ">
<path fill="none" stroke="#63b8ff" d="M2327.38,-180.25C2327.38,-169.97 2327.38,-158.09 2327.38,-150.11"/>
<polygon fill="#63b8ff" stroke="#63b8ff" points="2323.88,-180.11 2327.38,-190.11 2330.88,-180.11 2323.88,-180.11"/>
</a>
</g>
</g>
<!-- Node21 -->
<g id="Node000021" class="node">
<title>Node21</title>
<g id="a_Node000021"><a xlink:href="uint128__cmath_8hpp.html" target="_top" xlink:title=" ">
<polygon fill="white" stroke="#666666" points="2045.88,-150 1912.88,-150 1912.88,-130 2045.88,-130 2045.88,-150"/>
<text text-anchor="middle" x="1979.38" y="-136.5" font-family="Helvetica,sans-Serif" font-size="10.00">uint128/uint128_cmath.hpp</text>
</a>
</g>
</g>
<!-- Node2&#45;&gt;Node21 -->
<g id="edge30_Node000002_Node000021" class="edge">
<title>Node2&#45;&gt;Node21</title>
<g id="a_edge30_Node000002_Node000021"><a xlink:title=" ">
<path fill="none" stroke="#63b8ff" d="M2261.46,-190.19C2207.39,-181.26 2128.87,-168.11 2060.38,-156 2050.52,-154.26 2039.99,-152.35 2029.91,-150.49"/>
<polygon fill="#63b8ff" stroke="#63b8ff" points="2260.69,-193.61 2271.12,-191.79 2261.83,-186.71 2260.69,-193.61"/>
</a>
</g>
</g>
<!-- Node22 -->
<g id="Node000022" class="node">
<title>Node22</title>
<g id="a_Node000022"><a xlink:href="uint128__concepts_8hpp.html" target="_top" xlink:title=" ">
<polygon fill="white" stroke="#666666" points="2248.25,-150 2102.5,-150 2102.5,-130 2248.25,-130 2248.25,-150"/>
<text text-anchor="middle" x="2175.38" y="-136.5" font-family="Helvetica,sans-Serif" font-size="10.00">uint128/uint128_concepts.hpp</text>
</a>
</g>
</g>
<!-- Node2&#45;&gt;Node22 -->
<g id="edge33_Node000002_Node000022" class="edge">
<title>Node2&#45;&gt;Node22</title>
<g id="a_edge33_Node000002_Node000022"><a xlink:title=" ">
<path fill="none" stroke="#63b8ff" d="M2293.27,-187.54C2264.65,-176.24 2224.49,-160.39 2199.21,-150.41"/>
<polygon fill="#63b8ff" stroke="#63b8ff" points="2291.63,-190.65 2302.22,-191.07 2294.2,-184.14 2291.63,-190.65"/>
</a>
</g>
</g>
<!-- Node23 -->
<g id="Node000023" class="node">
<title>Node23</title>
<g id="a_Node000023"><a xlink:href="uint128__format_8hpp.html" target="_top" xlink:title=" ">
<polygon fill="white" stroke="#666666" points="2540.25,-150 2406.5,-150 2406.5,-130 2540.25,-130 2540.25,-150"/>
<text text-anchor="middle" x="2473.38" y="-136.5" font-family="Helvetica,sans-Serif" font-size="10.00">uint128/uint128_format.hpp</text>
</a>
</g>
</g>
<!-- Node2&#45;&gt;Node23 -->
<g id="edge35_Node000002_Node000023" class="edge">
<title>Node2&#45;&gt;Node23</title>
<g id="a_edge35_Node000002_Node000023"><a xlink:title=" ">
<path fill="none" stroke="#63b8ff" d="M2360.53,-187.38C2388.09,-176.05 2426.57,-160.23 2450.72,-150.31"/>
<polygon fill="#63b8ff" stroke="#63b8ff" points="2359.51,-184.01 2351.59,-191.05 2362.17,-190.49 2359.51,-184.01"/>
</a>
</g>
</g>
<!-- Node24 -->
<g id="Node000024" class="node">
<title>Node24</title>
<g id="a_Node000024"><a xlink:href="uint128__iostreams_8hpp.html" target="_top" xlink:title=" ">
<polygon fill="white" stroke="#666666" points="2706.75,-150 2558,-150 2558,-130 2706.75,-130 2706.75,-150"/>
<text text-anchor="middle" x="2632.38" y="-136.5" font-family="Helvetica,sans-Serif" font-size="10.00">uint128/uint128_iostreams.hpp</text>
</a>
</g>
</g>
<!-- Node2&#45;&gt;Node24 -->
<g id="edge36_Node000002_Node000024" class="edge">
<title>Node2&#45;&gt;Node24</title>
<g id="a_edge36_Node000002_Node000024"><a xlink:title=" ">
<path fill="none" stroke="#63b8ff" d="M2386.48,-189.37C2444.09,-178.04 2530.6,-161.02 2584.16,-150.48"/>
<polygon fill="#63b8ff" stroke="#63b8ff" points="2385.99,-185.9 2376.85,-191.27 2387.34,-192.77 2385.99,-185.9"/>
</a>
</g>
</g>
<!-- Node25 -->
<g id="Node000025" class="node">
<title>Node25</title>
<g id="a_Node000025"><a xlink:href="uint128__limits_8hpp.html" target="_top" xlink:title=" ">
<polygon fill="white" stroke="#666666" points="2854,-150 2724.75,-150 2724.75,-130 2854,-130 2854,-150"/>
<text text-anchor="middle" x="2789.38" y="-136.5" font-family="Helvetica,sans-Serif" font-size="10.00">uint128/uint128_limits.hpp</text>
</a>
</g>
</g>
<!-- Node2&#45;&gt;Node25 -->
<g id="edge37_Node000002_Node000025" class="edge">
<title>Node2&#45;&gt;Node25</title>
<g id="a_edge37_Node000002_Node000025"><a xlink:title=" ">
<path fill="none" stroke="#63b8ff" d="M2393.2,-195.08C2470.57,-187.72 2602.71,-173.92 2715.38,-156 2725.21,-154.44 2735.73,-152.48 2745.66,-150.5"/>
<polygon fill="#63b8ff" stroke="#63b8ff" points="2393.33,-191.55 2383.7,-195.97 2393.98,-198.52 2393.33,-191.55"/>
</a>
</g>
</g>
<!-- Node26 -->
<g id="Node000026" class="node">
<title>Node26</title>
<g id="a_Node000026"><a xlink:href="uint128__numeric_8hpp.html" target="_top" xlink:title=" ">
<polygon fill="white" stroke="#666666" points="3012.62,-150 2872.12,-150 2872.12,-130 3012.62,-130 3012.62,-150"/>
<text text-anchor="middle" x="2942.38" y="-136.5" font-family="Helvetica,sans-Serif" font-size="10.00">uint128/uint128_numeric.hpp</text>
</a>
</g>
</g>
<!-- Node2&#45;&gt;Node26 -->
<g id="edge38_Node000002_Node000026" class="edge">
<title>Node2&#45;&gt;Node26</title>
<g id="a_edge38_Node000002_Node000026"><a xlink:title=" ">
<path fill="none" stroke="#63b8ff" d="M2393.65,-197.66C2495.14,-192.03 2694.99,-178.99 2863.38,-156 2874.3,-154.51 2886.01,-152.51 2896.97,-150.46"/>
<polygon fill="#63b8ff" stroke="#63b8ff" points="2393.67,-194.15 2383.88,-198.19 2394.05,-201.14 2393.67,-194.15"/>
</a>
</g>
</g>
<!-- Node27 -->
<g id="Node000027" class="node">
<title>Node27</title>
<g id="a_Node000027"><a xlink:href="uint128__ranges_8hpp.html" target="_top" xlink:title=" ">
<polygon fill="white" stroke="#666666" points="3166,-150 3030.75,-150 3030.75,-130 3166,-130 3166,-150"/>
<text text-anchor="middle" x="3098.38" y="-136.5" font-family="Helvetica,sans-Serif" font-size="10.00">uint128/uint128_ranges.hpp</text>
</a>
</g>
</g>
<!-- Node2&#45;&gt;Node27 -->
<g id="edge39_Node000002_Node000027" class="edge">
<title>Node2&#45;&gt;Node27</title>
<g id="a_edge39_Node000002_Node000027"><a xlink:title=" ">
<path fill="none" stroke="#63b8ff" d="M2393.54,-199.52C2517.28,-196.13 2791.98,-185.66 3021.38,-156 3032.32,-154.59 3044.04,-152.56 3054.96,-150.46"/>
<polygon fill="#63b8ff" stroke="#63b8ff" points="2393.45,-196.02 2383.55,-199.79 2393.64,-203.02 2393.45,-196.02"/>
</a>
</g>
</g>
<!-- Node28 -->
<g id="Node000028" class="node">
<title>Node28</title>
<g id="a_Node000028"><a xlink:href="uint128__ranges__clean_8hpp.html" target="_top" xlink:title=" ">
<polygon fill="white" stroke="#666666" points="3300.62,-156 3184.12,-156 3184.12,-124 3300.62,-124 3300.62,-156"/>
<text text-anchor="start" x="3192.12" y="-142.5" font-family="Helvetica,sans-Serif" font-size="10.00">uint128/uint128_ranges</text>
<text text-anchor="middle" x="3242.38" y="-130.5" font-family="Helvetica,sans-Serif" font-size="10.00">_clean.hpp</text>
</a>
</g>
</g>
<!-- Node2&#45;&gt;Node28 -->
<g id="edge40_Node000002_Node000028" class="edge">
<title>Node2&#45;&gt;Node28</title>
<g id="a_edge40_Node000002_Node000028"><a xlink:title=" ">
<path fill="none" stroke="#63b8ff" d="M2393.41,-201.24C2536.58,-200.94 2885.99,-195.79 3175.38,-156 3178.09,-155.63 3180.86,-155.2 3183.65,-154.73"/>
<polygon fill="#63b8ff" stroke="#63b8ff" points="2393.75,-197.74 2383.75,-201.25 2393.76,-204.74 2393.75,-197.74"/>
</a>
</g>
</g>
<!-- Node29 -->
<g id="Node000029" class="node">
<title>Node29</title>
<g id="a_Node000029"><a xlink:href="uint128__safe_8hpp.html" target="_top" xlink:title=" ">
<polygon fill="white" stroke="#666666" points="3443.75,-150 3319,-150 3319,-130 3443.75,-130 3443.75,-150"/>
<text text-anchor="middle" x="3381.38" y="-136.5" font-family="Helvetica,sans-Serif" font-size="10.00">uint128/uint128_safe.hpp</text>
</a>
</g>
</g>
<!-- Node2&#45;&gt;Node29 -->
<g id="edge41_Node000002_Node000029" class="edge">
<title>Node2&#45;&gt;Node29</title>
<g id="a_edge41_Node000002_Node000029"><a xlink:title=" ">
<path fill="none" stroke="#63b8ff" d="M2393.63,-201.6C2552.39,-202.25 2966.82,-199.25 3309.38,-156 3319.89,-154.67 3331.15,-152.63 3341.58,-150.47"/>
<polygon fill="#63b8ff" stroke="#63b8ff" points="2393.73,-198.1 2383.71,-201.55 2393.69,-205.1 2393.73,-198.1"/>
</a>
</g>
</g>
<!-- Node30 -->
<g id="Node000030" class="node">
<title>Node30</title>
<g id="a_Node000030"><a xlink:href="uint128__thread__safety_8hpp.html" target="_top" xlink:title="Thread&#45;safe wrappers for uint128_t.">
<polygon fill="white" stroke="#666666" points="3576.5,-156 3462.25,-156 3462.25,-124 3576.5,-124 3576.5,-156"/>
<text text-anchor="start" x="3470.25" y="-142.5" font-family="Helvetica,sans-Serif" font-size="10.00">uint128/uint128_thread</text>
<text text-anchor="middle" x="3519.38" y="-130.5" font-family="Helvetica,sans-Serif" font-size="10.00">_safety.hpp</text>
</a>
</g>
</g>
<!-- Node2&#45;&gt;Node30 -->
<g id="edge42_Node000002_Node000030" class="edge">
<title>Node2&#45;&gt;Node30</title>
<g id="a_edge42_Node000002_Node000030"><a xlink:title=" ">
<path fill="none" stroke="#63b8ff" d="M2393.46,-199.92C2602.16,-196.27 3245.63,-183.05 3452.38,-156 3455.57,-155.58 3458.83,-155.09 3462.11,-154.53"/>
<polygon fill="#63b8ff" stroke="#63b8ff" points="2393.54,-196.42 2383.6,-200.09 2393.66,-203.42 2393.54,-196.42"/>
</a>
</g>
</g>
<!-- Node31 -->
<g id="Node000031" class="node">
<title>Node31</title>
<g id="a_Node000031"><a xlink:href="uint128__traits_8hpp.html" target="_top" xlink:title=" ">
<polygon fill="white" stroke="#666666" points="1895.25,-150 1767.5,-150 1767.5,-130 1895.25,-130 1895.25,-150"/>
<text text-anchor="middle" x="1831.38" y="-136.5" font-family="Helvetica,sans-Serif" font-size="10.00">uint128/uint128_traits.hpp</text>
</a>
</g>
</g>
<!-- Node2&#45;&gt;Node31 -->
<g id="edge43_Node000002_Node000031" class="edge">
<title>Node2&#45;&gt;Node31</title>
<g id="a_edge43_Node000002_Node000031"><a xlink:title=" ">
<path fill="none" stroke="#63b8ff" d="M2261.05,-195.94C2177.55,-189.11 2029.83,-175.52 1904.38,-156 1894.53,-154.47 1884,-152.5 1874.1,-150.5"/>
<polygon fill="#63b8ff" stroke="#63b8ff" points="2260.64,-199.42 2270.89,-196.74 2261.2,-192.44 2260.64,-199.42"/>
</a>
</g>
</g>
<!-- Node4&#45;&gt;Node3 -->
<g id="edge4_Node000004_Node000003" class="edge">
<title>Node4&#45;&gt;Node3</title>
<g id="a_edge4_Node000004_Node000003"><a xlink:title=" ">
<path fill="none" stroke="#63b8ff" d="M1579.23,-54.22C1592.3,-43.18 1608.91,-29.14 1619.59,-20.11"/>
<polygon fill="#63b8ff" stroke="#63b8ff" points="1577,-51.52 1571.62,-60.65 1581.52,-56.87 1577,-51.52"/>
</a>
</g>
</g>
<!-- Node5&#45;&gt;Node3 -->
<g id="edge6_Node000005_Node000003" class="edge">
<title>Node5&#45;&gt;Node3</title>
<g id="a_edge6_Node000005_Node000003"><a xlink:title=" ">
<path fill="none" stroke="#63b8ff" d="M1681.52,-54.22C1668.45,-43.18 1651.84,-29.14 1641.16,-20.11"/>
<polygon fill="#63b8ff" stroke="#63b8ff" points="1679.23,-56.87 1689.13,-60.65 1683.75,-51.52 1679.23,-56.87"/>
</a>
</g>
</g>
<!-- Node6&#45;&gt;Node3 -->
<g id="edge8_Node000006_Node000003" class="edge">
<title>Node6&#45;&gt;Node3</title>
<g id="a_edge8_Node000006_Node000003"><a xlink:title=" ">
<path fill="none" stroke="#63b8ff" d="M980.19,-135.34C1075.65,-128.91 1255.83,-113.74 1314.38,-88 1334.59,-79.11 1332.31,-65.21 1352.38,-56 1435.92,-17.67 1546.68,-11.37 1599.63,-10.72"/>
<polygon fill="#63b8ff" stroke="#63b8ff" points="980.24,-131.83 970.49,-135.99 980.7,-138.82 980.24,-131.83"/>
</a>
</g>
</g>
<!-- Node6&#45;&gt;Node4 -->
<g id="edge10_Node000006_Node000004" class="edge">
<title>Node6&#45;&gt;Node4</title>
<g id="a_edge10_Node000006_Node000004"><a xlink:title=" ">
<path fill="none" stroke="#63b8ff" d="M980.33,-135.92C1084.78,-130.11 1304.49,-115.57 1488.38,-88 1498.22,-86.52 1508.75,-84.53 1518.6,-82.48"/>
<polygon fill="#63b8ff" stroke="#63b8ff" points="980.39,-132.41 970.59,-136.45 980.77,-139.4 980.39,-132.41"/>
</a>
</g>
</g>
<!-- Node6&#45;&gt;Node5 -->
<g id="edge17_Node000006_Node000005" class="edge">
<title>Node6&#45;&gt;Node5</title>
<g id="a_edge17_Node000006_Node000005"><a xlink:title=" ">
<path fill="none" stroke="#63b8ff" d="M980.16,-137.44C1103.36,-133.65 1391.16,-121.69 1630.38,-88 1640.48,-86.58 1651.3,-84.55 1661.37,-82.45"/>
<polygon fill="#63b8ff" stroke="#63b8ff" points="980.16,-133.94 970.27,-137.73 980.37,-140.93 980.16,-133.94"/>
</a>
</g>
</g>
<!-- Node7 -->
<g id="Node000007" class="node">
<title>Node7</title>
<g id="a_Node000007"><a xlink:href="int128__algorithm_8hpp.html" target="_top" xlink:title=" ">
<polygon fill="white" stroke="#666666" points="1035,-20 899.75,-20 899.75,0 1035,0 1035,-20"/>
<text text-anchor="middle" x="967.38" y="-6.5" font-family="Helvetica,sans-Serif" font-size="10.00">int128/int128_algorithm.hpp</text>
</a>
</g>
</g>
<!-- Node6&#45;&gt;Node7 -->
<g id="edge9_Node000006_Node000007" class="edge">
<title>Node6&#45;&gt;Node7</title>
<g id="a_edge9_Node000006_Node000007"><a xlink:title=" ">
<path fill="none" stroke="#63b8ff" d="M904.21,-120.46C891.94,-103.06 878.5,-76.7 890.38,-56 900.32,-38.68 919.79,-27.38 936.67,-20.45"/>
<polygon fill="#63b8ff" stroke="#63b8ff" points="901.35,-122.49 910.18,-128.35 906.93,-118.26 901.35,-122.49"/>
</a>
</g>
</g>
<!-- Node8 -->
<g id="Node000008" class="node">
<title>Node8</title>
<g id="a_Node000008"><a xlink:href="int128__bits_8hpp.html" target="_top" xlink:title=" ">
<polygon fill="white" stroke="#666666" points="1305,-82 1193.75,-82 1193.75,-62 1305,-62 1305,-82"/>
<text text-anchor="middle" x="1249.38" y="-68.5" font-family="Helvetica,sans-Serif" font-size="10.00">int128/int128_bits.hpp</text>
</a>
</g>
</g>
<!-- Node6&#45;&gt;Node8 -->
<g id="edge11_Node000006_Node000008" class="edge">
<title>Node6&#45;&gt;Node8</title>
<g id="a_edge11_Node000006_Node000008"><a xlink:title=" ">
<path fill="none" stroke="#63b8ff" d="M979.87,-128.01C1033.66,-118.08 1114.41,-102.8 1184.38,-88 1192.53,-86.27 1201.24,-84.33 1209.55,-82.43"/>
<polygon fill="#63b8ff" stroke="#63b8ff" points="979.5,-124.52 970.3,-129.77 980.77,-131.4 979.5,-124.52"/>
</a>
</g>
</g>
<!-- Node9 -->
<g id="Node000009" class="node">
<title>Node9</title>
<g id="a_Node000009"><a xlink:href="int128__cmath_8hpp.html" target="_top" xlink:title=" ">
<polygon fill="white" stroke="#666666" points="1175.62,-82 1053.12,-82 1053.12,-62 1175.62,-62 1175.62,-82"/>
<text text-anchor="middle" x="1114.38" y="-68.5" font-family="Helvetica,sans-Serif" font-size="10.00">int128/int128_cmath.hpp</text>
</a>
</g>
</g>
<!-- Node6&#45;&gt;Node9 -->
<g id="edge12_Node000006_Node000009" class="edge">
<title>Node6&#45;&gt;Node9</title>
<g id="a_edge12_Node000006_Node000009"><a xlink:title=" ">
<path fill="none" stroke="#63b8ff" d="M957.94,-125.95C995.85,-113.12 1052.77,-93.85 1086.49,-82.44"/>
<polygon fill="#63b8ff" stroke="#63b8ff" points="957.1,-122.54 948.75,-129.06 959.34,-129.17 957.1,-122.54"/>
</a>
</g>
</g>
<!-- Node10 -->
<g id="Node000010" class="node">
<title>Node10</title>
<g id="a_Node000010"><a xlink:href="int128__concepts_8hpp.html" target="_top" xlink:title=" ">
<polygon fill="white" stroke="#666666" points="1035,-82 899.75,-82 899.75,-62 1035,-62 1035,-82"/>
<text text-anchor="middle" x="967.38" y="-68.5" font-family="Helvetica,sans-Serif" font-size="10.00">int128/int128_concepts.hpp</text>
</a>
</g>
</g>
<!-- Node6&#45;&gt;Node10 -->
<g id="edge15_Node000006_Node000010" class="edge">
<title>Node6&#45;&gt;Node10</title>
<g id="a_edge15_Node000006_Node000010"><a xlink:title=" ">
<path fill="none" stroke="#63b8ff" d="M932.82,-120.52C941.83,-108.13 953.32,-92.33 960.51,-82.44"/>
<polygon fill="#63b8ff" stroke="#63b8ff" points="930.19,-118.17 927.14,-128.32 935.85,-122.29 930.19,-118.17"/>
</a>
</g>
</g>
<!-- Node11 -->
<g id="Node000011" class="node">
<title>Node11</title>
<g id="a_Node000011"><a xlink:href="int128__format_8hpp.html" target="_top" xlink:title=" ">
<polygon fill="white" stroke="#666666" points="843,-82 719.75,-82 719.75,-62 843,-62 843,-82"/>
<text text-anchor="middle" x="781.38" y="-68.5" font-family="Helvetica,sans-Serif" font-size="10.00">int128/int128_format.hpp</text>
</a>
</g>
</g>
<!-- Node6&#45;&gt;Node11 -->
<g id="edge18_Node000006_Node000011" class="edge">
<title>Node6&#45;&gt;Node11</title>
<g id="a_edge18_Node000006_Node000011"><a xlink:title=" ">
<path fill="none" stroke="#63b8ff" d="M889.27,-124.6C862.51,-111.8 824.15,-93.46 801.11,-82.44"/>
<polygon fill="#63b8ff" stroke="#63b8ff" points="887.71,-127.73 898.24,-128.89 890.73,-121.42 887.71,-127.73"/>
</a>
</g>
</g>
<!-- Node12 -->
<g id="Node000012" class="node">
<title>Node12</title>
<g id="a_Node000012"><a xlink:href="int128__iostreams_8hpp.html" target="_top" xlink:title=" ">
<polygon fill="white" stroke="#666666" points="805.5,-20 667.25,-20 667.25,0 805.5,0 805.5,-20"/>
<text text-anchor="middle" x="736.38" y="-6.5" font-family="Helvetica,sans-Serif" font-size="10.00">int128/int128_iostreams.hpp</text>
</a>
</g>
</g>
<!-- Node6&#45;&gt;Node12 -->
<g id="edge20_Node000006_Node000012" class="edge">
<title>Node6&#45;&gt;Node12</title>
<g id="a_edge20_Node000006_Node000012"><a xlink:title=" ">
<path fill="none" stroke="#63b8ff" d="M858.23,-132.41C803.28,-125.07 728.52,-111.1 710.38,-88 694.17,-67.36 715.24,-36.06 727.97,-20.49"/>
<polygon fill="#63b8ff" stroke="#63b8ff" points="857.76,-135.88 868.13,-133.68 858.65,-128.93 857.76,-135.88"/>
</a>
</g>
</g>
<!-- Node13 -->
<g id="Node000013" class="node">
<title>Node13</title>
<g id="a_Node000013"><a xlink:href="int128__limits_8hpp.html" target="_top" xlink:title=" ">
<polygon fill="white" stroke="#666666" points="118.75,-82 0,-82 0,-62 118.75,-62 118.75,-82"/>
<text text-anchor="middle" x="59.38" y="-68.5" font-family="Helvetica,sans-Serif" font-size="10.00">int128/int128_limits.hpp</text>
</a>
</g>
</g>
<!-- Node6&#45;&gt;Node13 -->
<g id="edge21_Node000006_Node000013" class="edge">
<title>Node6&#45;&gt;Node13</title>
<g id="a_edge21_Node000006_Node000013"><a xlink:title=" ">
<path fill="none" stroke="#63b8ff" d="M858.86,-138.25C725.89,-135.91 398.46,-126.4 127.38,-88 117.56,-86.61 107.06,-84.57 97.31,-82.44"/>
<polygon fill="#63b8ff" stroke="#63b8ff" points="858.42,-141.74 868.47,-138.41 858.53,-134.74 858.42,-141.74"/>
</a>
</g>
</g>
<!-- Node14 -->
<g id="Node000014" class="node">
<title>Node14</title>
<g id="a_Node000014"><a xlink:href="int128__numeric_8hpp.html" target="_top" xlink:title=" ">
<polygon fill="white" stroke="#666666" points="266.38,-82 136.38,-82 136.38,-62 266.38,-62 266.38,-82"/>
<text text-anchor="middle" x="201.38" y="-68.5" font-family="Helvetica,sans-Serif" font-size="10.00">int128/int128_numeric.hpp</text>
</a>
</g>
</g>
<!-- Node6&#45;&gt;Node14 -->
<g id="edge22_Node000006_Node000014" class="edge">
<title>Node6&#45;&gt;Node14</title>
<g id="a_edge22_Node000006_Node000014"><a xlink:title=" ">
<path fill="none" stroke="#63b8ff" d="M858.57,-136.64C744.01,-131.65 488.52,-117.93 275.38,-88 264.99,-86.54 253.87,-84.53 243.49,-82.45"/>
<polygon fill="#63b8ff" stroke="#63b8ff" points="858.22,-140.13 868.36,-137.06 858.52,-133.13 858.22,-140.13"/>
</a>
</g>
</g>
<!-- Node15 -->
<g id="Node000015" class="node">
<title>Node15</title>
<g id="a_Node000015"><a xlink:href="int128__ranges_8hpp.html" target="_top" xlink:title=" ">
<polygon fill="white" stroke="#666666" points="408.75,-82 284,-82 284,-62 408.75,-62 408.75,-82"/>
<text text-anchor="middle" x="346.38" y="-68.5" font-family="Helvetica,sans-Serif" font-size="10.00">int128/int128_ranges.hpp</text>
</a>
</g>
</g>
<!-- Node6&#45;&gt;Node15 -->
<g id="edge23_Node000006_Node000015" class="edge">
<title>Node6&#45;&gt;Node15</title>
<g id="a_edge23_Node000006_Node000015"><a xlink:title=" ">
<path fill="none" stroke="#63b8ff" d="M858.39,-134.85C763.81,-127.94 576.17,-112.4 418.38,-88 408.53,-86.48 398,-84.49 388.12,-82.46"/>
<polygon fill="#63b8ff" stroke="#63b8ff" points="858,-138.33 868.23,-135.56 858.5,-131.35 858,-138.33"/>
</a>
</g>
</g>
<!-- Node16 -->
<g id="Node000016" class="node">
<title>Node16</title>
<g id="a_Node000016"><a xlink:href="int128__safe_8hpp.html" target="_top" xlink:title=" ">
<polygon fill="white" stroke="#666666" points="541.5,-82 427.25,-82 427.25,-62 541.5,-62 541.5,-82"/>
<text text-anchor="middle" x="484.38" y="-68.5" font-family="Helvetica,sans-Serif" font-size="10.00">int128/int128_safe.hpp</text>
</a>
</g>
</g>
<!-- Node6&#45;&gt;Node16 -->
<g id="edge24_Node000006_Node000016" class="edge">
<title>Node6&#45;&gt;Node16</title>
<g id="a_edge24_Node000006_Node000016"><a xlink:title=" ">
<path fill="none" stroke="#63b8ff" d="M858.62,-132.23C785.27,-123.68 658.32,-107.69 550.38,-88 541.59,-86.4 532.2,-84.42 523.35,-82.44"/>
<polygon fill="#63b8ff" stroke="#63b8ff" points="858.08,-135.69 868.42,-133.36 858.88,-128.74 858.08,-135.69"/>
</a>
</g>
</g>
<!-- Node17 -->
<g id="Node000017" class="node">
<title>Node17</title>
<g id="a_Node000017"><a xlink:href="int128__thread__safety_8hpp.html" target="_top" xlink:title="Thread&#45;safe wrappers for int128_t.">
<polygon fill="white" stroke="#666666" points="663.25,-88 559.5,-88 559.5,-56 663.25,-56 663.25,-88"/>
<text text-anchor="start" x="567.5" y="-74.5" font-family="Helvetica,sans-Serif" font-size="10.00">int128/int128_thread</text>
<text text-anchor="middle" x="611.38" y="-62.5" font-family="Helvetica,sans-Serif" font-size="10.00">_safety.hpp</text>
</a>
</g>
</g>
<!-- Node6&#45;&gt;Node17 -->
<g id="edge25_Node000006_Node000017" class="edge">
<title>Node6&#45;&gt;Node17</title>
<g id="a_edge25_Node000006_Node000017"><a xlink:title=" ">
<path fill="none" stroke="#63b8ff" d="M862.36,-127.25C813.29,-117.07 740.61,-101.85 677.38,-88 672.9,-87.02 668.25,-85.99 663.6,-84.95"/>
<polygon fill="#63b8ff" stroke="#63b8ff" points="861.4,-130.62 871.9,-129.23 862.82,-123.77 861.4,-130.62"/>
</a>
</g>
</g>
<!-- Node18 -->
<g id="Node000018" class="node">
<title>Node18</title>
<g id="a_Node000018"><a xlink:href="int128__traits_8hpp.html" target="_top" xlink:title=" ">
<polygon fill="white" stroke="#666666" points="1479,-82 1361.75,-82 1361.75,-62 1479,-62 1479,-82"/>
<text text-anchor="middle" x="1420.38" y="-68.5" font-family="Helvetica,sans-Serif" font-size="10.00">int128/int128_traits.hpp</text>
</a>
</g>
</g>
<!-- Node6&#45;&gt;Node18 -->
<g id="edge26_Node000006_Node000018" class="edge">
<title>Node6&#45;&gt;Node18</title>
<g id="a_edge26_Node000006_Node000018"><a xlink:title=" ">
<path fill="none" stroke="#63b8ff" d="M980.25,-133.37C1063.45,-125.31 1217.21,-109.09 1347.38,-88 1357.08,-86.43 1367.46,-84.47 1377.25,-82.49"/>
<polygon fill="#63b8ff" stroke="#63b8ff" points="980.12,-129.87 970.5,-134.31 980.79,-136.84 980.12,-129.87"/>
</a>
</g>
</g>
<!-- Node9&#45;&gt;Node3 -->
<g id="edge13_Node000009_Node000003" class="edge">
<title>Node9&#45;&gt;Node3</title>
<g id="a_edge13_Node000009_Node000003"><a xlink:title=" ">
<path fill="none" stroke="#63b8ff" d="M1165.96,-59.27C1172.15,-58.07 1178.39,-56.94 1184.38,-56 1339.29,-31.66 1526.65,-17.76 1599.4,-12.94"/>
<polygon fill="#63b8ff" stroke="#63b8ff" points="1165.54,-55.79 1156.43,-61.21 1166.93,-62.65 1165.54,-55.79"/>
</a>
</g>
</g>
<!-- Node9&#45;&gt;Node7 -->
<g id="edge14_Node000009_Node000007" class="edge">
<title>Node9&#45;&gt;Node7</title>
<g id="a_edge14_Node000009_Node000007"><a xlink:title=" ">
<path fill="none" stroke="#63b8ff" d="M1081,-57.38C1053.25,-46.05 1014.5,-30.23 990.18,-20.31"/>
<polygon fill="#63b8ff" stroke="#63b8ff" points="1079.42,-60.51 1090,-61.05 1082.07,-54.03 1079.42,-60.51"/>
</a>
</g>
</g>
<!-- Node10&#45;&gt;Node7 -->
<g id="edge16_Node000010_Node000007" class="edge">
<title>Node10&#45;&gt;Node7</title>
<g id="a_edge16_Node000010_Node000007"><a xlink:title=" ">
<path fill="none" stroke="#63b8ff" d="M967.38,-50.25C967.38,-39.97 967.38,-28.09 967.38,-20.11"/>
<polygon fill="#63b8ff" stroke="#63b8ff" points="963.88,-50.11 967.38,-60.11 970.88,-50.11 963.88,-50.11"/>
</a>
</g>
</g>
<!-- Node11&#45;&gt;Node12 -->
<g id="edge19_Node000011_Node000012" class="edge">
<title>Node11&#45;&gt;Node12</title>
<g id="a_edge19_Node000011_Node000012"><a xlink:title=" ">
<path fill="none" stroke="#63b8ff" d="M767.57,-52.6C759.5,-41.83 749.65,-28.7 743.21,-20.11"/>
<polygon fill="#63b8ff" stroke="#63b8ff" points="764.64,-54.51 773.44,-60.41 770.24,-50.31 764.64,-54.51"/>
</a>
</g>
</g>
<!-- Node18&#45;&gt;Node3 -->
<g id="edge27_Node000018_Node000003" class="edge">
<title>Node18&#45;&gt;Node3</title>
<g id="a_edge27_Node000018_Node000003"><a xlink:title=" ">
<path fill="none" stroke="#63b8ff" d="M1464.07,-58.51C1504.55,-46.95 1563.74,-30.04 1599.5,-19.82"/>
<polygon fill="#63b8ff" stroke="#63b8ff" points="1463.3,-55.1 1454.64,-61.21 1465.22,-61.83 1463.3,-55.1"/>
</a>
</g>
</g>
<!-- Node21&#45;&gt;Node3 -->
<g id="edge31_Node000021_Node000003" class="edge">
<title>Node21&#45;&gt;Node3</title>
<g id="a_edge31_Node000021_Node000003"><a xlink:title=" ">
<path fill="none" stroke="#63b8ff" d="M1955.85,-123.34C1926.97,-104.77 1875.95,-74.07 1828.38,-56 1771.36,-34.34 1700.98,-21.41 1661.34,-15.29"/>
<polygon fill="#63b8ff" stroke="#63b8ff" points="1953.89,-126.24 1964.18,-128.76 1957.71,-120.37 1953.89,-126.24"/>
</a>
</g>
</g>
<!-- Node21&#45;&gt;Node19 -->
<g id="edge32_Node000021_Node000019" class="edge">
<title>Node21&#45;&gt;Node19</title>
<g id="a_edge32_Node000021_Node000019"><a xlink:title=" ">
<path fill="none" stroke="#63b8ff" d="M2002.35,-123.04C2020.62,-110.35 2045.56,-93.02 2060.79,-82.44"/>
<polygon fill="#63b8ff" stroke="#63b8ff" points="2000.44,-120.1 1994.23,-128.68 2004.44,-125.85 2000.44,-120.1"/>
</a>
</g>
</g>
<!-- Node22&#45;&gt;Node19 -->
<g id="edge34_Node000022_Node000019" class="edge">
<title>Node22&#45;&gt;Node19</title>
<g id="a_edge34_Node000022_Node000019"><a xlink:title=" ">
<path fill="none" stroke="#63b8ff" d="M2151.49,-123.39C2132.02,-110.67 2105.16,-93.12 2088.82,-82.44"/>
<polygon fill="#63b8ff" stroke="#63b8ff" points="2149.35,-126.18 2159.64,-128.72 2153.18,-120.32 2149.35,-126.18"/>
</a>
</g>
</g>
<!-- Node31&#45;&gt;Node3 -->
<g id="edge44_Node000031_Node000003" class="edge">
<title>Node31&#45;&gt;Node3</title>
<g id="a_edge44_Node000031_Node000003"><a xlink:title=" ">
<path fill="none" stroke="#63b8ff" d="M1830.36,-118.03C1828.31,-99.21 1822.37,-72.13 1805.38,-56 1766.02,-18.63 1699.94,-11.22 1661.22,-10.34"/>
<polygon fill="#63b8ff" stroke="#63b8ff" points="1826.87,-118.29 1831.13,-128 1833.85,-117.76 1826.87,-118.29"/>
</a>
</g>
</g>
</g>
</svg>
