<?xml version="1.0" encoding="UTF-8" standalone="no"?>
<!DOCTYPE svg PUBLIC "-//W3C//DTD SVG 1.1//EN"
 "http://www.w3.org/Graphics/SVG/1.1/DTD/svg11.dtd">
<!-- Generated by graphviz version 12.2.1 (0)
 -->
<!-- Title: uint128/uint128_t.hpp Pages: 1 -->
<svg width="901pt" height="152pt"
 viewBox="0.00 0.00 901.00 152.00" xmlns="http://www.w3.org/2000/svg" xmlns:xlink="http://www.w3.org/1999/xlink">
<g id="graph0" class="graph" transform="scale(1 1) rotate(0) translate(4 148)">
<title>uint128/uint128_t.hpp</title>
<!-- Node1 -->
<g id="Node000001" class="node">
<title>Node1</title>
<g id="a_Node000001"><a xlink:title=" ">
<polygon fill="#999999" stroke="#666666" points="502,-144 393,-144 393,-124 502,-124 502,-144"/>
<text text-anchor="middle" x="447.5" y="-130.5" font-family="Helvetica,sans-Serif" font-size="10.00">uint128/uint128_t.hpp</text>
</a>
</g>
</g>
<!-- Node2 -->
<g id="Node000002" class="node">
<title>Node2</title>
<g id="a_Node000002"><a xlink:href="uint128__traits__specializations_8hpp.html" target="_top" xlink:title="Forward declarations for uint128_t type traits specializations.">
<polygon fill="white" stroke="#666666" points="163,-82 0,-82 0,-62 163,-62 163,-82"/>
<text text-anchor="middle" x="81.5" y="-68.5" font-family="Helvetica,sans-Serif" font-size="10.00">uint128_traits_specializations.hpp</text>
</a>
</g>
</g>
<!-- Node1&#45;&gt;Node2 -->
<g id="edge1_Node000001_Node000002" class="edge">
<title>Node1&#45;&gt;Node2</title>
<g id="a_edge1_Node000001_Node000002"><a xlink:title=" ">
<path fill="none" stroke="#63b8ff" d="M392.71,-124.02C328.06,-113.42 220.53,-95.79 150.33,-84.28"/>
<polygon fill="#63b8ff" stroke="#63b8ff" points="151.32,-80.9 140.89,-82.74 150.19,-87.81 151.32,-80.9"/>
</a>
</g>
</g>
<!-- Node3 -->
<g id="Node000003" class="node">
<title>Node3</title>
<g id="a_Node000003"><a xlink:title=" ">
<polygon fill="#e0e0e0" stroke="#999999" points="167.38,-20 105.62,-20 105.62,0 167.38,0 167.38,-20"/>
<text text-anchor="middle" x="136.5" y="-6.5" font-family="Helvetica,sans-Serif" font-size="10.00">type_traits</text>
</a>
</g>
</g>
<!-- Node1&#45;&gt;Node3 -->
<g id="edge11_Node000001_Node000003" class="edge">
<title>Node1&#45;&gt;Node3</title>
<g id="a_edge11_Node000001_Node000003"><a xlink:title=" ">
<path fill="none" stroke="#63b8ff" d="M392.59,-131.95C342.42,-128.89 267.58,-118.92 210.5,-88 196.71,-80.53 168.82,-49.3 151.5,-28.98"/>
<polygon fill="#63b8ff" stroke="#63b8ff" points="154.26,-26.82 145.13,-21.44 148.91,-31.34 154.26,-26.82"/>
</a>
</g>
</g>
<!-- Node4 -->
<g id="Node000004" class="node">
<title>Node4</title>
<g id="a_Node000004"><a xlink:title=" ">
<polygon fill="#e0e0e0" stroke="#999999" points="263.75,-82 219.25,-82 219.25,-62 263.75,-62 263.75,-82"/>
<text text-anchor="middle" x="241.5" y="-68.5" font-family="Helvetica,sans-Serif" font-size="10.00">climits</text>
</a>
</g>
</g>
<!-- Node1&#45;&gt;Node4 -->
<g id="edge3_Node000001_Node000004" class="edge">
<title>Node1&#45;&gt;Node4</title>
<g id="a_edge3_Node000001_Node000004"><a xlink:title=" ">
<path fill="none" stroke="#63b8ff" d="M400.3,-123.54C364.64,-115.75 314.77,-103.49 272.5,-88 271.54,-87.65 270.57,-87.28 269.6,-86.89"/>
<polygon fill="#63b8ff" stroke="#63b8ff" points="271.22,-83.78 260.65,-82.95 268.4,-90.19 271.22,-83.78"/>
</a>
</g>
</g>
<!-- Node5 -->
<g id="Node000005" class="node">
<title>Node5</title>
<g id="a_Node000005"><a xlink:title=" ">
<polygon fill="#e0e0e0" stroke="#999999" points="329.62,-82 281.38,-82 281.38,-62 329.62,-62 329.62,-82"/>
<text text-anchor="middle" x="305.5" y="-68.5" font-family="Helvetica,sans-Serif" font-size="10.00">cstddef</text>
</a>
</g>
</g>
<!-- Node1&#45;&gt;Node5 -->
<g id="edge4_Node000001_Node000005" class="edge">
<title>Node1&#45;&gt;Node5</title>
<g id="a_edge4_Node000001_Node000005"><a xlink:title=" ">
<path fill="none" stroke="#63b8ff" d="M425.31,-123.62C401.87,-113.72 364.65,-97.99 337.92,-86.7"/>
<polygon fill="#63b8ff" stroke="#63b8ff" points="339.5,-83.57 328.93,-82.9 336.78,-90.01 339.5,-83.57"/>
</a>
</g>
</g>
<!-- Node6 -->
<g id="Node000006" class="node">
<title>Node6</title>
<g id="a_Node000006"><a xlink:title=" ">
<polygon fill="#e0e0e0" stroke="#999999" points="619.12,-20 573.88,-20 573.88,0 619.12,0 619.12,-20"/>
<text text-anchor="middle" x="596.5" y="-6.5" font-family="Helvetica,sans-Serif" font-size="10.00">cstdint</text>
</a>
</g>
</g>
<!-- Node1&#45;&gt;Node6 -->
<g id="edge5_Node000001_Node000006" class="edge">
<title>Node1&#45;&gt;Node6</title>
<g id="a_edge5_Node000001_Node000006"><a xlink:title=" ">
<path fill="none" stroke="#63b8ff" d="M420.56,-123.6C404.65,-116.49 385.86,-105.01 376.5,-88 369.64,-75.54 367.51,-67.02 376.5,-56 399.52,-27.79 506.08,-16.79 562.01,-12.9"/>
<polygon fill="#63b8ff" stroke="#63b8ff" points="562.19,-16.4 571.94,-12.26 561.73,-9.41 562.19,-16.4"/>
</a>
</g>
</g>
<!-- Node7 -->
<g id="Node000007" class="node">
<title>Node7</title>
<g id="a_Node000007"><a xlink:title=" ">
<polygon fill="#e0e0e0" stroke="#999999" points="439.25,-82 385.75,-82 385.75,-62 439.25,-62 439.25,-82"/>
<text text-anchor="middle" x="412.5" y="-68.5" font-family="Helvetica,sans-Serif" font-size="10.00">iostream</text>
</a>
</g>
</g>
<!-- Node1&#45;&gt;Node7 -->
<g id="edge6_Node000001_Node000007" class="edge">
<title>Node1&#45;&gt;Node7</title>
<g id="a_edge6_Node000001_Node000007"><a xlink:title=" ">
<path fill="none" stroke="#63b8ff" d="M442.03,-123.62C437.07,-115.12 429.61,-102.33 423.43,-91.74"/>
<polygon fill="#63b8ff" stroke="#63b8ff" points="426.64,-90.29 418.58,-83.42 420.59,-93.82 426.64,-90.29"/>
</a>
</g>
</g>
<!-- Node8 -->
<g id="Node000008" class="node">
<title>Node8</title>
<g id="a_Node000008"><a xlink:title=" ">
<polygon fill="#e0e0e0" stroke="#999999" points="507.38,-82 457.62,-82 457.62,-62 507.38,-62 507.38,-82"/>
<text text-anchor="middle" x="482.5" y="-68.5" font-family="Helvetica,sans-Serif" font-size="10.00">optional</text>
</a>
</g>
</g>
<!-- Node1&#45;&gt;Node8 -->
<g id="edge7_Node000001_Node000008" class="edge">
<title>Node1&#45;&gt;Node8</title>
<g id="a_edge7_Node000001_Node000008"><a xlink:title=" ">
<path fill="none" stroke="#63b8ff" d="M452.97,-123.62C457.93,-115.12 465.39,-102.33 471.57,-91.74"/>
<polygon fill="#63b8ff" stroke="#63b8ff" points="474.41,-93.82 476.42,-83.42 468.36,-90.29 474.41,-93.82"/>
</a>
</g>
</g>
<!-- Node9 -->
<g id="Node000009" class="node">
<title>Node9</title>
<g id="a_Node000009"><a xlink:title=" ">
<polygon fill="#e0e0e0" stroke="#999999" points="583.88,-82 525.12,-82 525.12,-62 583.88,-62 583.88,-82"/>
<text text-anchor="middle" x="554.5" y="-68.5" font-family="Helvetica,sans-Serif" font-size="10.00">stdexcept</text>
</a>
</g>
</g>
<!-- Node1&#45;&gt;Node9 -->
<g id="edge8_Node000001_Node000009" class="edge">
<title>Node1&#45;&gt;Node9</title>
<g id="a_edge8_Node000001_Node000009"><a xlink:title=" ">
<path fill="none" stroke="#63b8ff" d="M464.22,-123.62C481.26,-114.07 507.95,-99.11 527.89,-87.92"/>
<polygon fill="#63b8ff" stroke="#63b8ff" points="529.57,-90.99 536.58,-83.05 526.14,-84.89 529.57,-90.99"/>
</a>
</g>
</g>
<!-- Node10 -->
<g id="Node000010" class="node">
<title>Node10</title>
<g id="a_Node000010"><a xlink:title=" ">
<polygon fill="#e0e0e0" stroke="#999999" points="641.5,-82 601.5,-82 601.5,-62 641.5,-62 641.5,-82"/>
<text text-anchor="middle" x="621.5" y="-68.5" font-family="Helvetica,sans-Serif" font-size="10.00">string</text>
</a>
</g>
</g>
<!-- Node1&#45;&gt;Node10 -->
<g id="edge9_Node000001_Node000010" class="edge">
<title>Node1&#45;&gt;Node10</title>
<g id="a_edge9_Node000001_Node000010"><a xlink:title=" ">
<path fill="none" stroke="#63b8ff" d="M484.18,-123.55C513.87,-115.44 556.53,-102.75 592.5,-88 593.12,-87.74 593.75,-87.48 594.38,-87.21"/>
<polygon fill="#63b8ff" stroke="#63b8ff" points="595.65,-90.48 603.19,-83.04 592.66,-84.15 595.65,-90.48"/>
</a>
</g>
</g>
<!-- Node11 -->
<g id="Node000011" class="node">
<title>Node11</title>
<g id="a_Node000011"><a xlink:title=" ">
<polygon fill="#e0e0e0" stroke="#999999" points="703,-82 660,-82 660,-62 703,-62 703,-82"/>
<text text-anchor="middle" x="681.5" y="-68.5" font-family="Helvetica,sans-Serif" font-size="10.00">thread</text>
</a>
</g>
</g>
<!-- Node1&#45;&gt;Node11 -->
<g id="edge10_Node000001_Node000011" class="edge">
<title>Node1&#45;&gt;Node11</title>
<g id="a_edge10_Node000001_Node000011"><a xlink:title=" ">
<path fill="none" stroke="#63b8ff" d="M502.3,-124.42C543.71,-117.08 601.57,-105 650.5,-88 651.46,-87.67 652.44,-87.31 653.41,-86.93"/>
<polygon fill="#63b8ff" stroke="#63b8ff" points="654.59,-90.24 662.38,-83.05 651.81,-83.81 654.59,-90.24"/>
</a>
</g>
</g>
<!-- Node12 -->
<g id="Node000012" class="node">
<title>Node12</title>
<g id="a_Node000012"><a xlink:title=" ">
<polygon fill="#e0e0e0" stroke="#999999" points="760.12,-82 720.88,-82 720.88,-62 760.12,-62 760.12,-82"/>
<text text-anchor="middle" x="740.5" y="-68.5" font-family="Helvetica,sans-Serif" font-size="10.00">utility</text>
</a>
</g>
</g>
<!-- Node1&#45;&gt;Node12 -->
<g id="edge12_Node000001_Node000012" class="edge">
<title>Node1&#45;&gt;Node12</title>
<g id="a_edge12_Node000001_Node000012"><a xlink:title=" ">
<path fill="none" stroke="#63b8ff" d="M502.32,-128.89C556.81,-123.62 642.2,-112.08 712.5,-88 713.15,-87.78 713.81,-87.54 714.46,-87.29"/>
<polygon fill="#63b8ff" stroke="#63b8ff" points="715.91,-90.48 723.54,-83.13 712.99,-84.12 715.91,-90.48"/>
</a>
</g>
</g>
<!-- Node13 -->
<g id="Node000013" class="node">
<title>Node13</title>
<g id="a_Node000013"><a xlink:href="uint128__mod__helpers_8hpp.html" target="_top" xlink:title="Helpers y especializaciones para operaciones de módulo optimizadas en uint128_t.">
<polygon fill="white" stroke="#666666" points="893,-88 778,-88 778,-56 893,-56 893,-88"/>
<text text-anchor="start" x="786" y="-74.5" font-family="Helvetica,sans-Serif" font-size="10.00">specializations/uint128</text>
<text text-anchor="middle" x="835.5" y="-62.5" font-family="Helvetica,sans-Serif" font-size="10.00">_mod_helpers.hpp</text>
</a>
</g>
</g>
<!-- Node1&#45;&gt;Node13 -->
<g id="edge13_Node000001_Node000013" class="edge">
<title>Node1&#45;&gt;Node13</title>
<g id="a_edge13_Node000001_Node000013"><a xlink:title=" ">
<path fill="none" stroke="#63b8ff" d="M502.42,-126.76C564.31,-119.41 668.16,-106.12 766.29,-88.5"/>
<polygon fill="#63b8ff" stroke="#63b8ff" points="766.91,-91.95 776.12,-86.72 765.66,-85.06 766.91,-91.95"/>
</a>
</g>
</g>
<!-- Node2&#45;&gt;Node3 -->
<g id="edge2_Node000002_Node000003" class="edge">
<title>Node2&#45;&gt;Node3</title>
<g id="a_edge2_Node000002_Node000003"><a xlink:title=" ">
<path fill="none" stroke="#63b8ff" d="M90.09,-61.62C98.21,-52.77 110.59,-39.26 120.53,-28.43"/>
<polygon fill="#63b8ff" stroke="#63b8ff" points="122.95,-30.97 127.12,-21.23 117.79,-26.23 122.95,-30.97"/>
</a>
</g>
</g>
<!-- Node13&#45;&gt;Node6 -->
<g id="edge14_Node000013_Node000006" class="edge">
<title>Node13&#45;&gt;Node6</title>
<g id="a_edge14_Node000013_Node000006"><a xlink:title=" ">
<path fill="none" stroke="#63b8ff" d="M777.64,-56.48C731.57,-44.91 668.66,-29.12 630.4,-19.51"/>
<polygon fill="#63b8ff" stroke="#63b8ff" points="631.38,-16.15 620.83,-17.11 629.68,-22.94 631.38,-16.15"/>
</a>
</g>
</g>
</g>
</svg>
