<?xml version="1.0" encoding="UTF-8" standalone="no"?>
<!DOCTYPE svg PUBLIC "-//W3C//DTD SVG 1.1//EN"
 "http://www.w3.org/Graphics/SVG/1.1/DTD/svg11.dtd">
<!-- Generated by graphviz version 12.2.1 (0)
 -->
<!-- Title: uint128/uint128_safe.hpp Pages: 1 -->
<svg width="922pt" height="208pt"
 viewBox="0.00 0.00 922.25 208.00" xmlns="http://www.w3.org/2000/svg" xmlns:xlink="http://www.w3.org/1999/xlink">
<g id="graph0" class="graph" transform="scale(1 1) rotate(0) translate(4 204)">
<title>uint128/uint128_safe.hpp</title>
<!-- Node1 -->
<g id="Node000001" class="node">
<title>Node1</title>
<g id="a_Node000001"><a xlink:title=" ">
<polygon fill="#999999" stroke="#666666" points="781.25,-200 656.5,-200 656.5,-180 781.25,-180 781.25,-200"/>
<text text-anchor="middle" x="718.88" y="-186.5" font-family="Helvetica,sans-Serif" font-size="10.00">uint128/uint128_safe.hpp</text>
</a>
</g>
</g>
<!-- Node2 -->
<g id="Node000002" class="node">
<title>Node2</title>
<g id="a_Node000002"><a xlink:href="uint128__t_8hpp.html" target="_top" xlink:title=" ">
<polygon fill="white" stroke="#666666" points="559.12,-144 484.62,-144 484.62,-124 559.12,-124 559.12,-144"/>
<text text-anchor="middle" x="521.88" y="-130.5" font-family="Helvetica,sans-Serif" font-size="10.00">uint128_t.hpp</text>
</a>
</g>
</g>
<!-- Node1&#45;&gt;Node2 -->
<g id="edge1_Node000001_Node000002" class="edge">
<title>Node1&#45;&gt;Node2</title>
<g id="a_edge1_Node000001_Node000002"><a xlink:title=" ">
<path fill="none" stroke="#63b8ff" d="M684.56,-179.59C652.13,-170.71 603.26,-157.31 567.55,-147.52"/>
<polygon fill="#63b8ff" stroke="#63b8ff" points="568.49,-144.15 557.92,-144.88 566.64,-150.9 568.49,-144.15"/>
</a>
</g>
</g>
<!-- Node4 -->
<g id="Node000004" class="node">
<title>Node4</title>
<g id="a_Node000004"><a xlink:title=" ">
<polygon fill="#e0e0e0" stroke="#999999" points="61.75,-20 0,-20 0,0 61.75,0 61.75,-20"/>
<text text-anchor="middle" x="30.88" y="-6.5" font-family="Helvetica,sans-Serif" font-size="10.00">type_traits</text>
</a>
</g>
</g>
<!-- Node1&#45;&gt;Node4 -->
<g id="edge20_Node000001_Node000004" class="edge">
<title>Node1&#45;&gt;Node4</title>
<g id="a_edge20_Node000001_Node000004"><a xlink:title=" ">
<path fill="none" stroke="#63b8ff" d="M656.16,-189.75C501.75,-190.13 109.82,-181.66 28.88,-88 15.58,-72.62 18.78,-48.35 23.57,-31.18"/>
<polygon fill="#63b8ff" stroke="#63b8ff" points="26.85,-32.42 26.58,-21.83 20.19,-30.27 26.85,-32.42"/>
</a>
</g>
</g>
<!-- Node9 -->
<g id="Node000009" class="node">
<title>Node9</title>
<g id="a_Node000009"><a xlink:title=" ">
<polygon fill="#e0e0e0" stroke="#999999" points="837.75,-82 788,-82 788,-62 837.75,-62 837.75,-82"/>
<text text-anchor="middle" x="812.88" y="-68.5" font-family="Helvetica,sans-Serif" font-size="10.00">optional</text>
</a>
</g>
</g>
<!-- Node1&#45;&gt;Node9 -->
<g id="edge18_Node000001_Node000009" class="edge">
<title>Node1&#45;&gt;Node9</title>
<g id="a_edge18_Node000001_Node000009"><a xlink:title=" ">
<path fill="none" stroke="#63b8ff" d="M717.06,-179.77C714.94,-166.36 712.99,-141.22 723.88,-124 727.58,-118.14 759.72,-100.53 784.32,-87.64"/>
<polygon fill="#63b8ff" stroke="#63b8ff" points="785.7,-90.87 792.96,-83.15 782.47,-84.66 785.7,-90.87"/>
</a>
</g>
</g>
<!-- Node10 -->
<g id="Node000010" class="node">
<title>Node10</title>
<g id="a_Node000010"><a xlink:title=" ">
<polygon fill="#e0e0e0" stroke="#999999" points="914.25,-82 855.5,-82 855.5,-62 914.25,-62 914.25,-82"/>
<text text-anchor="middle" x="884.88" y="-68.5" font-family="Helvetica,sans-Serif" font-size="10.00">stdexcept</text>
</a>
</g>
</g>
<!-- Node1&#45;&gt;Node10 -->
<g id="edge19_Node000001_Node000010" class="edge">
<title>Node1&#45;&gt;Node10</title>
<g id="a_edge19_Node000001_Node000010"><a xlink:title=" ">
<path fill="none" stroke="#63b8ff" d="M722.2,-179.74C727.63,-165.84 739.65,-139.54 757.88,-124 758.83,-123.19 813.47,-101.38 850.76,-86.55"/>
<polygon fill="#63b8ff" stroke="#63b8ff" points="851.82,-89.89 859.82,-82.95 849.24,-83.39 851.82,-89.89"/>
</a>
</g>
</g>
<!-- Node15 -->
<g id="Node000015" class="node">
<title>Node15</title>
<g id="a_Node000015"><a xlink:title=" ">
<polygon fill="#e0e0e0" stroke="#999999" points="809.38,-144 766.38,-144 766.38,-124 809.38,-124 809.38,-144"/>
<text text-anchor="middle" x="787.88" y="-130.5" font-family="Helvetica,sans-Serif" font-size="10.00">cmath</text>
</a>
</g>
</g>
<!-- Node1&#45;&gt;Node15 -->
<g id="edge16_Node000001_Node000015" class="edge">
<title>Node1&#45;&gt;Node15</title>
<g id="a_edge16_Node000001_Node000015"><a xlink:title=" ">
<path fill="none" stroke="#63b8ff" d="M730.89,-179.59C740.89,-171.77 755.34,-160.46 767.18,-151.19"/>
<polygon fill="#63b8ff" stroke="#63b8ff" points="769.08,-154.15 774.8,-145.23 764.77,-148.64 769.08,-154.15"/>
</a>
</g>
</g>
<!-- Node16 -->
<g id="Node000016" class="node">
<title>Node16</title>
<g id="a_Node000016"><a xlink:title=" ">
<polygon fill="#e0e0e0" stroke="#999999" points="866.5,-144 827.25,-144 827.25,-124 866.5,-124 866.5,-144"/>
<text text-anchor="middle" x="846.88" y="-130.5" font-family="Helvetica,sans-Serif" font-size="10.00">limits</text>
</a>
</g>
</g>
<!-- Node1&#45;&gt;Node16 -->
<g id="edge17_Node000001_Node000016" class="edge">
<title>Node1&#45;&gt;Node16</title>
<g id="a_edge17_Node000001_Node000016"><a xlink:title=" ">
<path fill="none" stroke="#63b8ff" d="M741.17,-179.59C762.07,-170.78 793.48,-157.53 816.63,-147.76"/>
<polygon fill="#63b8ff" stroke="#63b8ff" points="817.69,-151.11 825.54,-144 814.97,-144.66 817.69,-151.11"/>
</a>
</g>
</g>
<!-- Node3 -->
<g id="Node000003" class="node">
<title>Node3</title>
<g id="a_Node000003"><a xlink:href="uint128__traits__specializations_8hpp.html" target="_top" xlink:title="Forward declarations for uint128_t type traits specializations.">
<polygon fill="white" stroke="#666666" points="279.38,-82 116.38,-82 116.38,-62 279.38,-62 279.38,-82"/>
<text text-anchor="middle" x="197.88" y="-68.5" font-family="Helvetica,sans-Serif" font-size="10.00">uint128_traits_specializations.hpp</text>
</a>
</g>
</g>
<!-- Node2&#45;&gt;Node3 -->
<g id="edge2_Node000002_Node000003" class="edge">
<title>Node2&#45;&gt;Node3</title>
<g id="a_edge2_Node000002_Node000003"><a xlink:title=" ">
<path fill="none" stroke="#63b8ff" d="M484.39,-126.06C429.51,-115.9 326.64,-96.84 260.25,-84.55"/>
<polygon fill="#63b8ff" stroke="#63b8ff" points="261.07,-81.14 250.6,-82.76 259.79,-88.03 261.07,-81.14"/>
</a>
</g>
</g>
<!-- Node2&#45;&gt;Node4 -->
<g id="edge12_Node000002_Node000004" class="edge">
<title>Node2&#45;&gt;Node4</title>
<g id="a_edge12_Node000002_Node000004"><a xlink:title=" ">
<path fill="none" stroke="#63b8ff" d="M484.42,-131.89C378.54,-128.4 82.55,-116.2 49.88,-88 33.94,-74.25 30.26,-49.46 29.88,-31.72"/>
<polygon fill="#63b8ff" stroke="#63b8ff" points="33.38,-31.87 30.04,-21.82 26.38,-31.76 33.38,-31.87"/>
</a>
</g>
</g>
<!-- Node5 -->
<g id="Node000005" class="node">
<title>Node5</title>
<g id="a_Node000005"><a xlink:title=" ">
<polygon fill="#e0e0e0" stroke="#999999" points="342.12,-82 297.62,-82 297.62,-62 342.12,-62 342.12,-82"/>
<text text-anchor="middle" x="319.88" y="-68.5" font-family="Helvetica,sans-Serif" font-size="10.00">climits</text>
</a>
</g>
</g>
<!-- Node2&#45;&gt;Node5 -->
<g id="edge4_Node000002_Node000005" class="edge">
<title>Node2&#45;&gt;Node5</title>
<g id="a_edge4_Node000002_Node000005"><a xlink:title=" ">
<path fill="none" stroke="#63b8ff" d="M484.21,-125.29C449.12,-117.6 395.65,-104.55 350.88,-88 350.08,-87.7 349.27,-87.4 348.46,-87.08"/>
<polygon fill="#63b8ff" stroke="#63b8ff" points="349.93,-83.9 339.37,-83.09 347.12,-90.31 349.93,-83.9"/>
</a>
</g>
</g>
<!-- Node6 -->
<g id="Node000006" class="node">
<title>Node6</title>
<g id="a_Node000006"><a xlink:title=" ">
<polygon fill="#e0e0e0" stroke="#999999" points="408,-82 359.75,-82 359.75,-62 408,-62 408,-82"/>
<text text-anchor="middle" x="383.88" y="-68.5" font-family="Helvetica,sans-Serif" font-size="10.00">cstddef</text>
</a>
</g>
</g>
<!-- Node2&#45;&gt;Node6 -->
<g id="edge5_Node000002_Node000006" class="edge">
<title>Node2&#45;&gt;Node6</title>
<g id="a_edge5_Node000002_Node000006"><a xlink:title=" ">
<path fill="none" stroke="#63b8ff" d="M500.31,-123.62C477.63,-113.76 441.68,-98.13 415.73,-86.85"/>
<polygon fill="#63b8ff" stroke="#63b8ff" points="417.24,-83.69 406.67,-82.91 414.45,-90.11 417.24,-83.69"/>
</a>
</g>
</g>
<!-- Node7 -->
<g id="Node000007" class="node">
<title>Node7</title>
<g id="a_Node000007"><a xlink:title=" ">
<polygon fill="#e0e0e0" stroke="#999999" points="501.5,-20 456.25,-20 456.25,0 501.5,0 501.5,-20"/>
<text text-anchor="middle" x="478.88" y="-6.5" font-family="Helvetica,sans-Serif" font-size="10.00">cstdint</text>
</a>
</g>
</g>
<!-- Node2&#45;&gt;Node7 -->
<g id="edge6_Node000002_Node000007" class="edge">
<title>Node2&#45;&gt;Node7</title>
<g id="a_edge6_Node000002_Node000007"><a xlink:title=" ">
<path fill="none" stroke="#63b8ff" d="M497.08,-123.53C481.92,-116.29 463.77,-104.69 454.88,-88 444.93,-69.35 455.06,-45.92 465.04,-29.84"/>
<polygon fill="#63b8ff" stroke="#63b8ff" points="467.84,-31.95 470.53,-21.71 462.03,-28.04 467.84,-31.95"/>
</a>
</g>
</g>
<!-- Node8 -->
<g id="Node000008" class="node">
<title>Node8</title>
<g id="a_Node000008"><a xlink:title=" ">
<polygon fill="#e0e0e0" stroke="#999999" points="650.62,-82 597.12,-82 597.12,-62 650.62,-62 650.62,-82"/>
<text text-anchor="middle" x="623.88" y="-68.5" font-family="Helvetica,sans-Serif" font-size="10.00">iostream</text>
</a>
</g>
</g>
<!-- Node2&#45;&gt;Node8 -->
<g id="edge7_Node000002_Node000008" class="edge">
<title>Node2&#45;&gt;Node8</title>
<g id="a_edge7_Node000002_Node000008"><a xlink:title=" ">
<path fill="none" stroke="#63b8ff" d="M537.81,-123.62C553.98,-114.11 579.26,-99.24 598.25,-88.08"/>
<polygon fill="#63b8ff" stroke="#63b8ff" points="599.9,-91.16 606.74,-83.08 596.35,-85.13 599.9,-91.16"/>
</a>
</g>
</g>
<!-- Node2&#45;&gt;Node9 -->
<g id="edge8_Node000002_Node000009" class="edge">
<title>Node2&#45;&gt;Node9</title>
<g id="a_edge8_Node000002_Node000009"><a xlink:title=" ">
<path fill="none" stroke="#63b8ff" d="M559.31,-129.48C610.14,-124.03 703.42,-111.62 779.88,-88 781.23,-87.58 782.6,-87.12 783.97,-86.63"/>
<polygon fill="#63b8ff" stroke="#63b8ff" points="785,-89.99 792.95,-82.98 782.37,-83.5 785,-89.99"/>
</a>
</g>
</g>
<!-- Node2&#45;&gt;Node10 -->
<g id="edge9_Node000002_Node000010" class="edge">
<title>Node2&#45;&gt;Node10</title>
<g id="a_edge9_Node000002_Node000010"><a xlink:title=" ">
<path fill="none" stroke="#63b8ff" d="M559.49,-130.71C620.61,-126.35 744.95,-114.76 846.88,-88 848.85,-87.48 850.86,-86.89 852.87,-86.25"/>
<polygon fill="#63b8ff" stroke="#63b8ff" points="853.8,-89.64 862.04,-82.99 851.45,-83.04 853.8,-89.64"/>
</a>
</g>
</g>
<!-- Node11 -->
<g id="Node000011" class="node">
<title>Node11</title>
<g id="a_Node000011"><a xlink:title=" ">
<polygon fill="#e0e0e0" stroke="#999999" points="708.88,-82 668.88,-82 668.88,-62 708.88,-62 708.88,-82"/>
<text text-anchor="middle" x="688.88" y="-68.5" font-family="Helvetica,sans-Serif" font-size="10.00">string</text>
</a>
</g>
</g>
<!-- Node2&#45;&gt;Node11 -->
<g id="edge10_Node000002_Node000011" class="edge">
<title>Node2&#45;&gt;Node11</title>
<g id="a_edge10_Node000002_Node000011"><a xlink:title=" ">
<path fill="none" stroke="#63b8ff" d="M556.18,-123.5C584.45,-115.27 625.35,-102.44 659.88,-88 660.5,-87.74 661.12,-87.47 661.75,-87.2"/>
<polygon fill="#63b8ff" stroke="#63b8ff" points="663.03,-90.46 670.55,-83 660.02,-84.15 663.03,-90.46"/>
</a>
</g>
</g>
<!-- Node12 -->
<g id="Node000012" class="node">
<title>Node12</title>
<g id="a_Node000012"><a xlink:title=" ">
<polygon fill="#e0e0e0" stroke="#999999" points="770.38,-82 727.38,-82 727.38,-62 770.38,-62 770.38,-82"/>
<text text-anchor="middle" x="748.88" y="-68.5" font-family="Helvetica,sans-Serif" font-size="10.00">thread</text>
</a>
</g>
</g>
<!-- Node2&#45;&gt;Node12 -->
<g id="edge11_Node000002_Node000012" class="edge">
<title>Node2&#45;&gt;Node12</title>
<g id="a_edge11_Node000002_Node000012"><a xlink:title=" ">
<path fill="none" stroke="#63b8ff" d="M559.43,-126.97C599.41,-119.96 664.19,-106.88 717.88,-88 718.84,-87.66 719.81,-87.3 720.78,-86.92"/>
<polygon fill="#63b8ff" stroke="#63b8ff" points="721.97,-90.23 729.75,-83.03 719.18,-83.81 721.97,-90.23"/>
</a>
</g>
</g>
<!-- Node13 -->
<g id="Node000013" class="node">
<title>Node13</title>
<g id="a_Node000013"><a xlink:title=" ">
<polygon fill="#e0e0e0" stroke="#999999" points="98.5,-82 59.25,-82 59.25,-62 98.5,-62 98.5,-82"/>
<text text-anchor="middle" x="78.88" y="-68.5" font-family="Helvetica,sans-Serif" font-size="10.00">utility</text>
</a>
</g>
</g>
<!-- Node2&#45;&gt;Node13 -->
<g id="edge13_Node000002_Node000013" class="edge">
<title>Node2&#45;&gt;Node13</title>
<g id="a_edge13_Node000002_Node000013"><a xlink:title=" ">
<path fill="none" stroke="#63b8ff" d="M484.28,-133.67C410.26,-133.96 241.19,-129.54 106.88,-88 105.91,-87.7 104.93,-87.37 103.96,-87.01"/>
<polygon fill="#63b8ff" stroke="#63b8ff" points="105.74,-83.97 95.19,-82.99 102.83,-90.34 105.74,-83.97"/>
</a>
</g>
</g>
<!-- Node14 -->
<g id="Node000014" class="node">
<title>Node14</title>
<g id="a_Node000014"><a xlink:href="uint128__mod__helpers_8hpp.html" target="_top" xlink:title="Helpers y especializaciones para operaciones de módulo optimizadas en uint128_t.">
<polygon fill="white" stroke="#666666" points="579.38,-88 464.38,-88 464.38,-56 579.38,-56 579.38,-88"/>
<text text-anchor="start" x="472.38" y="-74.5" font-family="Helvetica,sans-Serif" font-size="10.00">specializations/uint128</text>
<text text-anchor="middle" x="521.88" y="-62.5" font-family="Helvetica,sans-Serif" font-size="10.00">_mod_helpers.hpp</text>
</a>
</g>
</g>
<!-- Node2&#45;&gt;Node14 -->
<g id="edge14_Node000002_Node000014" class="edge">
<title>Node2&#45;&gt;Node14</title>
<g id="a_edge14_Node000002_Node000014"><a xlink:title=" ">
<path fill="none" stroke="#63b8ff" d="M521.88,-123.62C521.88,-117.1 521.88,-108.05 521.88,-99.4"/>
<polygon fill="#63b8ff" stroke="#63b8ff" points="525.38,-99.65 521.88,-89.65 518.38,-99.65 525.38,-99.65"/>
</a>
</g>
</g>
<!-- Node3&#45;&gt;Node4 -->
<g id="edge3_Node000003_Node000004" class="edge">
<title>Node3&#45;&gt;Node4</title>
<g id="a_edge3_Node000003_Node000004"><a xlink:title=" ">
<path fill="none" stroke="#63b8ff" d="M171.78,-61.62C143.8,-51.57 99.14,-35.53 67.62,-24.2"/>
<polygon fill="#63b8ff" stroke="#63b8ff" points="69.08,-21.01 58.48,-20.92 66.71,-27.59 69.08,-21.01"/>
</a>
</g>
</g>
<!-- Node14&#45;&gt;Node7 -->
<g id="edge15_Node000014_Node000007" class="edge">
<title>Node14&#45;&gt;Node7</title>
<g id="a_edge15_Node000014_Node000007"><a xlink:title=" ">
<path fill="none" stroke="#63b8ff" d="M510.8,-55.55C505.14,-47.65 498.21,-37.97 492.25,-29.66"/>
<polygon fill="#63b8ff" stroke="#63b8ff" points="495.17,-27.73 486.5,-21.64 489.48,-31.81 495.17,-27.73"/>
</a>
</g>
</g>
</g>
</svg>
