<?xml version="1.0" encoding="UTF-8" standalone="no"?>
<!DOCTYPE svg PUBLIC "-//W3C//DTD SVG 1.1//EN"
 "http://www.w3.org/Graphics/SVG/1.1/DTD/svg11.dtd">
<!-- Generated by graphviz version 12.2.1 (0)
 -->
<!-- Title: uint128/uint128_concepts.hpp Pages: 1 -->
<!--zoomable 208 -->

<svg id="main" version="1.1" xmlns="http://www.w3.org/2000/svg" xmlns:xlink="http://www.w3.org/1999/xlink" xml:space="preserve" onload="init(evt)">

<style type="text/css"><![CDATA[
.node, .edge {opacity: 0.7;}
.node.selected, .edge.selected {opacity: 1;}
.edge:hover path { stroke: red; }
.edge:hover polygon { stroke: red; fill: red; }
]]></style>

<defs>
  <circle id="rim" cx="0" cy="0" r="7"/>
  <circle id="rim2" cx="0" cy="0" r="3.5"/>
  <g id="zoomPlus">
    <use xlink:href="#rim" fill="#404040"><set attributeName="fill" to="#808080" begin="zoomplus.mouseover" end="zoomplus.mouseout"/></use>
    <path d="M-4,0h8M0,-4v8" fill="none" stroke="white" stroke-width="1.5" pointer-events="none"/>
  </g>
  <g id="zoomMin">
    <use xlink:href="#rim" fill="#404040"><set attributeName="fill" to="#808080" begin="zoomminus.mouseover" end="zoomminus.mouseout"/></use>
    <path d="M-4,0h8" fill="none" stroke="white" stroke-width="1.5" pointer-events="none"/>
  </g>
  <g id="arrowUp" transform="translate(30 24)">
    <use xlink:href="#rim"/>
    <path pointer-events="none" fill="none" stroke="white" stroke-width="1.5" d="M0,-3.0v7 M-2.5,-0.5L0,-3.0L2.5,-0.5"/>
  </g>
  <g id="arrowRight" transform="rotate(90) translate(36 -43)">
    <use xlink:href="#rim"/>
    <path pointer-events="none" fill="none" stroke="white" stroke-width="1.5" d="M0,-3.0v7 M-2.5,-0.5L0,-3.0L2.5,-0.5"/>
  </g>
  <g id="arrowDown" transform="rotate(180) translate(-30 -48)">
    <use xlink:href="#rim"/>
    <path pointer-events="none" fill="none" stroke="white" stroke-width="1.5" d="M0,-3.0v7 M-2.5,-0.5L0,-3.0L2.5,-0.5"/>
  </g>
  <g id="arrowLeft" transform="rotate(270) translate(-36 17)">
    <use xlink:href="#rim"/>
    <path pointer-events="none" fill="none" stroke="white" stroke-width="1.5" d="M0,-3.0v7 M-2.5,-0.5L0,-3.0L2.5,-0.5"/>
  </g>
  <g id="resetDef">
    <use xlink:href="#rim2" fill="#404040"><set attributeName="fill" to="#808080" begin="reset.mouseover" end="reset.mouseout"/></use>
  </g>
</defs>
<script type="application/ecmascript">
var viewWidth = 990;
var viewHeight = 208;
var sectionId = 'dynsection-0';
</script>
<script type="application/ecmascript" xlink:href="svg.min.js"/>
<svg id="graph" class="graph">
<g id="viewport">
<title>uint128/uint128_concepts.hpp</title>
<!-- Node1 -->
<g id="Node000001" class="node">
<title>Node1</title>
<g id="a_Node000001"><a xlink:title=" ">
<polygon fill="#999999" stroke="#666666" points="971.36,-200 825.61,-200 825.61,-180 971.36,-180 971.36,-200"/>
<text text-anchor="middle" x="898.49" y="-186.5" font-family="Helvetica,sans-Serif" font-size="10.00">uint128/uint128_concepts.hpp</text>
</a>
</g>
</g>
<!-- Node2 -->
<g id="Node000002" class="node">
<title>Node2</title>
<g id="a_Node000002"><a xlink:href="uint128__t_8hpp.html" target="_top" xlink:title=" ">
<polygon fill="white" stroke="#666666" points="482.74,-144 408.24,-144 408.24,-124 482.74,-124 482.74,-144"/>
<text text-anchor="middle" x="445.49" y="-130.5" font-family="Helvetica,sans-Serif" font-size="10.00">uint128_t.hpp</text>
</a>
</g>
</g>
<!-- Node1&#45;&gt;Node2 -->
<g id="edge1_Node000001_Node000002" class="edge">
<title>Node1&#45;&gt;Node2</title>
<g id="a_edge1_Node000001_Node000002"><a xlink:title=" ">
<path fill="none" stroke="#63b8ff" d="M825.2,-180.26C732,-169.15 573.65,-150.28 494.11,-140.8"/>
<polygon fill="#63b8ff" stroke="#63b8ff" points="494.82,-137.36 484.47,-139.65 493.99,-144.31 494.82,-137.36"/>
</a>
</g>
</g>
<!-- Node4 -->
<g id="Node000004" class="node">
<title>Node4</title>
<g id="a_Node000004"><a xlink:title=" ">
<polygon fill="#e0e0e0" stroke="#999999" points="891.36,-20 829.61,-20 829.61,0 891.36,0 891.36,-20"/>
<text text-anchor="middle" x="860.49" y="-6.5" font-family="Helvetica,sans-Serif" font-size="10.00">type_traits</text>
</a>
</g>
</g>
<!-- Node1&#45;&gt;Node4 -->
<g id="edge17_Node000001_Node000004" class="edge">
<title>Node1&#45;&gt;Node4</title>
<g id="a_edge17_Node000001_Node000004"><a xlink:title=" ">
<path fill="none" stroke="#63b8ff" d="M896.55,-179.93C890.7,-152.5 873.08,-69.96 864.83,-31.34"/>
<polygon fill="#63b8ff" stroke="#63b8ff" points="868.29,-30.8 862.78,-21.75 861.45,-32.26 868.29,-30.8"/>
</a>
</g>
</g>
<!-- Node15 -->
<g id="Node000015" class="node">
<title>Node15</title>
<g id="a_Node000015"><a xlink:title=" ">
<polygon fill="#e0e0e0" stroke="#999999" points="982.36,-144 926.61,-144 926.61,-124 982.36,-124 982.36,-144"/>
<text text-anchor="middle" x="954.49" y="-130.5" font-family="Helvetica,sans-Serif" font-size="10.00">concepts</text>
</a>
</g>
</g>
<!-- Node1&#45;&gt;Node15 -->
<g id="edge16_Node000001_Node000015" class="edge">
<title>Node1&#45;&gt;Node15</title>
<g id="a_edge16_Node000001_Node000015"><a xlink:title=" ">
<path fill="none" stroke="#63b8ff" d="M908.24,-179.59C916.11,-172.01 927.39,-161.13 936.83,-152.02"/>
<polygon fill="#63b8ff" stroke="#63b8ff" points="938.99,-154.81 943.76,-145.35 934.13,-149.77 938.99,-154.81"/>
</a>
</g>
</g>
<!-- Node3 -->
<g id="Node000003" class="node">
<title>Node3</title>
<g id="a_Node000003"><a xlink:href="uint128__traits__specializations_8hpp.html" target="_top" xlink:title="Forward declarations for uint128_t type traits specializations.">
<polygon fill="white" stroke="#666666" points="831.99,-82 668.99,-82 668.99,-62 831.99,-62 831.99,-82"/>
<text text-anchor="middle" x="750.49" y="-68.5" font-family="Helvetica,sans-Serif" font-size="10.00">uint128_traits_specializations.hpp</text>
</a>
</g>
</g>
<!-- Node2&#45;&gt;Node3 -->
<g id="edge2_Node000002_Node000003" class="edge">
<title>Node2&#45;&gt;Node3</title>
<g id="a_edge2_Node000002_Node000003"><a xlink:title=" ">
<path fill="none" stroke="#63b8ff" d="M483.19,-125.58C535.26,-115.34 629.69,-96.76 691.24,-84.66"/>
<polygon fill="#63b8ff" stroke="#63b8ff" points="691.71,-88.13 700.85,-82.77 690.36,-81.26 691.71,-88.13"/>
</a>
</g>
</g>
<!-- Node2&#45;&gt;Node4 -->
<g id="edge12_Node000002_Node000004" class="edge">
<title>Node2&#45;&gt;Node4</title>
<g id="a_edge12_Node000002_Node000004"><a xlink:title=" ">
<path fill="none" stroke="#63b8ff" d="M483.2,-131.14C576.94,-126.18 814.85,-111.41 841.49,-88 857.3,-74.1 861,-49.34 861.42,-31.65"/>
<polygon fill="#63b8ff" stroke="#63b8ff" points="864.92,-31.74 861.29,-21.78 857.92,-31.83 864.92,-31.74"/>
</a>
</g>
</g>
<!-- Node5 -->
<g id="Node000005" class="node">
<title>Node5</title>
<g id="a_Node000005"><a xlink:title=" ">
<polygon fill="#e0e0e0" stroke="#999999" points="59.74,-82 15.24,-82 15.24,-62 59.74,-62 59.74,-82"/>
<text text-anchor="middle" x="37.49" y="-68.5" font-family="Helvetica,sans-Serif" font-size="10.00">climits</text>
</a>
</g>
</g>
<!-- Node2&#45;&gt;Node5 -->
<g id="edge4_Node000002_Node000005" class="edge">
<title>Node2&#45;&gt;Node5</title>
<g id="a_edge4_Node000002_Node000005"><a xlink:title=" ">
<path fill="none" stroke="#63b8ff" d="M407.75,-132.6C338.92,-130.97 189,-123.27 68.49,-88 67.31,-87.66 66.13,-87.27 64.94,-86.85"/>
<polygon fill="#63b8ff" stroke="#63b8ff" points="66.43,-83.69 55.86,-83.05 63.73,-90.14 66.43,-83.69"/>
</a>
</g>
</g>
<!-- Node6 -->
<g id="Node000006" class="node">
<title>Node6</title>
<g id="a_Node000006"><a xlink:title=" ">
<polygon fill="#e0e0e0" stroke="#999999" points="125.61,-82 77.36,-82 77.36,-62 125.61,-62 125.61,-82"/>
<text text-anchor="middle" x="101.49" y="-68.5" font-family="Helvetica,sans-Serif" font-size="10.00">cstddef</text>
</a>
</g>
</g>
<!-- Node2&#45;&gt;Node6 -->
<g id="edge5_Node000002_Node000006" class="edge">
<title>Node2&#45;&gt;Node6</title>
<g id="a_edge5_Node000002_Node000006"><a xlink:title=" ">
<path fill="none" stroke="#63b8ff" d="M408.06,-130.85C349.09,-126.73 231.4,-115.56 135.49,-88 134.09,-87.6 132.68,-87.15 131.27,-86.67"/>
<polygon fill="#63b8ff" stroke="#63b8ff" points="132.57,-83.42 121.98,-83.05 130.02,-89.94 132.57,-83.42"/>
</a>
</g>
</g>
<!-- Node7 -->
<g id="Node000007" class="node">
<title>Node7</title>
<g id="a_Node000007"><a xlink:title=" ">
<polygon fill="#e0e0e0" stroke="#999999" points="117.11,-20 71.86,-20 71.86,0 117.11,0 117.11,-20"/>
<text text-anchor="middle" x="94.49" y="-6.5" font-family="Helvetica,sans-Serif" font-size="10.00">cstdint</text>
</a>
</g>
</g>
<!-- Node2&#45;&gt;Node7 -->
<g id="edge6_Node000002_Node000007" class="edge">
<title>Node2&#45;&gt;Node7</title>
<g id="a_edge6_Node000002_Node000007"><a xlink:title=" ">
<path fill="none" stroke="#63b8ff" d="M407.79,-131.97C306.31,-128.8 33.18,-117.57 6.49,-88 -3.04,-77.44 -0.93,-68.13 6.49,-56 18.24,-36.79 41.07,-25.45 60.53,-18.96"/>
<polygon fill="#63b8ff" stroke="#63b8ff" points="61.47,-22.33 70.04,-16.11 59.46,-15.63 61.47,-22.33"/>
</a>
</g>
</g>
<!-- Node8 -->
<g id="Node000008" class="node">
<title>Node8</title>
<g id="a_Node000008"><a xlink:title=" ">
<polygon fill="#e0e0e0" stroke="#999999" points="330.24,-82 276.74,-82 276.74,-62 330.24,-62 330.24,-82"/>
<text text-anchor="middle" x="303.49" y="-68.5" font-family="Helvetica,sans-Serif" font-size="10.00">iostream</text>
</a>
</g>
</g>
<!-- Node2&#45;&gt;Node8 -->
<g id="edge7_Node000002_Node000008" class="edge">
<title>Node2&#45;&gt;Node8</title>
<g id="a_edge7_Node000002_Node000008"><a xlink:title=" ">
<path fill="none" stroke="#63b8ff" d="M423.3,-123.62C399.85,-113.72 362.64,-97.99 335.91,-86.7"/>
<polygon fill="#63b8ff" stroke="#63b8ff" points="337.49,-83.57 326.91,-82.9 334.76,-90.01 337.49,-83.57"/>
</a>
</g>
</g>
<!-- Node9 -->
<g id="Node000009" class="node">
<title>Node9</title>
<g id="a_Node000009"><a xlink:title=" ">
<polygon fill="#e0e0e0" stroke="#999999" points="398.36,-82 348.61,-82 348.61,-62 398.36,-62 398.36,-82"/>
<text text-anchor="middle" x="373.49" y="-68.5" font-family="Helvetica,sans-Serif" font-size="10.00">optional</text>
</a>
</g>
</g>
<!-- Node2&#45;&gt;Node9 -->
<g id="edge8_Node000002_Node000009" class="edge">
<title>Node2&#45;&gt;Node9</title>
<g id="a_edge8_Node000002_Node000009"><a xlink:title=" ">
<path fill="none" stroke="#63b8ff" d="M434.24,-123.62C423.29,-114.5 406.42,-100.45 393.24,-89.46"/>
<polygon fill="#63b8ff" stroke="#63b8ff" points="395.51,-86.79 385.59,-83.08 391.03,-92.17 395.51,-86.79"/>
</a>
</g>
</g>
<!-- Node10 -->
<g id="Node000010" class="node">
<title>Node10</title>
<g id="a_Node000010"><a xlink:title=" ">
<polygon fill="#e0e0e0" stroke="#999999" points="474.86,-82 416.11,-82 416.11,-62 474.86,-62 474.86,-82"/>
<text text-anchor="middle" x="445.49" y="-68.5" font-family="Helvetica,sans-Serif" font-size="10.00">stdexcept</text>
</a>
</g>
</g>
<!-- Node2&#45;&gt;Node10 -->
<g id="edge9_Node000002_Node000010" class="edge">
<title>Node2&#45;&gt;Node10</title>
<g id="a_edge9_Node000002_Node000010"><a xlink:title=" ">
<path fill="none" stroke="#63b8ff" d="M445.49,-123.62C445.49,-115.56 445.49,-103.65 445.49,-93.41"/>
<polygon fill="#63b8ff" stroke="#63b8ff" points="448.99,-93.63 445.49,-83.63 441.99,-93.63 448.99,-93.63"/>
</a>
</g>
</g>
<!-- Node11 -->
<g id="Node000011" class="node">
<title>Node11</title>
<g id="a_Node000011"><a xlink:title=" ">
<polygon fill="#e0e0e0" stroke="#999999" points="532.49,-82 492.49,-82 492.49,-62 532.49,-62 532.49,-82"/>
<text text-anchor="middle" x="512.49" y="-68.5" font-family="Helvetica,sans-Serif" font-size="10.00">string</text>
</a>
</g>
</g>
<!-- Node2&#45;&gt;Node11 -->
<g id="edge10_Node000002_Node000011" class="edge">
<title>Node2&#45;&gt;Node11</title>
<g id="a_edge10_Node000002_Node000011"><a xlink:title=" ">
<path fill="none" stroke="#63b8ff" d="M455.96,-123.62C466.05,-114.59 481.54,-100.72 493.75,-89.78"/>
<polygon fill="#63b8ff" stroke="#63b8ff" points="496.07,-92.4 501.19,-83.12 491.4,-87.19 496.07,-92.4"/>
</a>
</g>
</g>
<!-- Node12 -->
<g id="Node000012" class="node">
<title>Node12</title>
<g id="a_Node000012"><a xlink:title=" ">
<polygon fill="#e0e0e0" stroke="#999999" points="593.99,-82 550.99,-82 550.99,-62 593.99,-62 593.99,-82"/>
<text text-anchor="middle" x="572.49" y="-68.5" font-family="Helvetica,sans-Serif" font-size="10.00">thread</text>
</a>
</g>
</g>
<!-- Node2&#45;&gt;Node12 -->
<g id="edge11_Node000002_Node000012" class="edge">
<title>Node2&#45;&gt;Node12</title>
<g id="a_edge11_Node000002_Node000012"><a xlink:title=" ">
<path fill="none" stroke="#63b8ff" d="M465.75,-123.59C485.2,-114.54 515.4,-100.43 541.49,-88 541.96,-87.78 542.44,-87.55 542.92,-87.32"/>
<polygon fill="#63b8ff" stroke="#63b8ff" points="544.3,-90.54 551.79,-83.05 541.27,-84.23 544.3,-90.54"/>
</a>
</g>
</g>
<!-- Node13 -->
<g id="Node000013" class="node">
<title>Node13</title>
<g id="a_Node000013"><a xlink:title=" ">
<polygon fill="#e0e0e0" stroke="#999999" points="651.11,-82 611.86,-82 611.86,-62 651.11,-62 651.11,-82"/>
<text text-anchor="middle" x="631.49" y="-68.5" font-family="Helvetica,sans-Serif" font-size="10.00">utility</text>
</a>
</g>
</g>
<!-- Node2&#45;&gt;Node13 -->
<g id="edge13_Node000002_Node000013" class="edge">
<title>Node2&#45;&gt;Node13</title>
<g id="a_edge13_Node000002_Node000013"><a xlink:title=" ">
<path fill="none" stroke="#63b8ff" d="M482.96,-124.73C515.45,-117 563.44,-104.21 603.49,-88 603.97,-87.8 604.46,-87.6 604.95,-87.39"/>
<polygon fill="#63b8ff" stroke="#63b8ff" points="606.32,-90.62 613.82,-83.14 603.29,-84.31 606.32,-90.62"/>
</a>
</g>
</g>
<!-- Node14 -->
<g id="Node000014" class="node">
<title>Node14</title>
<g id="a_Node000014"><a xlink:href="uint128__mod__helpers_8hpp.html" target="_top" xlink:title="Helpers y especializaciones para operaciones de módulo optimizadas en uint128_t.">
<polygon fill="white" stroke="#666666" points="258.99,-88 143.99,-88 143.99,-56 258.99,-56 258.99,-88"/>
<text text-anchor="start" x="151.99" y="-74.5" font-family="Helvetica,sans-Serif" font-size="10.00">specializations/uint128</text>
<text text-anchor="middle" x="201.49" y="-62.5" font-family="Helvetica,sans-Serif" font-size="10.00">_mod_helpers.hpp</text>
</a>
</g>
</g>
<!-- Node2&#45;&gt;Node14 -->
<g id="edge14_Node000002_Node000014" class="edge">
<title>Node2&#45;&gt;Node14</title>
<g id="a_edge14_Node000002_Node000014"><a xlink:title=" ">
<path fill="none" stroke="#63b8ff" d="M407.9,-123.76C371.3,-114.76 314.82,-100.87 270.18,-89.89"/>
<polygon fill="#63b8ff" stroke="#63b8ff" points="271.13,-86.52 260.58,-87.53 269.45,-93.32 271.13,-86.52"/>
</a>
</g>
</g>
<!-- Node3&#45;&gt;Node4 -->
<g id="edge3_Node000003_Node000004" class="edge">
<title>Node3&#45;&gt;Node4</title>
<g id="a_edge3_Node000003_Node000004"><a xlink:title=" ">
<path fill="none" stroke="#63b8ff" d="M767.68,-61.62C785.27,-52.03 812.88,-36.97 833.42,-25.77"/>
<polygon fill="#63b8ff" stroke="#63b8ff" points="834.99,-28.9 842.09,-21.03 831.64,-22.75 834.99,-28.9"/>
</a>
</g>
</g>
<!-- Node14&#45;&gt;Node7 -->
<g id="edge15_Node000014_Node000007" class="edge">
<title>Node14&#45;&gt;Node7</title>
<g id="a_edge15_Node000014_Node000007"><a xlink:title=" ">
<path fill="none" stroke="#63b8ff" d="M173.93,-55.55C157.68,-46.43 137.21,-34.96 121.12,-25.93"/>
<polygon fill="#63b8ff" stroke="#63b8ff" points="123.02,-22.99 112.59,-21.15 119.6,-29.09 123.02,-22.99"/>
</a>
</g>
</g>
</g>
</svg>

<g id="navigator" transform="translate(0 0)" fill="#404254">
  <rect fill="#f2f5e9" fill-opacity="0.5" stroke="#606060" stroke-width=".5" x="0" y="0" width="60" height="60"/>
  <use id="zoomplus" xlink:href="#zoomPlus" x="17" y="9" onmousedown="handleZoom(evt,'in')"/>
  <use id="zoomminus" xlink:href="#zoomMin" x="42" y="9" onmousedown="handleZoom(evt,'out')"/>
  <use id="reset" xlink:href="#resetDef" x="30" y="36" onmousedown="handleReset()"/>
   <use id="arrowup" xlink:href="#arrowUp" x="0" y="0" onmousedown="handlePan(0,-1)"/>
  <use id="arrowright" xlink:href="#arrowRight" x="0" y="0" onmousedown="handlePan(1,0)"/>
  <use id="arrowdown" xlink:href="#arrowDown" x="0" y="0" onmousedown="handlePan(0,1)"/>
  <use id="arrowleft" xlink:href="#arrowLeft" x="0" y="0" onmousedown="handlePan(-1,0)"/>
</g>
<svg viewBox="0 0 15 15" width="100%" height="30px" preserveAspectRatio="xMaxYMin meet">
 <g id="arrow_out" transform="scale(0.3 0.3)">
  <a xlink:href="uint128__concepts_8hpp__incl_org.svg" target="_base">
   <rect id="button" ry="5" rx="5" y="6" x="6" height="38" width="38"
        fill="#f2f5e9" fill-opacity="0.5" stroke="#606060" stroke-width="1.0"/>
   <path id="arrow"
     d="M 11.500037,31.436501 C 11.940474,20.09759 22.043105,11.32322 32.158766,21.979434 L 37.068811,17.246167 C 37.068811,17.246167 37.088388,32 37.088388,32 L 22.160133,31.978069 C 22.160133,31.978069 26.997745,27.140456 26.997745,27.140456 C 18.528582,18.264221 13.291696,25.230495 11.500037,31.436501 z"
     style="fill:#404040;"/>
  </a>
 </g>
</svg>

<style type='text/css'>
<![CDATA[
[data-mouse-over-selected='false'] { opacity: 0.7; }
[data-mouse-over-selected='true']  { opacity: 1.0; }
]]>
</style>
<script type="application/ecmascript"><![CDATA[
document.addEventListener('DOMContentLoaded', (event) => {
  highlightEdges();
  highlightAdjacentNodes();
});
]]></script>
</svg>
