<?xml version="1.0" encoding="UTF-8" standalone="no"?>
<!DOCTYPE svg PUBLIC "-//W3C//DTD SVG 1.1//EN"
 "http://www.w3.org/Graphics/SVG/1.1/DTD/svg11.dtd">
<!-- Generated by graphviz version 12.2.1 (0)
 -->
<!-- Title: uint128/uint128_ranges.hpp Pages: 1 -->
<svg width="901pt" height="208pt"
 viewBox="0.00 0.00 901.00 208.00" xmlns="http://www.w3.org/2000/svg" xmlns:xlink="http://www.w3.org/1999/xlink">
<g id="graph0" class="graph" transform="scale(1 1) rotate(0) translate(4 204)">
<title>uint128/uint128_ranges.hpp</title>
<!-- Node1 -->
<g id="Node000001" class="node">
<title>Node1</title>
<g id="a_Node000001"><a xlink:title=" ">
<polygon fill="#999999" stroke="#666666" points="555.12,-200 419.88,-200 419.88,-180 555.12,-180 555.12,-200"/>
<text text-anchor="middle" x="487.5" y="-186.5" font-family="Helvetica,sans-Serif" font-size="10.00">uint128/uint128_ranges.hpp</text>
</a>
</g>
</g>
<!-- Node2 -->
<g id="Node000002" class="node">
<title>Node2</title>
<g id="a_Node000002"><a xlink:href="uint128__t_8hpp.html" target="_top" xlink:title=" ">
<polygon fill="white" stroke="#666666" points="484.75,-144 410.25,-144 410.25,-124 484.75,-124 484.75,-144"/>
<text text-anchor="middle" x="447.5" y="-130.5" font-family="Helvetica,sans-Serif" font-size="10.00">uint128_t.hpp</text>
</a>
</g>
</g>
<!-- Node1&#45;&gt;Node2 -->
<g id="edge1_Node000001_Node000002" class="edge">
<title>Node1&#45;&gt;Node2</title>
<g id="a_edge1_Node000001_Node000002"><a xlink:title=" ">
<path fill="none" stroke="#63b8ff" d="M480.53,-179.59C475.2,-172.39 467.67,-162.23 461.15,-153.43"/>
<polygon fill="#63b8ff" stroke="#63b8ff" points="464.05,-151.47 455.29,-145.51 458.43,-155.63 464.05,-151.47"/>
</a>
</g>
</g>
<!-- Node15 -->
<g id="Node000015" class="node">
<title>Node15</title>
<g id="a_Node000015"><a xlink:title=" ">
<polygon fill="#e0e0e0" stroke="#999999" points="553.75,-144 503.25,-144 503.25,-124 553.75,-124 553.75,-144"/>
<text text-anchor="middle" x="528.5" y="-130.5" font-family="Helvetica,sans-Serif" font-size="10.00">numeric</text>
</a>
</g>
</g>
<!-- Node1&#45;&gt;Node15 -->
<g id="edge16_Node000001_Node000015" class="edge">
<title>Node1&#45;&gt;Node15</title>
<g id="a_edge16_Node000001_Node000015"><a xlink:title=" ">
<path fill="none" stroke="#63b8ff" d="M494.64,-179.59C500.11,-172.39 507.82,-162.23 514.51,-153.43"/>
<polygon fill="#63b8ff" stroke="#63b8ff" points="517.27,-155.58 520.52,-145.5 511.69,-151.35 517.27,-155.58"/>
</a>
</g>
</g>
<!-- Node3 -->
<g id="Node000003" class="node">
<title>Node3</title>
<g id="a_Node000003"><a xlink:href="uint128__traits__specializations_8hpp.html" target="_top" xlink:title="Forward declarations for uint128_t type traits specializations.">
<polygon fill="white" stroke="#666666" points="163,-82 0,-82 0,-62 163,-62 163,-82"/>
<text text-anchor="middle" x="81.5" y="-68.5" font-family="Helvetica,sans-Serif" font-size="10.00">uint128_traits_specializations.hpp</text>
</a>
</g>
</g>
<!-- Node2&#45;&gt;Node3 -->
<g id="edge2_Node000002_Node000003" class="edge">
<title>Node2&#45;&gt;Node3</title>
<g id="a_edge2_Node000002_Node000003"><a xlink:title=" ">
<path fill="none" stroke="#63b8ff" d="M410.05,-126.86C349.01,-116.85 227.18,-96.88 150.25,-84.27"/>
<polygon fill="#63b8ff" stroke="#63b8ff" points="151.17,-80.87 140.73,-82.71 150.03,-87.78 151.17,-80.87"/>
</a>
</g>
</g>
<!-- Node4 -->
<g id="Node000004" class="node">
<title>Node4</title>
<g id="a_Node000004"><a xlink:title=" ">
<polygon fill="#e0e0e0" stroke="#999999" points="167.38,-20 105.62,-20 105.62,0 167.38,0 167.38,-20"/>
<text text-anchor="middle" x="136.5" y="-6.5" font-family="Helvetica,sans-Serif" font-size="10.00">type_traits</text>
</a>
</g>
</g>
<!-- Node2&#45;&gt;Node4 -->
<g id="edge12_Node000002_Node000004" class="edge">
<title>Node2&#45;&gt;Node4</title>
<g id="a_edge12_Node000002_Node000004"><a xlink:title=" ">
<path fill="none" stroke="#63b8ff" d="M409.85,-132.79C361.04,-131.02 274.58,-122.71 210.5,-88 196.71,-80.53 168.82,-49.3 151.5,-28.98"/>
<polygon fill="#63b8ff" stroke="#63b8ff" points="154.26,-26.82 145.13,-21.44 148.91,-31.34 154.26,-26.82"/>
</a>
</g>
</g>
<!-- Node5 -->
<g id="Node000005" class="node">
<title>Node5</title>
<g id="a_Node000005"><a xlink:title=" ">
<polygon fill="#e0e0e0" stroke="#999999" points="263.75,-82 219.25,-82 219.25,-62 263.75,-62 263.75,-82"/>
<text text-anchor="middle" x="241.5" y="-68.5" font-family="Helvetica,sans-Serif" font-size="10.00">climits</text>
</a>
</g>
</g>
<!-- Node2&#45;&gt;Node5 -->
<g id="edge4_Node000002_Node000005" class="edge">
<title>Node2&#45;&gt;Node5</title>
<g id="a_edge4_Node000002_Node000005"><a xlink:title=" ">
<path fill="none" stroke="#63b8ff" d="M409.98,-125.62C374.09,-118.03 318.75,-104.94 272.5,-88 271.54,-87.65 270.57,-87.28 269.6,-86.89"/>
<polygon fill="#63b8ff" stroke="#63b8ff" points="271.22,-83.78 260.65,-82.95 268.4,-90.19 271.22,-83.78"/>
</a>
</g>
</g>
<!-- Node6 -->
<g id="Node000006" class="node">
<title>Node6</title>
<g id="a_Node000006"><a xlink:title=" ">
<polygon fill="#e0e0e0" stroke="#999999" points="329.62,-82 281.38,-82 281.38,-62 329.62,-62 329.62,-82"/>
<text text-anchor="middle" x="305.5" y="-68.5" font-family="Helvetica,sans-Serif" font-size="10.00">cstddef</text>
</a>
</g>
</g>
<!-- Node2&#45;&gt;Node6 -->
<g id="edge5_Node000002_Node000006" class="edge">
<title>Node2&#45;&gt;Node6</title>
<g id="a_edge5_Node000002_Node000006"><a xlink:title=" ">
<path fill="none" stroke="#63b8ff" d="M425.31,-123.62C401.87,-113.72 364.65,-97.99 337.92,-86.7"/>
<polygon fill="#63b8ff" stroke="#63b8ff" points="339.5,-83.57 328.93,-82.9 336.78,-90.01 339.5,-83.57"/>
</a>
</g>
</g>
<!-- Node7 -->
<g id="Node000007" class="node">
<title>Node7</title>
<g id="a_Node000007"><a xlink:title=" ">
<polygon fill="#e0e0e0" stroke="#999999" points="619.12,-20 573.88,-20 573.88,0 619.12,0 619.12,-20"/>
<text text-anchor="middle" x="596.5" y="-6.5" font-family="Helvetica,sans-Serif" font-size="10.00">cstdint</text>
</a>
</g>
</g>
<!-- Node2&#45;&gt;Node7 -->
<g id="edge6_Node000002_Node000007" class="edge">
<title>Node2&#45;&gt;Node7</title>
<g id="a_edge6_Node000002_Node000007"><a xlink:title=" ">
<path fill="none" stroke="#63b8ff" d="M420.56,-123.6C404.65,-116.49 385.86,-105.01 376.5,-88 369.64,-75.54 367.51,-67.02 376.5,-56 399.52,-27.79 506.08,-16.79 562.01,-12.9"/>
<polygon fill="#63b8ff" stroke="#63b8ff" points="562.19,-16.4 571.94,-12.26 561.73,-9.41 562.19,-16.4"/>
</a>
</g>
</g>
<!-- Node8 -->
<g id="Node000008" class="node">
<title>Node8</title>
<g id="a_Node000008"><a xlink:title=" ">
<polygon fill="#e0e0e0" stroke="#999999" points="439.25,-82 385.75,-82 385.75,-62 439.25,-62 439.25,-82"/>
<text text-anchor="middle" x="412.5" y="-68.5" font-family="Helvetica,sans-Serif" font-size="10.00">iostream</text>
</a>
</g>
</g>
<!-- Node2&#45;&gt;Node8 -->
<g id="edge7_Node000002_Node000008" class="edge">
<title>Node2&#45;&gt;Node8</title>
<g id="a_edge7_Node000002_Node000008"><a xlink:title=" ">
<path fill="none" stroke="#63b8ff" d="M442.03,-123.62C437.07,-115.12 429.61,-102.33 423.43,-91.74"/>
<polygon fill="#63b8ff" stroke="#63b8ff" points="426.64,-90.29 418.58,-83.42 420.59,-93.82 426.64,-90.29"/>
</a>
</g>
</g>
<!-- Node9 -->
<g id="Node000009" class="node">
<title>Node9</title>
<g id="a_Node000009"><a xlink:title=" ">
<polygon fill="#e0e0e0" stroke="#999999" points="507.38,-82 457.62,-82 457.62,-62 507.38,-62 507.38,-82"/>
<text text-anchor="middle" x="482.5" y="-68.5" font-family="Helvetica,sans-Serif" font-size="10.00">optional</text>
</a>
</g>
</g>
<!-- Node2&#45;&gt;Node9 -->
<g id="edge8_Node000002_Node000009" class="edge">
<title>Node2&#45;&gt;Node9</title>
<g id="a_edge8_Node000002_Node000009"><a xlink:title=" ">
<path fill="none" stroke="#63b8ff" d="M452.97,-123.62C457.93,-115.12 465.39,-102.33 471.57,-91.74"/>
<polygon fill="#63b8ff" stroke="#63b8ff" points="474.41,-93.82 476.42,-83.42 468.36,-90.29 474.41,-93.82"/>
</a>
</g>
</g>
<!-- Node10 -->
<g id="Node000010" class="node">
<title>Node10</title>
<g id="a_Node000010"><a xlink:title=" ">
<polygon fill="#e0e0e0" stroke="#999999" points="583.88,-82 525.12,-82 525.12,-62 583.88,-62 583.88,-82"/>
<text text-anchor="middle" x="554.5" y="-68.5" font-family="Helvetica,sans-Serif" font-size="10.00">stdexcept</text>
</a>
</g>
</g>
<!-- Node2&#45;&gt;Node10 -->
<g id="edge9_Node000002_Node000010" class="edge">
<title>Node2&#45;&gt;Node10</title>
<g id="a_edge9_Node000002_Node000010"><a xlink:title=" ">
<path fill="none" stroke="#63b8ff" d="M464.22,-123.62C481.26,-114.07 507.95,-99.11 527.89,-87.92"/>
<polygon fill="#63b8ff" stroke="#63b8ff" points="529.57,-90.99 536.58,-83.05 526.14,-84.89 529.57,-90.99"/>
</a>
</g>
</g>
<!-- Node11 -->
<g id="Node000011" class="node">
<title>Node11</title>
<g id="a_Node000011"><a xlink:title=" ">
<polygon fill="#e0e0e0" stroke="#999999" points="641.5,-82 601.5,-82 601.5,-62 641.5,-62 641.5,-82"/>
<text text-anchor="middle" x="621.5" y="-68.5" font-family="Helvetica,sans-Serif" font-size="10.00">string</text>
</a>
</g>
</g>
<!-- Node2&#45;&gt;Node11 -->
<g id="edge10_Node000002_Node000011" class="edge">
<title>Node2&#45;&gt;Node11</title>
<g id="a_edge10_Node000002_Node000011"><a xlink:title=" ">
<path fill="none" stroke="#63b8ff" d="M484.18,-123.55C513.87,-115.44 556.53,-102.75 592.5,-88 593.12,-87.74 593.75,-87.48 594.38,-87.21"/>
<polygon fill="#63b8ff" stroke="#63b8ff" points="595.65,-90.48 603.19,-83.04 592.66,-84.15 595.65,-90.48"/>
</a>
</g>
</g>
<!-- Node12 -->
<g id="Node000012" class="node">
<title>Node12</title>
<g id="a_Node000012"><a xlink:title=" ">
<polygon fill="#e0e0e0" stroke="#999999" points="703,-82 660,-82 660,-62 703,-62 703,-82"/>
<text text-anchor="middle" x="681.5" y="-68.5" font-family="Helvetica,sans-Serif" font-size="10.00">thread</text>
</a>
</g>
</g>
<!-- Node2&#45;&gt;Node12 -->
<g id="edge11_Node000002_Node000012" class="edge">
<title>Node2&#45;&gt;Node12</title>
<g id="a_edge11_Node000002_Node000012"><a xlink:title=" ">
<path fill="none" stroke="#63b8ff" d="M484.94,-125.78C534.83,-115.98 620.32,-98.49 650.5,-88 651.46,-87.67 652.44,-87.31 653.41,-86.93"/>
<polygon fill="#63b8ff" stroke="#63b8ff" points="654.59,-90.24 662.38,-83.05 651.81,-83.81 654.59,-90.24"/>
</a>
</g>
</g>
<!-- Node13 -->
<g id="Node000013" class="node">
<title>Node13</title>
<g id="a_Node000013"><a xlink:title=" ">
<polygon fill="#e0e0e0" stroke="#999999" points="760.12,-82 720.88,-82 720.88,-62 760.12,-62 760.12,-82"/>
<text text-anchor="middle" x="740.5" y="-68.5" font-family="Helvetica,sans-Serif" font-size="10.00">utility</text>
</a>
</g>
</g>
<!-- Node2&#45;&gt;Node13 -->
<g id="edge13_Node000002_Node000013" class="edge">
<title>Node2&#45;&gt;Node13</title>
<g id="a_edge13_Node000002_Node000013"><a xlink:title=" ">
<path fill="none" stroke="#63b8ff" d="M485.19,-125.69C488.34,-125.11 491.47,-124.54 494.5,-124 591.18,-106.76 619.53,-119.61 712.5,-88 713.3,-87.73 714.11,-87.43 714.92,-87.12"/>
<polygon fill="#63b8ff" stroke="#63b8ff" points="716.24,-90.37 723.84,-82.99 713.29,-84.02 716.24,-90.37"/>
</a>
</g>
</g>
<!-- Node14 -->
<g id="Node000014" class="node">
<title>Node14</title>
<g id="a_Node000014"><a xlink:href="uint128__mod__helpers_8hpp.html" target="_top" xlink:title="Helpers y especializaciones para operaciones de módulo optimizadas en uint128_t.">
<polygon fill="white" stroke="#666666" points="893,-88 778,-88 778,-56 893,-56 893,-88"/>
<text text-anchor="start" x="786" y="-74.5" font-family="Helvetica,sans-Serif" font-size="10.00">specializations/uint128</text>
<text text-anchor="middle" x="835.5" y="-62.5" font-family="Helvetica,sans-Serif" font-size="10.00">_mod_helpers.hpp</text>
</a>
</g>
</g>
<!-- Node2&#45;&gt;Node14 -->
<g id="edge14_Node000002_Node000014" class="edge">
<title>Node2&#45;&gt;Node14</title>
<g id="a_edge14_Node000002_Node000014"><a xlink:title=" ">
<path fill="none" stroke="#63b8ff" d="M485.18,-125.58C488.33,-125.02 491.47,-124.49 494.5,-124 612.63,-104.97 646.21,-109.39 766.48,-88.44"/>
<polygon fill="#63b8ff" stroke="#63b8ff" points="766.89,-91.93 776.12,-86.74 765.67,-85.03 766.89,-91.93"/>
</a>
</g>
</g>
<!-- Node3&#45;&gt;Node4 -->
<g id="edge3_Node000003_Node000004" class="edge">
<title>Node3&#45;&gt;Node4</title>
<g id="a_edge3_Node000003_Node000004"><a xlink:title=" ">
<path fill="none" stroke="#63b8ff" d="M90.09,-61.62C98.21,-52.77 110.59,-39.26 120.53,-28.43"/>
<polygon fill="#63b8ff" stroke="#63b8ff" points="122.95,-30.97 127.12,-21.23 117.79,-26.23 122.95,-30.97"/>
</a>
</g>
</g>
<!-- Node14&#45;&gt;Node7 -->
<g id="edge15_Node000014_Node000007" class="edge">
<title>Node14&#45;&gt;Node7</title>
<g id="a_edge15_Node000014_Node000007"><a xlink:title=" ">
<path fill="none" stroke="#63b8ff" d="M777.64,-56.48C731.57,-44.91 668.66,-29.12 630.4,-19.51"/>
<polygon fill="#63b8ff" stroke="#63b8ff" points="631.38,-16.15 620.83,-17.11 629.68,-22.94 631.38,-16.15"/>
</a>
</g>
</g>
</g>
</svg>
